<svg width="49" height="48" viewBox="0 0 49 48" fill="none" xmlns="http://www.w3.org/2000/svg">
<g clip-path="url(#clip0_1547_5401)">
<path d="M9.32667 34.17L7.23667 32.96C6.97667 32.81 6.78667 32.55 6.68667 32.19C6.63667 32 6.60667 31.8 6.61667 31.6C6.61667 31.44 6.55667 31.33 6.46667 31.27L8.55667 32.48C8.64667 32.53 8.70667 32.65 8.70667 32.81C8.70667 33.02 8.72667 33.22 8.77667 33.4C8.87667 33.76 9.07667 34.02 9.32667 34.17Z" fill="#2B2B2B"/>
<mask id="mask0_1547_5401" style="mask-type:luminance" maskUnits="userSpaceOnUse" x="6" y="31" width="4" height="4">
<path d="M9.32667 34.17L7.23667 32.96C6.97667 32.81 6.78667 32.55 6.68667 32.19C6.63667 32 6.60667 31.8 6.61667 31.6C6.61667 31.44 6.55667 31.33 6.46667 31.27L8.55667 32.48C8.64667 32.53 8.70667 32.65 8.70667 32.81C8.70667 33.02 8.72667 33.22 8.77667 33.4C8.87667 33.76 9.07667 34.02 9.32667 34.17Z" fill="white"/>
</mask>
<g mask="url(#mask0_1547_5401)">
<path d="M9.32667 34.17L7.23667 32.96C6.97667 32.81 6.78667 32.55 6.68667 32.19C6.63667 32 6.60667 31.8 6.61667 31.6C6.61667 31.44 6.55667 31.33 6.46667 31.27L8.55667 32.48C8.64667 32.53 8.70667 32.65 8.70667 32.81C8.70667 33.02 8.72667 33.22 8.77667 33.4C8.87667 33.76 9.07667 34.02 9.32667 34.17Z" fill="#2B2B2B" stroke="#2B2B2B" stroke-width="0.4" stroke-linecap="round" stroke-linejoin="round"/>
</g>
<path d="M9.32667 34.17L7.23667 32.96C6.97667 32.81 6.78667 32.55 6.68667 32.19C6.63667 32 6.60667 31.8 6.61667 31.6C6.61667 31.44 6.55667 31.33 6.46667 31.27L8.55667 32.48C8.64667 32.53 8.70667 32.65 8.70667 32.81C8.70667 33.02 8.72667 33.22 8.77667 33.4C8.87667 33.76 9.07667 34.02 9.32667 34.17Z" stroke="#2B2B2B" stroke-width="0.4" stroke-linecap="round" stroke-linejoin="round"/>
<path d="M20.0267 14.7701C20.0267 14.7701 20.0467 14.7701 20.0567 14.7701C20.1267 14.7701 20.1967 14.7901 20.2567 14.8101H20.2767C20.3467 14.8301 20.4067 14.8601 20.4667 14.9001L18.3767 13.6901C18.3767 13.6901 18.3767 13.6901 18.3667 13.6901C18.3267 13.6701 18.2967 13.6501 18.2567 13.6401C18.2367 13.6401 18.2067 13.6201 18.1867 13.6101H18.1667C18.1667 13.6101 18.1567 13.6101 18.1467 13.6101C18.1067 13.6001 18.0667 13.5901 18.0267 13.5801C18.0067 13.5801 17.9867 13.5801 17.9667 13.5801C17.9567 13.5801 17.9467 13.5801 17.9367 13.5801C17.9267 13.5801 17.9167 13.5801 17.9067 13.5801C17.8567 13.5801 17.8167 13.5801 17.7667 13.5801C17.7567 13.5801 17.7367 13.5801 17.7267 13.5801C17.7067 13.5801 17.6967 13.5801 17.6767 13.5801C17.6567 13.5801 17.6267 13.5801 17.6067 13.5801C17.5467 13.5801 17.4967 13.6001 17.4367 13.6201C17.4367 13.6201 17.4367 13.6201 17.4267 13.6201C17.3467 13.6401 17.2667 13.6701 17.1867 13.7001C17.1867 13.7001 17.1867 13.7001 17.1767 13.7001C17.0767 13.7401 16.9867 13.7901 16.8867 13.8401C16.8567 13.8601 16.8267 13.8701 16.7967 13.8801C16.7967 13.8801 16.7867 13.8801 16.7767 13.8801C16.7467 13.8801 16.7167 13.9001 16.6967 13.9001C16.6667 13.9001 16.6367 13.9001 16.6167 13.9001C16.5867 13.9001 16.5667 13.8801 16.5467 13.8701L18.6367 15.0801C18.6367 15.0801 18.6567 15.0801 18.6667 15.0901C18.6667 15.0901 18.6867 15.0901 18.6967 15.0901C18.6967 15.0901 18.7067 15.0901 18.7167 15.0901C18.7267 15.0901 18.7367 15.0901 18.7467 15.0901C18.7567 15.0901 18.7667 15.0901 18.7767 15.0901H18.7967C18.8067 15.0901 18.8267 15.0901 18.8367 15.0901C18.8367 15.0901 18.8467 15.0901 18.8567 15.0901C18.8567 15.0901 18.8667 15.0901 18.8767 15.0901C18.8767 15.0901 18.8967 15.0901 18.9067 15.0901C18.9267 15.0901 18.9567 15.0701 18.9767 15.0601C19.0767 15.0001 19.1667 14.9601 19.2667 14.9201C19.3567 14.8801 19.4467 14.8501 19.5367 14.8301C19.6167 14.8101 19.6967 14.8001 19.7767 14.7901C19.7967 14.7901 19.8067 14.7901 19.8267 14.7901C19.8967 14.7901 19.9767 14.7901 20.0467 14.7901L20.0267 14.7701Z" fill="#2B2B2B" stroke="#2B2B2B" stroke-width="0.4" stroke-linecap="round" stroke-linejoin="round"/>
<path d="M3.13668 34.0299V29.6199L1.03668 28.4099V32.8199C1.03668 32.9099 1.05668 32.9999 1.06668 33.0799C1.11668 33.3199 1.22668 33.4899 1.39668 33.5899L3.48668 34.7999C3.26668 34.6699 3.13668 34.4099 3.13668 34.0299Z" fill="white" stroke="#2B2B2B" stroke-width="0.4" stroke-linecap="round" stroke-linejoin="round"/>
<path d="M5.79669 25.45C5.79669 25.45 5.79669 25.42 5.79669 25.4C5.80669 25.3 5.81669 25.2 5.81669 25.11C5.81669 25.08 5.81669 25.05 5.81669 25.01C5.81669 24.89 5.81669 24.78 5.78669 24.67C5.73669 24.32 5.60669 24.05 5.41669 23.86C5.35669 23.8 5.28669 23.74 5.20669 23.7L3.11669 22.49C3.41669 22.67 3.62669 23 3.69669 23.46C3.71669 23.57 3.71669 23.68 3.72669 23.8C3.72669 23.83 3.72669 23.86 3.72669 23.9C3.72669 24 3.72669 24.09 3.70669 24.19C3.70669 24.21 3.70669 24.24 3.70669 24.26C3.70669 24.32 3.68669 24.37 3.67669 24.43C3.67669 24.47 3.66669 24.51 3.65669 24.56C3.65669 24.58 3.64669 24.61 3.63669 24.63C3.61669 24.7 3.60669 24.76 3.58669 24.83C3.58669 24.85 3.57669 24.88 3.56669 24.9C3.54669 24.97 3.51669 25.04 3.49669 25.11C3.49669 25.12 3.48669 25.14 3.47669 25.15C3.44669 25.23 3.40669 25.32 3.37669 25.4C3.37669 25.42 3.35669 25.44 3.34669 25.45C3.30669 25.53 3.26669 25.61 3.22669 25.69C3.22669 25.69 3.22669 25.69 3.22669 25.7C3.18669 25.78 3.13669 25.86 3.08669 25.94C3.07669 25.96 3.06669 25.98 3.04669 26C2.99669 26.08 2.94669 26.15 2.89669 26.22C2.89669 26.22 2.89669 26.22 2.89669 26.23C2.84669 26.31 2.78669 26.38 2.72669 26.46C2.70669 26.49 2.67669 26.52 2.65669 26.54C2.61669 26.59 2.57669 26.63 2.54669 26.67C2.50669 26.72 2.45669 26.77 2.41669 26.81C2.38669 26.84 2.35669 26.87 2.32669 26.9C2.22669 27 2.11669 27.1 2.00669 27.18C1.98669 27.2 1.95669 27.22 1.93669 27.23C1.81669 27.32 1.70669 27.4 1.57669 27.47C1.51669 27.5 1.46669 27.55 1.41669 27.59C1.41669 27.59 1.40669 27.59 1.39669 27.6C1.39669 27.6 1.38669 27.61 1.37669 27.62C1.37669 27.62 1.36669 27.63 1.35669 27.64C1.35669 27.64 1.34669 27.65 1.33669 27.66C1.32669 27.68 1.30669 27.69 1.29669 27.71C1.29669 27.71 1.29669 27.72 1.28669 27.73C1.28669 27.73 1.28669 27.74 1.27669 27.75C1.26669 27.77 1.25669 27.78 1.24669 27.8C1.24669 27.81 1.22669 27.83 1.21669 27.84C1.21669 27.85 1.19669 27.87 1.19669 27.88C1.19669 27.89 1.17669 27.91 1.17669 27.92C1.17669 27.93 1.16669 27.95 1.15669 27.96C1.15669 27.98 1.14669 27.99 1.13669 28.01C1.13669 28.03 1.12669 28.04 1.11669 28.06V28.08C1.11669 28.08 1.11669 28.08 1.11669 28.09C1.11669 28.09 1.11669 28.1 1.11669 28.11C1.11669 28.13 1.10669 28.15 1.10669 28.17C1.10669 28.18 1.10669 28.19 1.10669 28.21C1.10669 28.21 1.10669 28.22 1.10669 28.23C1.10669 28.23 1.10669 28.24 1.10669 28.25C1.10669 28.28 1.10669 28.32 1.10669 28.35L3.19669 29.56C3.19669 29.56 3.19669 29.48 3.19669 29.44C3.19669 29.44 3.19669 29.43 3.19669 29.42C3.19669 29.38 3.21669 29.34 3.22669 29.3C3.22669 29.3 3.22669 29.3 3.22669 29.29C3.23669 29.25 3.25669 29.21 3.27669 29.17C3.29669 29.13 3.31669 29.09 3.33669 29.05C3.35669 29.01 3.38669 28.97 3.40669 28.94C3.42669 28.91 3.45669 28.88 3.48669 28.85C3.48669 28.85 3.49669 28.84 3.50669 28.83C3.51669 28.82 3.52669 28.81 3.54669 28.8C3.59669 28.75 3.64669 28.71 3.70669 28.68C3.82669 28.61 3.94669 28.53 4.06669 28.44C4.08669 28.42 4.11669 28.4 4.13669 28.39C4.24669 28.3 4.35669 28.21 4.45669 28.11C4.45669 28.11 4.46669 28.1 4.47669 28.09C4.49669 28.07 4.51669 28.04 4.54669 28.02C4.59669 27.97 4.63669 27.93 4.67669 27.88C4.68669 27.87 4.69669 27.86 4.70669 27.84C4.73669 27.81 4.75669 27.77 4.78669 27.74C4.80669 27.71 4.83669 27.68 4.85669 27.66C4.85669 27.66 4.87669 27.64 4.87669 27.63C4.92669 27.57 4.97669 27.5 5.01669 27.44C5.01669 27.44 5.01669 27.43 5.02669 27.42C5.06669 27.37 5.09669 27.31 5.13669 27.26C5.14669 27.24 5.15669 27.22 5.17669 27.2C5.18669 27.18 5.19669 27.16 5.21669 27.14C5.22669 27.12 5.24669 27.1 5.25669 27.08C5.28669 27.02 5.32669 26.96 5.35669 26.9C5.35669 26.9 5.35669 26.9 5.35669 26.89C5.38669 26.84 5.41669 26.78 5.43669 26.73C5.44669 26.7 5.45669 26.68 5.47669 26.65C5.47669 26.63 5.49669 26.61 5.50669 26.6C5.50669 26.58 5.51669 26.57 5.52669 26.55C5.55669 26.49 5.57669 26.43 5.60669 26.36C5.60669 26.36 5.60669 26.35 5.60669 26.34C5.60669 26.32 5.61669 26.31 5.62669 26.29C5.64669 26.25 5.65669 26.2 5.67669 26.16C5.67669 26.13 5.69669 26.11 5.70669 26.08C5.70669 26.06 5.72669 26.03 5.72669 26.01C5.72669 25.99 5.73669 25.97 5.74669 25.96C5.75669 25.91 5.76669 25.86 5.78669 25.81C5.78669 25.79 5.79669 25.76 5.80669 25.74C5.80669 25.74 5.80669 25.73 5.80669 25.72C5.80669 25.68 5.81669 25.65 5.82669 25.61C5.83669 25.55 5.84669 25.5 5.85669 25.44C5.85669 25.44 5.85669 25.43 5.85669 25.42L5.79669 25.45Z" fill="#7F7FFA" stroke="#2B2B2B" stroke-width="0.4" stroke-linecap="round" stroke-linejoin="round"/>
<path d="M3.11669 23.84V19.18L1.01669 17.97V22.63C1.02669 22.72 1.05669 22.79 1.11669 22.82L3.20669 24.03C3.15669 24 3.11669 23.93 3.11669 23.84Z" fill="white" stroke="#2B2B2B" stroke-width="0.4" stroke-linecap="round" stroke-linejoin="round"/>
<path d="M17.4867 9.54006C17.5567 9.52006 17.6167 9.50006 17.6867 9.50006C17.6867 9.50006 17.6967 9.50006 17.7067 9.50006C17.7767 9.50006 17.8367 9.50006 17.8967 9.50006C17.9567 9.51006 18.0167 9.53006 18.0667 9.57006L15.9767 8.36006C15.9567 8.35006 15.9367 8.34006 15.9167 8.33006C15.8967 8.33006 15.8767 8.31006 15.8567 8.31006C15.8467 8.31006 15.8267 8.31006 15.8167 8.31006C15.8167 8.31006 15.8167 8.31006 15.8067 8.31006C15.7867 8.31006 15.7567 8.31006 15.7367 8.31006C15.7067 8.31006 15.6867 8.31006 15.6567 8.31006C15.6567 8.31006 15.6367 8.31006 15.6267 8.31006C15.6267 8.31006 15.6167 8.31006 15.6067 8.31006C15.5867 8.31006 15.5767 8.31006 15.5567 8.31006C15.5267 8.31006 15.4867 8.32006 15.4467 8.33006C15.4367 8.33006 15.4167 8.34006 15.3967 8.35006C15.3867 8.35006 15.3667 8.35006 15.3567 8.36006C15.3367 8.36006 15.3167 8.37006 15.3067 8.38006C15.2567 8.40006 15.1967 8.43006 15.1367 8.46006L2.21667 15.8901L4.30667 17.1001L17.2267 9.65006C17.3067 9.61006 17.3767 9.57006 17.4467 9.55006C17.4567 9.55006 17.4767 9.54006 17.4867 9.54006Z" fill="white" stroke="#2B2B2B" stroke-width="0.4" stroke-linecap="round" stroke-linejoin="round"/>
<path d="M3.13669 18.8599C3.14669 18.7699 3.16669 18.6899 3.19669 18.5999V18.5799C3.22669 18.4799 3.25669 18.3899 3.29669 18.2999C3.33669 18.1999 3.38669 18.1099 3.43669 18.0199C3.48669 17.9299 3.54669 17.8499 3.60669 17.7599C3.60669 17.7599 3.61669 17.7499 3.62669 17.7399C3.68669 17.6699 3.73669 17.5999 3.80669 17.5299C3.81669 17.5199 3.83669 17.4999 3.84669 17.4899C3.89669 17.4399 3.94669 17.3899 3.99669 17.3499C4.01669 17.3299 4.04669 17.3099 4.06669 17.2899C4.13669 17.2299 4.21669 17.1799 4.29669 17.1299L2.20669 15.9199C2.12669 15.9599 2.05669 16.0199 1.97669 16.0799C1.95669 16.0999 1.92669 16.1199 1.90669 16.1399C1.86669 16.1699 1.83669 16.1999 1.79669 16.2299C1.77669 16.2499 1.76669 16.2599 1.75669 16.2799C1.74669 16.2899 1.72669 16.3099 1.71669 16.3199C1.69669 16.3399 1.68669 16.3499 1.66669 16.3699C1.63669 16.4099 1.59669 16.4499 1.56669 16.4899C1.55669 16.4999 1.54669 16.5199 1.53669 16.5299C1.53669 16.5299 1.52669 16.5399 1.51669 16.5499C1.50669 16.5599 1.49669 16.5799 1.48669 16.5899C1.46669 16.6199 1.43669 16.6599 1.41669 16.6899C1.39669 16.7199 1.37669 16.7599 1.35669 16.7899C1.33669 16.8199 1.32669 16.8499 1.30669 16.8799C1.28669 16.9099 1.26669 16.9499 1.25669 16.9799C1.24669 17.0099 1.22669 17.0399 1.21669 17.0699C1.19669 17.1099 1.18669 17.1399 1.17669 17.1799C1.16669 17.2199 1.14669 17.2599 1.13669 17.2899C1.13669 17.3099 1.12669 17.3299 1.11669 17.3499V17.3699C1.11669 17.3799 1.11669 17.3999 1.10669 17.4099C1.09669 17.4599 1.08669 17.4999 1.07669 17.5499C1.07669 17.5799 1.07669 17.6099 1.06669 17.6299C1.06669 17.6399 1.06669 17.6599 1.06669 17.6699C1.06669 17.6799 1.06669 17.6999 1.06669 17.7099C1.05669 17.7899 1.04669 17.8699 1.04669 17.9499L3.13669 19.1599C3.13669 19.0699 3.13669 18.9799 3.15669 18.8799C3.15669 18.8699 3.15669 18.8499 3.15669 18.8399L3.13669 18.8599Z" fill="#2B2B2B" stroke="#2B2B2B" stroke-width="0.4" stroke-linecap="round" stroke-linejoin="round"/>
<path d="M4.3067 17.1099L17.2267 9.65992C17.8867 9.27992 18.4267 9.58993 18.4267 10.3499V14.7299C18.4267 15.0699 18.6667 15.2299 18.9567 15.0599C19.1367 14.9499 19.3267 14.8699 19.5167 14.8199C20.4567 14.5799 21.1367 15.1999 21.0967 16.3499C21.0467 17.6699 20.1267 19.2299 18.9967 19.8799C18.6967 20.0499 18.4467 20.4799 18.4467 20.8299V25.2099C18.4467 25.9799 17.9167 26.8999 17.2567 27.2799L13.4267 29.4899C13.1367 29.6599 12.8967 30.0699 12.8967 30.4099C12.8967 31.7299 12.0067 33.3099 10.8967 34.0099C10.8667 34.0299 10.8367 34.0399 10.8167 34.0599C9.8767 34.6099 9.0367 34.3299 8.7767 33.4299C8.7267 33.2399 8.6967 33.0399 8.7067 32.8399C8.7067 32.4999 8.4567 32.3799 8.1667 32.5499L4.3467 34.7499C3.6767 35.1299 3.1467 34.8299 3.1367 34.0599V29.6499C3.1367 29.3099 3.3667 28.9099 3.6567 28.7399C5.0067 27.9699 6.0067 26.0799 5.7967 24.6899C5.6667 23.8499 5.0867 23.4299 4.3167 23.6199C4.1167 23.6699 3.9167 23.7499 3.7267 23.8599C3.6467 23.9099 3.5667 23.9599 3.4867 24.0099C3.2767 24.1299 3.1267 24.0599 3.1167 23.8599V19.1999C3.1167 18.4399 3.6467 17.5099 4.3067 17.1299V17.1099Z" fill="#D9D9FA" stroke="#2B2B2B" stroke-width="0.4" stroke-linecap="round" stroke-linejoin="round"/>
<path d="M18.5167 45.4698L18.4467 21.6398L15.2867 19.8098L15.3567 43.6398C15.3567 44.1798 15.5467 44.5598 15.8567 44.7398L19.0167 46.5698C18.7067 46.3898 18.5167 46.0098 18.5167 45.4698Z" fill="#7F7FFA" stroke="#2B2B2B" stroke-width="0.4" stroke-linecap="round" stroke-linejoin="round"/>
<path d="M46.8967 3.2799C46.9967 3.2499 47.0867 3.2299 47.1767 3.2199C47.1767 3.2199 47.1967 3.2199 47.2067 3.2199C47.3067 3.2199 47.3967 3.2199 47.4867 3.2299C47.4867 3.2299 47.4867 3.2299 47.4967 3.2299C47.5867 3.2499 47.6667 3.2799 47.7467 3.3199L44.5867 1.4899C44.5567 1.4699 44.5267 1.4599 44.4967 1.4499C44.4667 1.4399 44.4367 1.4299 44.4067 1.4199C44.3867 1.4199 44.3667 1.4199 44.3467 1.4099C44.3467 1.4099 44.3467 1.4099 44.3367 1.4099C44.3367 1.4099 44.3267 1.4099 44.3167 1.4099C44.2867 1.4099 44.2467 1.4099 44.2167 1.3999C44.1767 1.3999 44.1367 1.3999 44.1067 1.3999C44.0967 1.3999 44.0767 1.3999 44.0667 1.3999C44.0667 1.3999 44.0467 1.3999 44.0367 1.3999C44.0167 1.3999 43.9967 1.3999 43.9767 1.3999C43.9267 1.3999 43.8767 1.4199 43.8267 1.4299C43.8067 1.4299 43.7867 1.4499 43.7567 1.4499C43.7367 1.4499 43.7167 1.4599 43.6967 1.4699C43.6667 1.4699 43.6467 1.4899 43.6167 1.4999C43.5367 1.5299 43.4567 1.5699 43.3767 1.6199L17.0167 16.8399L20.1767 18.6699L46.5167 3.4499C46.6267 3.3899 46.7267 3.3399 46.8367 3.2999C46.8567 3.2999 46.8767 3.2899 46.8967 3.2799Z" fill="white" stroke="#2B2B2B" stroke-width="0.4" stroke-linecap="round" stroke-linejoin="round"/>
<path d="M48.2467 5.63992L29.5267 16.4499L18.4467 22.8399V21.6299C18.4467 20.5399 19.2067 19.2099 20.1567 18.6599L46.5167 3.44992C47.4667 2.89992 48.2367 3.33992 48.2467 4.42992V5.63992Z" fill="white" stroke="#2B2B2B" stroke-width="0.4" stroke-linecap="round" stroke-linejoin="round"/>
<path d="M28.0667 17.2898V41.9298L20.2367 46.4498C19.2867 46.9998 18.5167 46.5598 18.5067 45.4698L18.4467 22.8398L28.0667 17.2898Z" fill="white" stroke="#2B2B2B" stroke-width="0.4" stroke-linecap="round" stroke-linejoin="round"/>
<path d="M48.3167 28.2699C48.3167 29.3599 47.5467 30.6899 46.5967 31.2399L28.0667 41.9399V17.2999L29.5267 16.4599L48.2467 5.6499L48.3167 28.2699Z" fill="white" stroke="#2B2B2B" stroke-width="0.4" stroke-linecap="round" stroke-linejoin="round"/>
<path d="M18.4467 21.6398L15.2867 19.8098C15.2867 18.7198 16.0567 17.3898 17.0067 16.8398L20.1667 18.6698C19.2167 19.2198 18.4467 20.5498 18.4467 21.6398Z" fill="#2B2B2B"/>
<mask id="mask1_1547_5401" style="mask-type:luminance" maskUnits="userSpaceOnUse" x="15" y="16" width="6" height="6">
<path d="M18.4467 21.6398L15.2867 19.8098C15.2867 18.7198 16.0567 17.3898 17.0067 16.8398L20.1667 18.6698C19.2167 19.2198 18.4467 20.5498 18.4467 21.6398Z" fill="white"/>
</mask>
<g mask="url(#mask1_1547_5401)">
<path d="M18.4467 21.6397L15.2867 19.8097C15.2867 19.6997 15.2867 19.5897 15.3067 19.4697L18.4667 21.2997C18.4567 21.4097 18.4467 21.5297 18.4467 21.6397Z" fill="#2B2B2B" stroke="#2B2B2B" stroke-width="0.4" stroke-linecap="round" stroke-linejoin="round"/>
<path d="M18.4667 21.2997L15.3067 19.4697C15.3167 19.3897 15.3267 19.3097 15.3467 19.2297L18.5067 21.0597C18.4867 21.1397 18.4767 21.2197 18.4667 21.2997Z" fill="#2B2B2B" stroke="#2B2B2B" stroke-width="0.4" stroke-linecap="round" stroke-linejoin="round"/>
<path d="M18.5067 21.0598L15.3467 19.2298C15.3567 19.1598 15.3767 19.0998 15.3967 19.0298L18.5567 20.8598C18.5367 20.9298 18.5267 20.9898 18.5067 21.0598Z" fill="#2B2B2B" stroke="#2B2B2B" stroke-width="0.4" stroke-linecap="round" stroke-linejoin="round"/>
<path d="M18.5567 20.8599L15.3967 19.0299C15.4167 18.9699 15.4267 18.9099 15.4467 18.8499L18.6067 20.6799C18.5867 20.7399 18.5667 20.7999 18.5567 20.8599Z" fill="#2B2B2B" stroke="#2B2B2B" stroke-width="0.4" stroke-linecap="round" stroke-linejoin="round"/>
<path d="M18.6067 20.69L15.4467 18.86C15.4667 18.81 15.4867 18.75 15.5067 18.7L18.6667 20.53C18.6467 20.58 18.6267 20.64 18.6067 20.69Z" fill="#2B2B2B" stroke="#2B2B2B" stroke-width="0.4" stroke-linecap="round" stroke-linejoin="round"/>
<path d="M18.6667 20.5298L15.5067 18.6998C15.5267 18.6498 15.5467 18.5998 15.5667 18.5498L18.7267 20.3798C18.7067 20.4298 18.6867 20.4798 18.6667 20.5298Z" fill="#2B2B2B" stroke="#2B2B2B" stroke-width="0.4" stroke-linecap="round" stroke-linejoin="round"/>
<path d="M18.7267 20.3699L15.5667 18.5399C15.5867 18.4899 15.6067 18.4399 15.6367 18.3899L18.7967 20.2199C18.7967 20.2199 18.7467 20.3199 18.7267 20.3699Z" fill="#2B2B2B" stroke="#2B2B2B" stroke-width="0.4" stroke-linecap="round" stroke-linejoin="round"/>
<path d="M18.7967 20.2197L15.6367 18.3897C15.6367 18.3897 15.6867 18.2897 15.7067 18.2397L18.8667 20.0697C18.8667 20.0697 18.8167 20.1697 18.7967 20.2197Z" fill="#2B2B2B" stroke="#2B2B2B" stroke-width="0.4" stroke-linecap="round" stroke-linejoin="round"/>
<path d="M18.8767 20.0799L15.7167 18.2499C15.7167 18.2499 15.7667 18.1499 15.7967 18.1099L18.9567 19.9399C18.9567 19.9399 18.9067 20.0399 18.8767 20.0799Z" fill="#2B2B2B" stroke="#2B2B2B" stroke-width="0.4" stroke-linecap="round" stroke-linejoin="round"/>
<path d="M18.9567 19.93L15.7967 18.1C15.7967 18.1 15.8567 18 15.8867 17.95L19.0467 19.78C19.0467 19.78 18.9867 19.88 18.9567 19.93Z" fill="#2B2B2B" stroke="#2B2B2B" stroke-width="0.4" stroke-linecap="round" stroke-linejoin="round"/>
<path d="M19.0467 19.7898L15.8867 17.9598C15.9167 17.9098 15.9567 17.8598 15.9867 17.8098L19.1467 19.6398C19.1467 19.6398 19.0767 19.7398 19.0467 19.7898Z" fill="#2B2B2B" stroke="#2B2B2B" stroke-width="0.4" stroke-linecap="round" stroke-linejoin="round"/>
<path d="M19.1467 19.6399L15.9867 17.8099C16.0267 17.7599 16.0667 17.7099 16.0967 17.6499L19.2567 19.4799C19.2167 19.5299 19.1767 19.5799 19.1467 19.6399Z" fill="#2B2B2B" stroke="#2B2B2B" stroke-width="0.4" stroke-linecap="round" stroke-linejoin="round"/>
<path d="M19.2567 19.4797L16.0967 17.6497C16.1467 17.5897 16.1867 17.5297 16.2367 17.4797L19.3967 19.3097C19.3467 19.3697 19.3067 19.4197 19.2567 19.4797Z" fill="#2B2B2B" stroke="#2B2B2B" stroke-width="0.4" stroke-linecap="round" stroke-linejoin="round"/>
<path d="M19.3967 19.3098L16.2367 17.4798C16.2967 17.4098 16.3567 17.3398 16.4267 17.2798L19.5867 19.1098C19.5267 19.1698 19.4567 19.2398 19.3967 19.3098Z" fill="#2B2B2B" stroke="#2B2B2B" stroke-width="0.4" stroke-linecap="round" stroke-linejoin="round"/>
<path d="M19.5867 19.1098L16.4267 17.2798C16.6067 17.0998 16.7967 16.9498 17.0067 16.8298L20.1667 18.6598C19.9667 18.7798 19.7667 18.9298 19.5867 19.1098Z" fill="#2B2B2B" stroke="#2B2B2B" stroke-width="0.4" stroke-linecap="round" stroke-linejoin="round"/>
</g>
<path d="M18.4467 21.6398L15.2867 19.8098C15.2867 18.7198 16.0567 17.3898 17.0067 16.8398L20.1667 18.6698C19.2167 19.2198 18.4467 20.5498 18.4467 21.6398Z" stroke="#2B2B2B" stroke-width="0.4" stroke-linecap="round" stroke-linejoin="round"/>
<path d="M26.1867 23.53L21.0867 26.48C20.7867 26.65 20.5367 27.08 20.5367 27.42V27.88C20.5367 28.23 20.7867 28.37 21.0867 28.2L26.1867 25.25C26.4867 25.07 26.7367 24.65 26.7367 24.3V23.84C26.7367 23.49 26.4867 23.35 26.1867 23.53Z" fill="white" stroke="#2B2B2B" stroke-width="0.4" stroke-linecap="round" stroke-linejoin="round"/>
<path d="M24.7367 28.59L21.1067 30.69C20.8067 30.86 20.5567 31.29 20.5567 31.64V31.84C20.5567 32.19 20.8067 32.33 21.1067 32.16L24.7367 30.06C25.0367 29.89 25.2867 29.46 25.2867 29.11V28.91C25.2867 28.56 25.0367 28.42 24.7367 28.59Z" fill="#7F7FFA" stroke="#2B2B2B" stroke-width="0.4" stroke-linecap="round" stroke-linejoin="round"/>
<path d="M24.7467 32.5199L21.1167 34.6199C20.8167 34.7899 20.5667 35.2199 20.5667 35.5699V35.7699C20.5667 36.1199 20.8167 36.2599 21.1167 36.0899L24.7467 33.9899C25.0467 33.8199 25.2967 33.3899 25.2967 33.0399V32.8399C25.2967 32.4899 25.0467 32.3499 24.7467 32.5199Z" fill="#7F7FFA" stroke="#2B2B2B" stroke-width="0.4" stroke-linecap="round" stroke-linejoin="round"/>
<path d="M24.7567 36.4599L21.1267 38.5599C20.8267 38.7299 20.5767 39.1599 20.5767 39.4999V39.6999C20.5767 40.0499 20.8267 40.1899 21.1267 40.0199L24.7567 37.9199C25.0567 37.7499 25.3067 37.3199 25.3067 36.9699V36.7699C25.3067 36.4199 25.0567 36.2799 24.7567 36.4599Z" fill="white" stroke="#2B2B2B" stroke-width="0.4" stroke-linecap="round" stroke-linejoin="round"/>
<path d="M36.7567 18.5898L31.5467 21.5998C31.2367 21.7798 30.9867 22.2098 30.9867 22.5698V23.0398C30.9867 23.3998 31.2367 23.5398 31.5467 23.3598L36.7567 20.3498C37.0667 20.1698 37.3167 19.7398 37.3167 19.3798V18.9098C37.3167 18.5498 37.0667 18.4098 36.7567 18.5898Z" fill="#D9D9FD"/>
<path d="M34.5967 23.76L31.5567 25.52C31.2467 25.7 30.9967 26.13 30.9967 26.49V26.7C30.9967 27.06 31.2467 27.2 31.5567 27.02L34.5967 25.26C34.9067 25.08 35.1567 24.65 35.1567 24.29V24.08C35.1567 23.72 34.9067 23.58 34.5967 23.76Z" fill="#7F7FFA"/>
<path d="M35.9367 27.02L31.5667 29.54C31.2567 29.72 31.0067 30.15 31.0067 30.51V30.72C31.0067 31.08 31.2567 31.22 31.5667 31.04L35.9367 28.52C36.2467 28.34 36.4967 27.91 36.4967 27.55V27.34C36.4967 26.98 36.2467 26.84 35.9367 27.02Z" fill="#7F7FFA"/>
<path d="M44.6667 13.9299L39.4567 16.9399C39.1467 17.1199 38.8967 17.5499 38.8967 17.9099V18.3799C38.8967 18.7399 39.1467 18.8799 39.4567 18.6999L44.6667 15.6899C44.9767 15.5099 45.2267 15.0799 45.2267 14.7199V14.2499C45.2267 13.8899 44.9767 13.7499 44.6667 13.9299Z" fill="#D9D9FD"/>
<path d="M43.0767 18.78L39.4667 20.86C39.1567 21.04 38.9067 21.47 38.9067 21.83V22.04C38.9067 22.4 39.1567 22.54 39.4667 22.36L43.0767 20.28C43.3867 20.1 43.6367 19.67 43.6367 19.31V19.1C43.6367 18.74 43.3867 18.6 43.0767 18.78Z" fill="#7F7FFA"/>
<path d="M41.8867 23.4899L39.4867 24.8799C39.1767 25.0599 38.9267 25.4899 38.9267 25.8499V26.0599C38.9267 26.4199 39.1767 26.5599 39.4867 26.3799L41.8867 24.9899C42.1967 24.8099 42.4467 24.3799 42.4467 24.0199V23.8099C42.4467 23.4499 42.1967 23.3099 41.8867 23.4899Z" fill="#7F7FFA"/>
<mask id="mask2_1547_5401" style="mask-type:luminance" maskUnits="userSpaceOnUse" x="5" y="27" width="2" height="4">
<path d="M5.25668 30.2701V28.5501L6.47668 27.8401L6.48668 29.5601L5.25668 30.2701Z" fill="white"/>
</mask>
<g mask="url(#mask2_1547_5401)">
<path d="M5.86668 28.19C5.52668 28.39 5.25668 28.93 5.25668 29.4C5.25668 29.87 5.53668 30.1 5.87668 29.9C6.21668 29.7 6.48668 29.16 6.48668 28.69C6.48668 28.22 6.20668 27.99 5.86668 28.19Z" fill="#7F7FF2"/>
</g>
<mask id="mask3_1547_5401" style="mask-type:luminance" maskUnits="userSpaceOnUse" x="15" y="29" width="3" height="4">
<path d="M15.7467 31.47V29.46L17.1967 30.29L17.1867 32.3L15.7467 31.47Z" fill="white"/>
</mask>
<g mask="url(#mask3_1547_5401)">
<path d="M16.4767 29.88C16.0767 29.65 15.7567 29.91 15.7567 30.47C15.7567 31.03 16.0767 31.66 16.4767 31.89C16.8767 32.12 17.1967 31.86 17.1967 31.3C17.1967 30.74 16.8767 30.11 16.4767 29.88Z" fill="#FFE2AD"/>
</g>
<path d="M16.2467 31.3701L14.2767 32.6301C13.3367 33.2301 12.1967 33.2301 11.2567 32.6301L6.03668 29.1101" stroke="#2B2B2B" stroke-width="0.4" stroke-linecap="round" stroke-linejoin="round"/>
</g>
<defs>
<clipPath id="clip0_1547_5401">
<rect width="48" height="48" fill="white" transform="translate(0.666687)"/>
</clipPath>
</defs>
</svg>
