<svg width="235" height="66" viewBox="0 0 235 66" fill="none" xmlns="http://www.w3.org/2000/svg">
<g clip-path="url(#clip0_1560_10374)">
<path d="M16.8236 26.5242L41.6134 1.73937C43.2655 0.0878536 45.9451 0.0878536 47.6002 1.73937L72.7295 26.1879L16.8236 26.5212V26.5242Z" fill="url(#paint0_linear_1560_10374)"/>
<path d="M19.3518 64.6091L0.88823 45.2969C-0.0514671 44.3121 -0.0181231 42.7545 0.967043 41.8151L16.3659 27.0909C20.9765 22.6818 27.1088 20.2212 33.4897 20.2212H57.4155C63.5296 20.2212 69.383 22.6939 73.645 27.0788L90.696 43.6969C91.6902 44.6666 91.6872 46.2636 90.6929 47.2303L72.5719 64.803C71.6201 65.7272 70.1075 65.7303 69.1496 64.8121L46.8606 43.4454C45.8815 42.506 44.3295 42.5363 43.3837 43.5091L22.9075 64.6212C21.9344 65.6242 20.3218 65.6182 19.3548 64.6091H19.3518Z" fill="url(#paint1_linear_1560_10374)"/>
<path d="M19.1426 64.6091L0.682053 45.3C-0.257644 44.3151 -0.2243 42.7576 0.760866 41.8182L15.99 27.2576C20.7128 22.7424 26.9966 20.2212 33.532 20.2212H58.722C63.8661 20.2212 68.7919 22.303 72.3779 25.9909L82.7237 35.9333C78.2101 33.0151 72.49 31.6727 66.7155 31.6727C57.5731 31.6727 49.422 35.9121 44.1173 42.5273C44.0779 42.5757 44.0385 42.6212 43.996 42.6636L22.6922 64.6272C21.7191 65.6303 20.1065 65.6242 19.1395 64.6151L19.1426 64.6091Z" fill="url(#paint2_linear_1560_10374)"/>
<path d="M139.748 10.2094H137.381L118.232 54.3427H125.668L127.659 49.6821L133.955 34.4942L138.563 23.1669L143.24 34.7669L149.594 50.1275L151.394 54.3427H158.894L139.748 10.2094Z" fill="white"/>
<path d="M181.798 48.6879C172.913 48.6879 166.138 41.8455 166.138 32.6364C166.138 23.4273 172.913 16.5879 181.798 16.5879C187.521 16.5879 191.995 19.2849 195.087 24.0879L200.352 20.2061C196.6 14.0879 189.691 10.2091 181.731 10.2091C169.361 10.0121 158.636 20.2061 158.9 32.6364C158.636 45.0697 169.361 55.2637 181.731 55.0667C189.825 55.0667 196.666 51.1849 200.352 45.0697L195.087 41.1879C191.995 45.9909 187.521 48.6879 181.798 48.6879Z" fill="white"/>
<path d="M215.13 48.094V10.9333H208.155V54.3424H235V48.094H215.13Z" fill="white"/>
</g>
<defs>
<linearGradient id="paint0_linear_1560_10374" x1="44.6204" y1="-5.19093" x2="44.8386" y2="39.6697" gradientUnits="userSpaceOnUse">
<stop stop-color="#062FEA"/>
<stop offset="0.09" stop-color="#0F32EA"/>
<stop offset="0.23" stop-color="#273CEC"/>
<stop offset="0.41" stop-color="#504CEE"/>
<stop offset="0.62" stop-color="#8863F2"/>
<stop offset="0.85" stop-color="#CE7FF6"/>
<stop offset="1" stop-color="#FF93FA"/>
</linearGradient>
<linearGradient id="paint1_linear_1560_10374" x1="91.9838" y1="91.5769" x2="16.6901" y2="15.2901" gradientUnits="userSpaceOnUse">
<stop stop-color="#062FEA"/>
<stop offset="0.09" stop-color="#0F32EA"/>
<stop offset="0.23" stop-color="#273CEC"/>
<stop offset="0.41" stop-color="#504CEE"/>
<stop offset="0.62" stop-color="#8863F2"/>
<stop offset="0.85" stop-color="#CE7FF6"/>
<stop offset="1" stop-color="#FF93FA"/>
</linearGradient>
<linearGradient id="paint2_linear_1560_10374" x1="6.37382" y1="70.3725" x2="75.8247" y2="7.66418" gradientUnits="userSpaceOnUse">
<stop offset="0.23" stop-color="#BA88FD"/>
<stop offset="0.86" stop-color="#C3D1FD"/>
</linearGradient>
<clipPath id="clip0_1560_10374">
<rect width="235" height="65" fill="white" transform="translate(0 0.5)"/>
</clipPath>
</defs>
</svg>
