<svg width="49" height="48" viewBox="0 0 49 48" fill="none" xmlns="http://www.w3.org/2000/svg">
<g clip-path="url(#clip0_1548_38788)">
<g clip-path="url(#clip1_1548_38788)">
<path d="M7.42667 46.4099L7.35667 21.3499L4.03667 19.4199L4.10667 44.4799C4.10667 45.0499 4.30667 45.4499 4.63667 45.6399L7.95667 47.5699C7.62667 47.3799 7.42667 46.9799 7.42667 46.4099Z" fill="#EDBD66" stroke="#2B2B2B" stroke-width="0.4" stroke-linecap="round" stroke-linejoin="round"/>
<path d="M37.2767 2.04006C37.3767 2.01006 37.4767 1.98006 37.5767 1.98006C37.5767 1.98006 37.5967 1.98006 37.6067 1.98006C37.7067 1.98006 37.8067 1.98006 37.8967 1.99006C37.8967 1.99006 37.8967 1.99006 37.9067 1.99006C37.9967 2.01006 38.0867 2.04006 38.1667 2.09006L34.8467 0.160059C34.8167 0.140059 34.7867 0.130059 34.7567 0.120059C34.7267 0.110059 34.6967 0.100059 34.6567 0.0900586C34.6367 0.0900586 34.6167 0.0800586 34.5867 0.0700586C34.5867 0.0700586 34.5867 0.0700586 34.5767 0.0700586C34.5767 0.0700586 34.5667 0.0700586 34.5567 0.0700586C34.5167 0.0700586 34.4867 0.0600586 34.4467 0.0600586C34.4067 0.0600586 34.3667 0.0600586 34.3267 0.0600586C34.3167 0.0600586 34.2967 0.0600586 34.2867 0.0600586C34.2867 0.0600586 34.2667 0.0600586 34.2567 0.0600586C34.2367 0.0600586 34.2167 0.0600586 34.1867 0.0600586C34.1367 0.0600586 34.0767 0.0800586 34.0267 0.0900586C34.0067 0.0900586 33.9767 0.110059 33.9567 0.110059C33.9367 0.110059 33.9167 0.120059 33.8967 0.130059C33.8667 0.130059 33.8467 0.150059 33.8167 0.160059C33.7367 0.190059 33.6467 0.240059 33.5667 0.290059L5.84666 16.2901L9.16666 18.2201L36.8767 2.22006C36.9867 2.15006 37.1067 2.11006 37.2067 2.07006C37.2267 2.07006 37.2467 2.05006 37.2667 2.05006L37.2767 2.04006Z" fill="white" stroke="#2B2B2B" stroke-width="0.4" stroke-linecap="round" stroke-linejoin="round"/>
<path d="M36.8767 2.22001C37.8767 1.64001 38.6867 2.10001 38.6967 3.26001L38.7667 28.32C38.7667 29.47 37.9667 30.87 36.9667 31.45L9.24667 47.45C8.24667 48.03 7.43667 47.56 7.42667 46.41L7.35667 21.35C7.35667 20.2 8.16667 18.8 9.15667 18.22L36.8767 2.22001Z" fill="white" stroke="#2B2B2B" stroke-width="0.4" stroke-linecap="round" stroke-linejoin="round"/>
<path d="M7.35667 21.35L4.03667 19.42C4.03667 18.27 4.84667 16.87 5.83667 16.29L9.15667 18.22C8.15667 18.8 7.34667 20.19 7.35667 21.35Z" fill="#2B2B2B"/>
<mask id="mask0_1548_38788" style="mask-type:luminance" maskUnits="userSpaceOnUse" x="4" y="16" width="6" height="6">
<path d="M7.35667 21.35L4.03667 19.42C4.03667 18.27 4.84667 16.87 5.83667 16.29L9.15667 18.22C8.15667 18.8 7.34667 20.19 7.35667 21.35Z" fill="white"/>
</mask>
<g mask="url(#mask0_1548_38788)">
<path d="M7.35667 21.3501L4.03667 19.4201C4.03667 19.3001 4.03667 19.1901 4.05667 19.0701L7.37667 21.0001C7.35667 21.1201 7.35667 21.2401 7.35667 21.3501Z" fill="#2B2B2B" stroke="#2B2B2B" stroke-width="0.4" stroke-linecap="round" stroke-linejoin="round"/>
<path d="M7.37667 20.9901L4.05667 19.0601C4.06667 18.9801 4.08667 18.8901 4.09667 18.8101L7.41667 20.7401C7.39667 20.8201 7.38667 20.9101 7.37667 20.9901Z" fill="#2B2B2B" stroke="#2B2B2B" stroke-width="0.4" stroke-linecap="round" stroke-linejoin="round"/>
<path d="M7.42667 20.7401L4.10667 18.8101C4.11667 18.7401 4.13667 18.6701 4.15667 18.6001L7.47667 20.5301C7.45667 20.6001 7.43667 20.6701 7.42667 20.7401Z" fill="#2B2B2B" stroke="#2B2B2B" stroke-width="0.4" stroke-linecap="round" stroke-linejoin="round"/>
<path d="M7.47666 20.5399L4.15666 18.6099C4.17666 18.5499 4.19666 18.4899 4.21666 18.4299L7.53666 20.3599C7.51666 20.4199 7.49666 20.4799 7.47666 20.5399Z" fill="#2B2B2B" stroke="#2B2B2B" stroke-width="0.4" stroke-linecap="round" stroke-linejoin="round"/>
<path d="M7.52667 20.35L4.20667 18.42C4.22667 18.36 4.24666 18.31 4.26666 18.25L7.58667 20.18C7.56667 20.24 7.54667 20.29 7.52667 20.35Z" fill="#2B2B2B" stroke="#2B2B2B" stroke-width="0.4" stroke-linecap="round" stroke-linejoin="round"/>
<path d="M7.59667 20.1801L4.27667 18.2501C4.29667 18.2001 4.31667 18.1401 4.34667 18.0901L7.66667 20.0201C7.64667 20.0701 7.61667 20.1301 7.59667 20.1801Z" fill="#2B2B2B" stroke="#2B2B2B" stroke-width="0.4" stroke-linecap="round" stroke-linejoin="round"/>
<path d="M7.65667 20.0199L4.33667 18.0899C4.35667 18.0399 4.38667 17.9799 4.40667 17.9299L7.72667 19.8599C7.69667 19.9099 7.67667 19.9599 7.65667 20.0199Z" fill="#2B2B2B" stroke="#2B2B2B" stroke-width="0.4" stroke-linecap="round" stroke-linejoin="round"/>
<path d="M7.72666 19.86L4.40666 17.93C4.42666 17.88 4.45666 17.83 4.48666 17.78L7.80666 19.71C7.77666 19.76 7.75666 19.81 7.72666 19.86Z" fill="#2B2B2B" stroke="#2B2B2B" stroke-width="0.4" stroke-linecap="round" stroke-linejoin="round"/>
<path d="M7.80666 19.7101L4.48666 17.7801C4.51666 17.7301 4.54666 17.6801 4.56666 17.6301L7.88666 19.5601C7.85666 19.6101 7.82666 19.6601 7.80666 19.7101Z" fill="#2B2B2B" stroke="#2B2B2B" stroke-width="0.4" stroke-linecap="round" stroke-linejoin="round"/>
<path d="M7.89666 19.56L4.57666 17.63C4.60666 17.58 4.63666 17.53 4.66666 17.48L7.98666 19.41C7.95666 19.46 7.92666 19.51 7.89666 19.56Z" fill="#2B2B2B" stroke="#2B2B2B" stroke-width="0.4" stroke-linecap="round" stroke-linejoin="round"/>
<path d="M7.98667 19.4001L4.66667 17.4701C4.69667 17.4201 4.73667 17.3601 4.76667 17.3101L8.08667 19.2401C8.04667 19.2901 8.01667 19.3401 7.98667 19.4001Z" fill="#2B2B2B" stroke="#2B2B2B" stroke-width="0.4" stroke-linecap="round" stroke-linejoin="round"/>
<path d="M8.08666 19.2502L4.76666 17.3202C4.80666 17.2602 4.84666 17.2102 4.88666 17.1602L8.20666 19.0902C8.16666 19.1402 8.12666 19.2002 8.08666 19.2502Z" fill="#2B2B2B" stroke="#2B2B2B" stroke-width="0.4" stroke-linecap="round" stroke-linejoin="round"/>
<path d="M8.21667 19.08L4.89667 17.15C4.94667 17.09 4.99667 17.03 5.04667 16.97L8.36667 18.9C8.31667 18.96 8.26667 19.02 8.21667 19.08Z" fill="#2B2B2B" stroke="#2B2B2B" stroke-width="0.4" stroke-linecap="round" stroke-linejoin="round"/>
<path d="M8.35667 18.9L5.03667 16.97C5.09667 16.9 5.16667 16.83 5.23667 16.76L8.55667 18.69C8.48667 18.76 8.42667 18.83 8.35667 18.9Z" fill="#2B2B2B" stroke="#2B2B2B" stroke-width="0.4" stroke-linecap="round" stroke-linejoin="round"/>
<path d="M8.55666 18.69L5.23666 16.76C5.42666 16.57 5.62666 16.41 5.83666 16.29L9.15666 18.22C8.94666 18.34 8.73666 18.5 8.55666 18.69Z" fill="#2B2B2B" stroke="#2B2B2B" stroke-width="0.4" stroke-linecap="round" stroke-linejoin="round"/>
</g>
<path d="M7.35667 21.35L4.03667 19.42C4.03667 18.27 4.84667 16.87 5.83667 16.29L9.15667 18.22C8.15667 18.8 7.34667 20.19 7.35667 21.35Z" stroke="#2B2B2B" stroke-width="0.4" stroke-linecap="round" stroke-linejoin="round"/>
<path d="M44.9267 20.54C44.7367 20.5 44.5367 20.48 44.3367 20.47C44.2967 20.47 44.2567 20.47 44.2167 20.47C44.0167 20.47 43.8167 20.47 43.6167 20.48C43.5967 20.48 43.5667 20.48 43.5467 20.48C43.3367 20.5 43.1167 20.53 42.8867 20.58C42.8667 20.58 42.8367 20.59 42.8167 20.6C42.5867 20.65 42.3567 20.72 42.1167 20.8C42.0967 20.8 42.0867 20.81 42.0667 20.82C41.8167 20.9 41.5667 21.01 41.3167 21.12C41.2967 21.12 41.2867 21.14 41.2667 21.14C41.0067 21.26 40.7467 21.39 40.4867 21.55L35.8167 18.83C35.8967 18.78 35.9867 18.73 36.0667 18.69C36.1767 18.63 36.2867 18.58 36.3867 18.52C36.4567 18.49 36.5267 18.45 36.5967 18.42C36.6167 18.42 36.6267 18.4 36.6467 18.4C36.6667 18.4 36.6867 18.38 36.7067 18.37C36.8167 18.32 36.9167 18.28 37.0267 18.24C37.1367 18.2 37.2367 18.16 37.3467 18.12C37.3667 18.12 37.3867 18.11 37.3967 18.1C37.4167 18.1 37.4267 18.09 37.4467 18.08C37.5167 18.06 37.5967 18.03 37.6667 18.01C37.7767 17.98 37.8867 17.95 37.9967 17.92C38.0467 17.91 38.0967 17.9 38.1467 17.89C38.1667 17.89 38.1967 17.88 38.2167 17.87C38.2467 17.87 38.2867 17.85 38.3167 17.85C38.4367 17.83 38.5467 17.81 38.6667 17.79C38.7367 17.79 38.8067 17.78 38.8767 17.77C38.8967 17.77 38.9267 17.77 38.9467 17.77C38.9667 17.77 38.9967 17.77 39.0167 17.77C39.1467 17.77 39.2667 17.76 39.3867 17.76C39.4367 17.76 39.4867 17.76 39.5467 17.76C39.5867 17.76 39.6267 17.76 39.6667 17.76C39.7067 17.76 39.7567 17.76 39.7967 17.76C39.9567 17.77 40.1067 17.8 40.2567 17.83C40.2867 17.83 40.3167 17.85 40.3567 17.86C40.5067 17.89 40.6567 17.93 40.8067 17.98C40.8167 17.98 40.8267 17.99 40.8367 18C41.0467 18.08 41.2467 18.17 41.4467 18.28L46.1167 20.99C45.9267 20.88 45.7167 20.79 45.5067 20.71C45.3467 20.65 45.1867 20.61 45.0267 20.57C44.9967 20.57 44.9667 20.55 44.9267 20.54Z" fill="#2B2B2B" stroke="#2B2B2B" stroke-width="0.4" stroke-linecap="round" stroke-linejoin="round"/>
<path d="M27.9267 32.1399C27.9267 32.0099 27.9267 31.8899 27.9467 31.7599C27.9467 31.6999 27.9467 31.6399 27.9567 31.5899C27.9567 31.5599 27.9567 31.5399 27.9567 31.5099C27.9567 31.4699 27.9567 31.4199 27.9667 31.3799C27.9767 31.2499 27.9967 31.1199 28.0067 30.9899C28.0267 30.8599 28.0467 30.7199 28.0667 30.5899C28.0667 30.5899 28.0667 30.5899 28.0667 30.5799C28.0667 30.5699 28.0667 30.5799 28.0667 30.5699C28.0867 30.4399 28.1067 30.3199 28.1367 30.1899C28.1667 30.0499 28.1867 29.9099 28.2167 29.7799C28.2267 29.7299 28.2367 29.6799 28.2467 29.6399C28.2467 29.6099 28.2567 29.5799 28.2667 29.5499C28.2767 29.4899 28.2967 29.4299 28.3067 29.3699C28.3367 29.2299 28.3767 29.0899 28.4167 28.9499C28.4467 28.8499 28.4767 28.7499 28.5067 28.6499C28.5067 28.6299 28.5167 28.6099 28.5267 28.5899C28.5367 28.5699 28.5367 28.5499 28.5467 28.5299C28.5867 28.3899 28.6367 28.2599 28.6767 28.1199C28.7167 27.9899 28.7667 27.8499 28.8167 27.7199C28.8167 27.6999 28.8367 27.6699 28.8467 27.6499C28.8467 27.6299 28.8567 27.6099 28.8667 27.5899C28.8967 27.4999 28.9267 27.4199 28.9667 27.3299C29.0167 27.1999 29.0667 27.0699 29.1167 26.9499C29.1567 26.8599 29.1967 26.7699 29.2367 26.6799C29.2367 26.6599 29.2467 26.6499 29.2567 26.6299C29.2567 26.6099 29.2767 26.5899 29.2767 26.5699C29.3367 26.4399 29.3967 26.3099 29.4467 26.1899C29.5167 26.0499 29.5767 25.9099 29.6467 25.7699C29.6567 25.7499 29.6667 25.7299 29.6767 25.7099C29.6867 25.6799 29.7067 25.6599 29.7167 25.6299C29.7767 25.5199 29.8267 25.4099 29.8867 25.2999C29.9567 25.1599 30.0367 25.0299 30.1167 24.8999C30.1567 24.8299 30.1967 24.7599 30.2367 24.6899C30.2567 24.6599 30.2667 24.6299 30.2867 24.6099C30.3567 24.4899 30.4267 24.3799 30.4967 24.2699C30.6067 24.0999 30.7067 23.9299 30.8167 23.7599C30.8367 23.7299 30.8467 23.6999 30.8667 23.6799C31.0167 23.4499 31.1767 23.2299 31.3367 23.0099C31.3367 22.9999 31.3567 22.9899 31.3567 22.9799C31.4667 22.8199 31.5867 22.6699 31.7067 22.5199C31.7967 22.3999 31.8967 22.2799 31.9967 22.1699C31.9967 22.1699 31.9967 22.1699 32.0067 22.1599C32.1067 22.0399 32.2067 21.9199 32.3167 21.7999C32.4167 21.6799 32.5167 21.5699 32.6267 21.4599C32.6467 21.4399 32.6567 21.4299 32.6767 21.4099C32.6967 21.3899 32.7067 21.3699 32.7267 21.3599C32.7967 21.2799 32.8767 21.1999 32.9467 21.1299C33.0567 21.0199 33.1667 20.9099 33.2767 20.7999C33.3067 20.7699 33.3467 20.7399 33.3767 20.7099C33.4067 20.6899 33.4267 20.6599 33.4567 20.6399C33.5167 20.5899 33.5667 20.5399 33.6267 20.4799C33.7467 20.3799 33.8567 20.2699 33.9767 20.1699C34.0267 20.1299 34.0767 20.0899 34.1267 20.0399C34.1567 20.0199 34.1767 19.9999 34.2067 19.9699C34.2467 19.9399 34.2867 19.8999 34.3267 19.8699C34.4367 19.7799 34.5567 19.6899 34.6767 19.6099C34.7567 19.5499 34.8467 19.4899 34.9267 19.4299C34.9467 19.4199 34.9567 19.4099 34.9767 19.3999C34.9967 19.3899 35.0067 19.3799 35.0267 19.3699C35.1367 19.2899 35.2467 19.2199 35.3667 19.1499C35.4767 19.0799 35.5867 19.0099 35.6967 18.9499C35.7267 18.9299 35.7467 18.9199 35.7767 18.8999L40.4467 21.6199C40.1767 21.7699 39.9167 21.9399 39.6567 22.1199C39.6467 22.1299 39.6267 22.1399 39.6167 22.1499C39.3767 22.3199 39.1367 22.4999 38.8967 22.6899C38.8667 22.7099 38.8467 22.7299 38.8167 22.7599C38.5867 22.9499 38.3667 23.1399 38.1467 23.3499C38.1167 23.3699 38.0967 23.3999 38.0667 23.4199C37.8467 23.6299 37.6267 23.8499 37.4067 24.0799C37.3867 24.0999 37.3767 24.1199 37.3567 24.1299C37.1267 24.3699 36.9067 24.6299 36.6867 24.8899C36.6867 24.8899 36.6867 24.8899 36.6767 24.8999C36.4567 25.1699 36.2467 25.4399 36.0367 25.7199C36.0367 25.7299 36.0167 25.7399 36.0167 25.7499C35.8367 25.9999 35.6567 26.2499 35.4867 26.5099C35.3767 26.6799 35.2667 26.8499 35.1667 27.0199C35.0767 27.1599 34.9867 27.2999 34.9067 27.4499C34.8667 27.5199 34.8267 27.5899 34.7867 27.6599C34.6467 27.8999 34.5167 28.1499 34.3867 28.3999C34.3767 28.4299 34.3567 28.4499 34.3467 28.4799C34.1967 28.7799 34.0467 29.0899 33.9167 29.3999C33.9167 29.4199 33.9067 29.4299 33.8967 29.4499C33.7667 29.7499 33.6467 30.0599 33.5267 30.3599C33.5267 30.3799 33.5167 30.3999 33.5067 30.4199C33.3867 30.7299 33.2867 31.0499 33.1867 31.3599C33.1867 31.3799 33.1767 31.3999 33.1667 31.4199C33.0767 31.7199 32.9967 32.0299 32.9267 32.3299C32.9267 32.3599 32.9167 32.3899 32.9067 32.4099C32.8367 32.7199 32.7767 33.0399 32.7267 33.3499C32.7267 33.3499 32.7267 33.3499 32.7267 33.3599C32.6767 33.6699 32.6367 33.9799 32.6167 34.2899V34.3699C32.5867 34.6799 32.5767 34.9799 32.5767 35.2899C32.5767 35.5899 32.5967 35.8799 32.6167 36.1599C32.6167 36.1799 32.6167 36.2099 32.6167 36.2299C32.6467 36.4899 32.6767 36.7299 32.7267 36.9699C32.7267 36.9999 32.7367 37.0299 32.7467 37.0599C32.7967 37.2899 32.8467 37.5099 32.9167 37.7199C32.9267 37.7599 32.9467 37.7999 32.9567 37.8399C33.0267 38.0399 33.0967 38.2299 33.1767 38.4099C33.1767 38.4299 33.1967 38.4499 33.1967 38.4699C33.2967 38.6699 33.3967 38.8599 33.5167 39.0399C33.6767 39.2899 33.8667 39.5099 34.0667 39.7199C34.1167 39.7699 34.1667 39.8199 34.2167 39.8599C34.4267 40.0499 34.6467 40.2299 34.8867 40.3699L30.2167 37.6499C29.9767 37.5099 29.7567 37.3299 29.5467 37.1399C29.4967 37.0899 29.4467 37.0499 29.3967 36.9999C29.1967 36.7999 29.0067 36.5799 28.8467 36.3199C28.8467 36.3199 28.8467 36.3199 28.8467 36.3099C28.7367 36.1399 28.6367 35.9599 28.5467 35.7699C28.5467 35.7699 28.5467 35.7599 28.5467 35.7499C28.5467 35.7299 28.5267 35.7099 28.5267 35.6899C28.4667 35.5699 28.4167 35.4499 28.3667 35.3199C28.3467 35.2599 28.3267 35.1899 28.3067 35.1299C28.2967 35.0899 28.2767 35.0499 28.2667 35.0099C28.2567 34.9699 28.2467 34.9399 28.2367 34.8999C28.1967 34.7699 28.1667 34.6299 28.1267 34.4999C28.1167 34.4499 28.1067 34.3999 28.0967 34.3499C28.0967 34.3199 28.0867 34.2899 28.0767 34.2599C28.0767 34.2099 28.0567 34.1599 28.0467 34.1099C28.0267 33.9899 28.0067 33.8599 27.9867 33.7299C27.9867 33.6599 27.9767 33.5899 27.9667 33.5199C27.9667 33.4899 27.9667 33.4699 27.9667 33.4399C27.9667 33.4099 27.9667 33.3799 27.9667 33.3499C27.9567 33.2299 27.9467 33.0999 27.9467 32.9799C27.9467 32.8499 27.9467 32.7299 27.9467 32.5999V32.5799C27.9467 32.4599 27.9467 32.3399 27.9467 32.2199L27.9267 32.1399Z" fill="#F9E3B3" stroke="#2B2B2B" stroke-width="0.4" stroke-linecap="round" stroke-linejoin="round"/>
<path d="M40.4767 21.5401C36.1067 24.0601 32.5767 30.1801 32.5867 35.2101C32.5967 40.2301 36.1567 42.2601 40.5267 39.7301C44.9067 37.2001 48.4267 31.0901 48.4167 26.0701C48.4067 21.0401 44.8567 19.0101 40.4767 21.5401Z" fill="white" stroke="#2B2B2B" stroke-width="0.4" stroke-linecap="round" stroke-linejoin="round"/>
<mask id="mask1_1548_38788" style="mask-type:luminance" maskUnits="userSpaceOnUse" x="32" y="20" width="17" height="21">
<path d="M40.4767 21.5401C36.1067 24.0601 32.5767 30.1801 32.5867 35.2101C32.5967 40.2301 36.1567 42.2601 40.5267 39.7301C44.9067 37.2001 48.4267 31.0901 48.4167 26.0701C48.4067 21.0401 44.8567 19.0101 40.4767 21.5401Z" fill="white"/>
</mask>
<g mask="url(#mask1_1548_38788)">
<path d="M38.6467 40.6001L38.2167 40.7001C36.7467 41.0301 35.4467 40.8001 34.4467 40.0301L34.2767 39.8901L34.2267 39.8401L34.7967 39.1501C34.7967 39.1501 35.9367 37.9501 36.5367 37.4201L36.6767 37.3001L36.7067 37.4401C36.9967 38.6801 37.5767 39.7001 38.3667 40.3701L38.6467 40.6101M42.3467 38.4401L42.6267 37.8801C43.4167 36.3001 43.9767 34.6401 44.2567 33.0701L44.2867 32.8901L44.4267 32.8501C45.1967 32.6401 45.9267 32.5501 46.6267 32.5901H46.7667L46.6667 32.8101C45.6567 34.8201 44.3167 36.6301 42.7867 38.0401L42.3667 38.4301M40.2467 39.8801L40.0767 39.9301C38.9367 40.2501 37.8867 39.1301 37.2767 36.9601V36.9401V36.7901L37.3867 36.7001C38.2767 35.9801 39.1867 35.3401 40.0967 34.7901L40.2367 34.7001V39.8801M40.8067 39.5601V34.3801L40.9267 34.3001C41.8367 33.8001 42.7467 33.3901 43.6467 33.0701L43.7867 33.0201L43.7467 33.2101C43.1567 36.0801 42.1167 38.3901 40.9667 39.4101L40.7967 39.5601M47.1067 31.9101H46.9967C46.2367 31.8401 45.4167 31.9301 44.5667 32.1701L44.4367 32.2101L44.4667 32.0501C44.6467 30.8801 44.7467 29.7201 44.7567 28.6201V28.4901L48.4367 26.3601V26.5301C48.3667 28.1701 47.9367 29.9801 47.1767 31.7601L47.1067 31.9301M37.1067 36.2701L37.0767 36.1301C36.8967 35.2201 36.7967 34.2401 36.7767 33.2301V33.0701L40.2067 31.0901V33.9301V34.0901C39.2567 34.6601 38.1667 35.4101 37.2267 36.1701L37.0967 36.2801M43.8767 32.3801L43.7367 32.4301C42.7967 32.7501 41.8467 33.1801 40.8867 33.7001L40.7567 33.7701V30.7801L44.1867 28.8001V28.9601C44.1667 30.0001 44.0767 31.1001 43.9067 32.2101L43.8767 32.3801ZM33.9067 39.5201L33.8367 39.4401C33.0767 38.5401 32.6267 37.2301 32.5567 35.6701V35.5101L36.2167 33.4001V33.5501C36.2367 34.6201 36.3467 35.6501 36.5367 36.6101L36.5567 36.7401L36.4367 36.8501C35.5967 37.5901 34.7867 38.4401 34.0367 39.3801L33.9267 39.5201M36.7767 32.4401V32.2801C36.7967 31.2401 36.8867 30.1601 37.0667 29.0501L37.0967 28.8801L37.2367 28.8301C38.1767 28.5001 39.2667 28.0001 40.2167 27.4701V27.6301V30.4601L36.7767 32.4401ZM40.7667 30.1301V27.1401L40.8967 27.0601C41.8467 26.4901 42.8067 25.8101 43.7367 25.0601L43.8767 24.9501L43.9067 25.0901C44.0867 26.0001 44.1867 26.9701 44.2067 27.9901V28.1501L40.7767 30.1301M48.4467 25.7401L44.7667 27.8501V27.7001C44.7367 26.6301 44.6367 25.6001 44.4467 24.6501L44.4167 24.5201L44.5467 24.4101C45.3967 23.6601 46.2167 22.8101 46.9767 21.8701L47.0867 21.7301L47.1567 21.8101C47.9167 22.7201 48.3567 24.0201 48.4367 25.5801V25.7401M32.5467 34.8801V34.7101C32.6167 33.0701 33.0467 31.2601 33.8067 29.4801L33.8767 29.3201H33.9867C34.7567 29.3801 35.5767 29.3001 36.4167 29.0601L36.5367 29.0301L36.5167 29.1901C36.3367 30.3601 36.2367 31.5101 36.2167 32.6101V32.7701L32.5367 34.8901M44.2767 23.9701L44.2467 23.8301C43.9567 22.5801 43.3867 21.5701 42.5867 20.9001L42.3067 20.6701L42.7267 20.5701C44.2667 20.2001 45.6267 20.4501 46.6467 21.2901L46.6767 21.3201V21.4901L46.6067 21.5801C45.9167 22.4201 45.1767 23.1901 44.4167 23.8601L44.2767 23.9801M36.6567 28.3801L36.5167 28.4201C35.7467 28.6301 35.0167 28.7201 34.3167 28.6801H34.1767L34.2767 28.4701C35.2867 26.4401 37.1267 23.9701 38.6667 22.5401C37.8767 24.1301 36.9567 26.6401 36.6767 28.2101L36.6467 28.3901M40.1767 26.8501C39.2667 27.3601 38.2067 27.8501 37.3167 28.1601L37.1767 28.2101L37.2167 28.0301C37.8067 25.1601 38.8467 22.8401 39.9967 21.8301L40.1667 21.6801V26.6401L40.1767 26.8601M40.7367 26.5401V21.3601L40.8967 21.3201C42.0467 21.0101 43.0867 22.1301 43.6967 24.3001L43.7367 24.4401L43.5967 24.5601C42.7067 25.2801 41.7967 25.9201 40.8767 26.4701L40.7367 26.5501M40.4467 20.8701C38.1667 22.1801 36.0367 24.4401 34.4367 27.2101C32.8367 29.9901 31.9567 32.9601 31.9567 35.5701C31.9567 38.1801 32.8567 40.1301 34.4767 41.0501C36.0867 41.9701 38.2267 41.7501 40.5067 40.4401C42.7867 39.1301 44.9167 36.8701 46.5167 34.1001C48.1167 31.3201 48.9967 28.3501 48.9867 25.7401C48.9867 23.1301 48.0867 21.1801 46.4667 20.2601C44.8567 19.3401 42.7167 19.5601 40.4367 20.8701" fill="#2B2B2B"/>
</g>
<path d="M31.2267 13.95L24.3767 25.13L20.9667 23.48C20.7867 23.39 20.5567 23.43 20.3267 23.56C20.1267 23.68 19.9167 23.87 19.7567 24.12L12.6267 34.57C12.2167 35.17 12.1467 35.89 12.4667 36.18C12.6567 36.35 12.9367 36.33 13.2167 36.18C13.4167 36.06 13.6167 35.88 13.7867 35.63L20.2867 26.1L23.7567 27.77C23.9367 27.86 24.1667 27.82 24.3967 27.69C24.6267 27.56 24.8467 27.33 25.0267 27.04L32.5067 14.82L32.5667 13.9C32.5867 13.51 32.3367 13.34 32.0067 13.52L31.2267 13.96M33.7167 11.64C33.7567 11.71 33.7767 11.81 33.7667 11.92L33.7067 12.79C33.8967 12.33 33.9067 11.88 33.7067 11.63M32.9067 11.57C32.7567 11.66 32.5967 11.79 32.4667 11.96L33.1967 11.54C33.2967 11.48 33.3967 11.46 33.4767 11.47C33.3067 11.42 33.1067 11.46 32.9067 11.58" fill="#EDBD66"/>
<path d="M27.6567 14.69C27.3467 14.87 27.0967 15.3 27.0967 15.65C27.0967 16.01 27.3367 16.16 27.6467 15.99L31.2267 13.95L32.0067 13.51C32.3267 13.33 32.5867 13.51 32.5667 13.89L32.5067 14.81L32.2267 19.07C32.1967 19.44 32.4267 19.62 32.7467 19.47C32.7667 19.47 32.7767 19.45 32.7967 19.44C33.0767 19.28 33.3267 18.88 33.3467 18.53L33.7267 12.78L33.7867 11.91C33.7867 11.8 33.7767 11.7 33.7367 11.63C33.6867 11.54 33.6067 11.48 33.5067 11.47C33.4267 11.47 33.3267 11.48 33.2267 11.54L32.4967 11.96L27.6767 14.7" fill="#EDBD66"/>
</g>
</g>
<defs>
<clipPath id="clip0_1548_38788">
<rect width="48" height="48" fill="white" transform="translate(0.666672)"/>
</clipPath>
<clipPath id="clip1_1548_38788">
<rect width="48" height="48" fill="white" transform="translate(0.666672)"/>
</clipPath>
</defs>
</svg>
