<svg width="48" height="48" viewBox="0 0 48 48" fill="none" xmlns="http://www.w3.org/2000/svg">
<path d="M6.57998 46.2601L6.50998 21.5201L3.22998 19.6201L3.29998 44.3601C3.29998 44.9201 3.49998 45.3201 3.81998 45.5101L7.09998 47.4101C6.77998 47.2201 6.57998 46.8301 6.57998 46.2601Z" fill="#7F7FFA" stroke="#2B2B2B" stroke-width="0.4" stroke-linecap="round" stroke-linejoin="round"/>
<path d="M36.05 2.45001C36.15 2.42001 36.25 2.40001 36.34 2.39001C36.34 2.39001 36.36 2.39001 36.37 2.39001C36.47 2.39001 36.57 2.39001 36.66 2.40001C36.66 2.40001 36.66 2.40001 36.67 2.40001C36.76 2.42001 36.85 2.45001 36.93 2.50001L33.65 0.60001C33.62 0.58001 33.59 0.57001 33.56 0.56001C33.53 0.55001 33.5 0.54001 33.47 0.53001C33.45 0.53001 33.43 0.52001 33.41 0.52001C33.41 0.52001 33.41 0.52001 33.4 0.52001C33.4 0.52001 33.39 0.52001 33.38 0.52001C33.34 0.52001 33.31 0.51001 33.27 0.51001C33.23 0.51001 33.19 0.51001 33.15 0.51001C33.14 0.51001 33.12 0.51001 33.11 0.51001C33.11 0.51001 33.09 0.51001 33.08 0.51001C33.06 0.51001 33.04 0.51001 33.01 0.51001C32.96 0.51001 32.91 0.53001 32.85 0.54001C32.83 0.54001 32.8 0.56001 32.78 0.56001C32.76 0.56001 32.74 0.57001 32.72 0.58001C32.69 0.58001 32.67 0.60001 32.64 0.61001C32.56 0.64001 32.47 0.69001 32.39 0.74001L5.01996 16.52L8.29996 18.42L35.66 2.63001C35.77 2.56001 35.88 2.52001 35.99 2.48001C36.01 2.48001 36.03 2.46001 36.05 2.46001V2.45001Z" fill="white" stroke="#2B2B2B" stroke-width="0.4" stroke-linecap="round" stroke-linejoin="round"/>
<path d="M35.66 2.63007C36.65 2.06007 37.45 2.52007 37.45 3.65007L37.52 28.3901C37.52 29.5201 36.73 30.9001 35.74 31.4801L8.37996 47.2801C7.38996 47.8501 6.58996 47.3901 6.58996 46.2601L6.51996 21.5201C6.51996 20.3801 7.31996 19.0001 8.29996 18.4301L35.66 2.63007Z" fill="white" stroke="#2B2B2B" stroke-width="0.4" stroke-linecap="round" stroke-linejoin="round"/>
<path d="M12.86 31.51L6.63995 35.11" stroke="#2B2B2B" stroke-width="0.4" stroke-linecap="round" stroke-linejoin="round"/>
<path d="M37.35 26.1799L29.32 30.8099" stroke="#2B2B2B" stroke-width="0.4" stroke-linecap="round" stroke-linejoin="round"/>
<path d="M15.93 22.03L6.63995 27.4" stroke="#2B2B2B" stroke-width="0.4" stroke-linecap="round" stroke-linejoin="round"/>
<path d="M37.38 16.5801L32.67 19.3001" stroke="#2B2B2B" stroke-width="0.4" stroke-linecap="round" stroke-linejoin="round"/>
<path d="M14.4 29.6201C14.5 29.5901 14.6 29.5601 14.7 29.5601C14.7 29.5601 14.72 29.5601 14.73 29.5601C14.83 29.5601 14.93 29.5601 15.02 29.5701C15.02 29.5701 15.02 29.5701 15.03 29.5701C15.12 29.5901 15.21 29.6201 15.29 29.6701L14.03 28.9401C14 28.9201 13.97 28.9101 13.94 28.9001C13.91 28.8901 13.88 28.8801 13.84 28.8701C13.82 28.8701 13.8 28.8601 13.78 28.8601C13.78 28.8601 13.78 28.8601 13.77 28.8601C13.77 28.8601 13.76 28.8601 13.75 28.8601C13.71 28.8601 13.68 28.8501 13.64 28.8501C13.6 28.8501 13.56 28.8501 13.52 28.8501C13.51 28.8501 13.49 28.8501 13.48 28.8501C13.48 28.8501 13.46 28.8501 13.45 28.8501C13.43 28.8501 13.4 28.8501 13.38 28.8501C13.33 28.8501 13.27 28.8701 13.22 28.8801C13.2 28.8801 13.17 28.9001 13.15 28.9001C13.13 28.9001 13.11 28.9101 13.09 28.9201C13.06 28.9201 13.04 28.9401 13.01 28.9501C12.93 28.9801 12.84 29.0301 12.76 29.0801L14.02 29.8101C14.13 29.7401 14.25 29.7001 14.35 29.6601C14.37 29.6601 14.39 29.6401 14.41 29.6401L14.4 29.6201Z" fill="#2B2B2B" stroke="#2B2B2B" stroke-width="0.4" stroke-linecap="round" stroke-linejoin="round"/>
<path d="M12.18 32.9301C12.18 32.7901 12.19 32.6501 12.21 32.5101C12.21 32.4901 12.21 32.4701 12.22 32.4401C12.24 32.3101 12.27 32.1801 12.31 32.0401C12.31 32.0301 12.31 32.0201 12.32 32.0001C12.36 31.8601 12.42 31.7101 12.48 31.5701C12.54 31.4301 12.62 31.2801 12.7 31.1501C12.7 31.1501 12.7 31.1501 12.7 31.1401C12.78 31.0101 12.86 30.8801 12.95 30.7501C12.95 30.7401 12.97 30.7301 12.98 30.7201C13.06 30.6101 13.15 30.5001 13.25 30.4001C13.27 30.3801 13.29 30.3601 13.31 30.3401C13.38 30.2601 13.46 30.1901 13.54 30.1301C13.58 30.1001 13.61 30.0701 13.65 30.0401C13.76 29.9501 13.88 29.8701 13.99 29.8001L12.73 29.0601C12.61 29.1301 12.5 29.2101 12.39 29.3001C12.35 29.3301 12.32 29.3601 12.28 29.3901C12.23 29.4401 12.17 29.4801 12.12 29.5301C12.1 29.5501 12.07 29.5801 12.05 29.6001C12.03 29.6201 12.01 29.6401 11.99 29.6601C11.97 29.6901 11.94 29.7101 11.92 29.7301C11.87 29.7901 11.82 29.8501 11.77 29.9101C11.75 29.9301 11.74 29.9501 11.72 29.9801C11.72 29.9901 11.7 30.0001 11.7 30.0101C11.68 30.0301 11.67 30.0501 11.65 30.0701C11.61 30.1201 11.58 30.1701 11.54 30.2301C11.51 30.2801 11.48 30.3301 11.45 30.3801C11.45 30.3801 11.45 30.3801 11.45 30.3901C11.45 30.3901 11.45 30.3901 11.45 30.4001C11.43 30.4401 11.4 30.4801 11.38 30.5301C11.35 30.5801 11.33 30.6301 11.3 30.6801C11.28 30.7301 11.26 30.7701 11.23 30.8201C11.21 30.8701 11.18 30.9301 11.16 30.9801C11.14 31.0401 11.12 31.0901 11.1 31.1501C11.1 31.1801 11.08 31.2101 11.07 31.2401C11.07 31.2501 11.07 31.2601 11.06 31.2801C11.06 31.3001 11.05 31.3201 11.04 31.3401C11.02 31.4101 11 31.4801 10.99 31.5501C10.99 31.5901 10.98 31.6301 10.97 31.6801C10.97 31.7001 10.97 31.7201 10.96 31.7501C10.96 31.7701 10.96 31.7901 10.95 31.8101C10.93 31.9301 10.93 32.0501 10.93 32.1701C10.93 32.7401 11.13 33.1501 11.46 33.3401L12.72 34.0801C12.39 33.8901 12.19 33.4901 12.19 32.9101L12.18 32.9301Z" fill="white" stroke="#2B2B2B" stroke-width="0.4" stroke-linecap="round" stroke-linejoin="round"/>
<path d="M14 29.7902C15 29.2102 15.82 29.6802 15.82 30.8302C15.82 31.9802 15.01 33.3902 14.01 33.9602C13.01 34.5302 12.19 34.0702 12.19 32.9202C12.19 31.7702 13 30.3602 14 29.7802V29.7902Z" fill="#D9D9FD" stroke="#2B2B2B" stroke-width="0.4" stroke-linecap="round" stroke-linejoin="round"/>
<path d="M29.34 28.2201C29.31 28.2001 29.28 28.1901 29.25 28.1801C29.22 28.1701 29.19 28.1601 29.15 28.1501C29.13 28.1501 29.11 28.1401 29.09 28.1401C29.09 28.1401 29.09 28.1401 29.08 28.1401C29.08 28.1401 29.07 28.1401 29.06 28.1401C29.02 28.1401 28.99 28.1301 28.95 28.1301C28.91 28.1301 28.87 28.1301 28.83 28.1301C28.82 28.1301 28.8 28.1301 28.79 28.1301C28.79 28.1301 28.77 28.1301 28.76 28.1301C28.74 28.1301 28.71 28.1301 28.69 28.1301C28.64 28.1301 28.58 28.1501 28.53 28.1601C28.51 28.1601 28.48 28.1801 28.46 28.1801C28.44 28.1801 28.42 28.1901 28.4 28.2001C28.37 28.2001 28.35 28.2201 28.32 28.2301C28.24 28.2601 28.15 28.3101 28.07 28.3601L29.33 29.0901C29.44 29.0201 29.56 28.9801 29.66 28.9401C29.68 28.9401 29.7 28.9201 29.72 28.9201C29.82 28.8901 29.92 28.8601 30.02 28.8601C30.02 28.8601 30.04 28.8601 30.05 28.8601C30.15 28.8601 30.25 28.8601 30.34 28.8701C30.34 28.8701 30.34 28.8701 30.35 28.8701C30.44 28.8901 30.53 28.9201 30.61 28.9701L29.35 28.2401L29.34 28.2201Z" fill="#2B2B2B" stroke="#2B2B2B" stroke-width="0.4" stroke-linecap="round" stroke-linejoin="round"/>
<path d="M27.5 32.2201C27.5 32.0801 27.51 31.9401 27.53 31.8001C27.53 31.7801 27.53 31.7601 27.54 31.7301C27.56 31.6001 27.59 31.4701 27.63 31.3301C27.63 31.3201 27.63 31.3101 27.64 31.2901C27.68 31.1501 27.74 31.0001 27.8 30.8601C27.86 30.7201 27.94 30.5701 28.01 30.4401C28.01 30.4401 28.01 30.4401 28.01 30.4301C28.09 30.3001 28.17 30.1701 28.26 30.0401C28.26 30.0301 28.28 30.0201 28.29 30.0101C28.37 29.9001 28.46 29.7901 28.56 29.6901C28.58 29.6701 28.6 29.6501 28.62 29.6301C28.69 29.5501 28.77 29.4801 28.85 29.4201C28.89 29.3901 28.92 29.3601 28.95 29.3301C29.06 29.2401 29.17 29.1601 29.29 29.0901L28.03 28.3601C27.91 28.4301 27.8 28.5101 27.69 28.6001C27.65 28.6301 27.62 28.6601 27.59 28.6901C27.54 28.7401 27.48 28.7801 27.43 28.8301C27.41 28.8501 27.38 28.8801 27.36 28.9001C27.34 28.9201 27.32 28.9401 27.3 28.9601C27.28 28.9901 27.25 29.0101 27.23 29.0301C27.18 29.0901 27.13 29.1501 27.08 29.2101C27.06 29.2301 27.05 29.2501 27.03 29.2801C27.03 29.2901 27.01 29.3001 27.01 29.3101C26.99 29.3301 26.98 29.3501 26.96 29.3701C26.92 29.4201 26.89 29.4701 26.85 29.5301C26.82 29.5801 26.79 29.6301 26.76 29.6801C26.76 29.6801 26.76 29.6801 26.76 29.6901C26.76 29.6901 26.76 29.6901 26.76 29.7001C26.74 29.7401 26.71 29.7901 26.69 29.8301C26.66 29.8801 26.64 29.9301 26.61 29.9801C26.59 30.0301 26.57 30.0701 26.54 30.1201C26.52 30.1701 26.49 30.2301 26.47 30.2801C26.45 30.3401 26.43 30.3901 26.41 30.4501C26.41 30.4801 26.39 30.5101 26.38 30.5401C26.38 30.5501 26.38 30.5601 26.37 30.5801C26.37 30.6001 26.36 30.6201 26.35 30.6401C26.33 30.7101 26.31 30.7801 26.3 30.8501C26.3 30.8901 26.29 30.9301 26.28 30.9801C26.28 31.0001 26.28 31.0201 26.27 31.0501C26.27 31.0701 26.27 31.0901 26.26 31.1101C26.24 31.2301 26.24 31.3501 26.24 31.4701C26.24 31.7601 26.29 32.0001 26.38 32.2001C26.47 32.4001 26.6 32.5401 26.77 32.6401L28.03 33.3701C27.7 33.1801 27.5 32.7801 27.5 32.2101V32.2201Z" fill="white" stroke="#2B2B2B" stroke-width="0.4" stroke-linecap="round" stroke-linejoin="round"/>
<path d="M29.31 29.08C30.31 28.5 31.13 28.97 31.13 30.12C31.13 31.27 30.32 32.68 29.32 33.25C28.32 33.82 27.5 33.36 27.5 32.21C27.5 31.06 28.31 29.65 29.31 29.07V29.08Z" fill="#7F7FFA" stroke="#2B2B2B" stroke-width="0.4" stroke-linecap="round" stroke-linejoin="round"/>
<path d="M16.9599 20.5C17.0599 20.47 17.1599 20.44 17.2599 20.44C17.2599 20.44 17.2799 20.44 17.2899 20.44C17.3899 20.44 17.4899 20.44 17.5799 20.45C17.5799 20.45 17.5799 20.45 17.5899 20.45C17.6799 20.47 17.7699 20.5 17.8499 20.55L16.5899 19.82C16.5599 19.8 16.5299 19.79 16.4999 19.78C16.4699 19.77 16.4399 19.76 16.3999 19.75C16.3799 19.75 16.3599 19.74 16.3399 19.74C16.3399 19.74 16.3399 19.74 16.3299 19.74C16.3299 19.74 16.3199 19.74 16.3099 19.74C16.2699 19.74 16.2399 19.73 16.1999 19.73C16.1599 19.73 16.1199 19.73 16.0799 19.73C16.0699 19.73 16.0499 19.73 16.0399 19.73C16.0399 19.73 16.0199 19.73 16.0099 19.73C15.9899 19.73 15.9599 19.73 15.9399 19.73C15.8899 19.73 15.8299 19.75 15.7799 19.76C15.7599 19.76 15.7299 19.78 15.7099 19.78C15.6899 19.78 15.6699 19.79 15.6499 19.8C15.6199 19.8 15.5999 19.82 15.5699 19.83C15.4899 19.86 15.3999 19.91 15.3199 19.96L16.5799 20.69C16.6899 20.62 16.8099 20.58 16.9099 20.54C16.9299 20.54 16.9499 20.52 16.9699 20.52L16.9599 20.5Z" fill="#2B2B2B" stroke="#2B2B2B" stroke-width="0.4" stroke-linecap="round" stroke-linejoin="round"/>
<path d="M14.75 23.8099C14.75 23.6699 14.76 23.5299 14.78 23.3899C14.78 23.3699 14.78 23.35 14.79 23.32C14.81 23.1899 14.84 23.06 14.88 22.92C14.88 22.91 14.88 22.8999 14.89 22.8799C14.93 22.7399 14.99 22.59 15.05 22.45C15.11 22.31 15.19 22.16 15.26 22.03C15.26 22.03 15.26 22.03 15.26 22.02C15.34 21.89 15.42 21.7599 15.51 21.6299C15.51 21.6199 15.53 21.61 15.53 21.6C15.61 21.49 15.7 21.38 15.8 21.28C15.82 21.26 15.84 21.2399 15.86 21.2199C15.93 21.1399 16.01 21.07 16.09 21.01C16.13 20.98 16.16 20.95 16.19 20.92C16.3 20.83 16.41 20.75 16.53 20.68L15.27 19.95C15.15 20.02 15.04 20.1 14.93 20.19C14.89 20.22 14.86 20.25 14.82 20.28C14.77 20.33 14.71 20.37 14.66 20.42C14.64 20.44 14.61 20.47 14.59 20.49C14.57 20.51 14.55 20.5299 14.53 20.5499C14.51 20.5799 14.48 20.6 14.46 20.62C14.41 20.68 14.36 20.7399 14.31 20.7999C14.29 20.8199 14.28 20.84 14.26 20.87C14.26 20.88 14.24 20.89 14.23 20.9C14.21 20.92 14.2 20.9399 14.18 20.9599C14.14 21.0099 14.11 21.06 14.07 21.12C14.04 21.17 14.01 21.22 13.98 21.27C13.98 21.27 13.98 21.27 13.98 21.28C13.98 21.28 13.98 21.28 13.98 21.29C13.96 21.33 13.93 21.37 13.91 21.42C13.88 21.47 13.86 21.52 13.83 21.57C13.81 21.62 13.79 21.6599 13.76 21.7099C13.74 21.7599 13.71 21.82 13.69 21.87C13.67 21.93 13.65 21.98 13.63 22.04C13.63 22.07 13.61 22.0999 13.6 22.1299C13.6 22.1399 13.6 22.15 13.59 22.17C13.59 22.19 13.58 22.2099 13.57 22.2299C13.55 22.2999 13.53 22.37 13.52 22.44C13.52 22.48 13.51 22.52 13.5 22.57C13.5 22.59 13.5 22.6099 13.49 22.6399C13.49 22.6599 13.49 22.68 13.48 22.7C13.46 22.82 13.46 22.9399 13.46 23.0599C13.46 23.6299 13.66 24.0399 13.99 24.2199L15.25 24.95C14.92 24.76 14.72 24.36 14.72 23.79L14.75 23.8099Z" fill="white" stroke="#2B2B2B" stroke-width="0.4" stroke-linecap="round" stroke-linejoin="round"/>
<path d="M16.5599 20.6701C17.5599 20.0901 18.3799 20.5601 18.3799 21.7101C18.3799 22.8601 17.5699 24.2701 16.5699 24.8401C15.5699 25.4101 14.7499 24.9501 14.7499 23.8001C14.7499 22.6501 15.5599 21.2401 16.5599 20.6601V20.6701Z" fill="#7F7FFA" stroke="#2B2B2B" stroke-width="0.4" stroke-linecap="round" stroke-linejoin="round"/>
<path d="M33.76 17.4599C33.86 17.4299 33.96 17.3999 34.06 17.3999C34.06 17.3999 34.08 17.3999 34.09 17.3999C34.19 17.3999 34.29 17.3999 34.38 17.4099C34.38 17.4099 34.38 17.4099 34.39 17.4099C34.48 17.4299 34.57 17.4599 34.65 17.5099L33.39 16.7799C33.36 16.7599 33.33 16.7499 33.3 16.7399C33.27 16.7299 33.24 16.7199 33.2 16.7099C33.18 16.7099 33.16 16.6999 33.14 16.6999C33.14 16.6999 33.14 16.6999 33.13 16.6999C33.13 16.6999 33.12 16.6999 33.11 16.6999C33.07 16.6999 33.04 16.6899 33 16.6899C32.96 16.6899 32.92 16.6899 32.88 16.6899C32.87 16.6899 32.85 16.6899 32.84 16.6899C32.84 16.6899 32.82 16.6899 32.81 16.6899C32.79 16.6899 32.76 16.6899 32.74 16.6899C32.69 16.6899 32.63 16.7099 32.58 16.7199C32.56 16.7199 32.53 16.7399 32.51 16.7399C32.49 16.7399 32.47 16.7499 32.45 16.7599C32.42 16.7599 32.4 16.7799 32.37 16.7899C32.29 16.8199 32.2 16.8699 32.12 16.9199L33.38 17.6499C33.49 17.5799 33.61 17.5399 33.71 17.4999C33.73 17.4999 33.75 17.4799 33.77 17.4799L33.76 17.4599Z" fill="#2B2B2B" stroke="#2B2B2B" stroke-width="0.4" stroke-linecap="round" stroke-linejoin="round"/>
<path d="M31.55 20.7699C31.55 20.6299 31.56 20.4899 31.58 20.3499C31.58 20.3299 31.58 20.3099 31.59 20.2799C31.61 20.1499 31.64 20.0199 31.68 19.8799C31.68 19.8699 31.68 19.8599 31.69 19.8399C31.73 19.6999 31.79 19.5499 31.85 19.4099C31.91 19.2699 31.99 19.1199 32.06 18.9899C32.06 18.9899 32.06 18.9899 32.06 18.9799C32.14 18.8499 32.22 18.7199 32.31 18.5899C32.31 18.5799 32.33 18.5699 32.33 18.5599C32.41 18.4499 32.5 18.3399 32.6 18.2399C32.62 18.2199 32.64 18.1999 32.66 18.1799C32.73 18.0999 32.81 18.0299 32.89 17.9699C32.93 17.9399 32.96 17.9099 32.99 17.8799C33.1 17.7899 33.21 17.7099 33.33 17.6399L32.07 16.9099C31.95 16.9799 31.84 17.0599 31.73 17.1499C31.69 17.1799 31.66 17.2099 31.62 17.2399C31.57 17.2899 31.51 17.3299 31.46 17.3799C31.44 17.3999 31.41 17.4299 31.39 17.4499C31.37 17.4699 31.35 17.4899 31.33 17.5099C31.31 17.5399 31.28 17.5599 31.26 17.5799C31.21 17.6399 31.16 17.6999 31.11 17.7599C31.09 17.7799 31.08 17.7999 31.06 17.8299C31.06 17.8399 31.04 17.8499 31.03 17.8599C31.01 17.8799 31 17.8999 30.98 17.9199C30.94 17.9699 30.91 18.0199 30.87 18.0799C30.84 18.1299 30.81 18.1799 30.78 18.2299C30.78 18.2299 30.78 18.2299 30.78 18.2399C30.78 18.2399 30.78 18.2399 30.78 18.2499C30.76 18.2899 30.73 18.3299 30.71 18.3799C30.68 18.4299 30.66 18.4799 30.63 18.5299C30.61 18.5799 30.59 18.6199 30.56 18.6699C30.54 18.7199 30.51 18.7799 30.49 18.8299C30.47 18.8899 30.45 18.9399 30.43 18.9999C30.43 19.0299 30.41 19.0599 30.4 19.0899C30.4 19.0999 30.4 19.1099 30.39 19.1299C30.39 19.1499 30.38 19.1699 30.37 19.1899C30.35 19.2599 30.33 19.3299 30.32 19.3999C30.32 19.4399 30.31 19.4799 30.3 19.5299C30.3 19.5499 30.3 19.5699 30.29 19.5999C30.29 19.6199 30.29 19.6399 30.28 19.6599C30.26 19.7799 30.26 19.8999 30.26 20.0199C30.26 20.5899 30.46 20.9999 30.79 21.1799L32.05 21.9099C31.72 21.7199 31.52 21.3199 31.52 20.7499L31.55 20.7699Z" fill="white" stroke="#2B2B2B" stroke-width="0.4" stroke-linecap="round" stroke-linejoin="round"/>
<path d="M33.36 17.6301C34.36 17.0501 35.18 17.5201 35.18 18.6701C35.18 19.8201 34.37 21.2301 33.37 21.8001C32.37 22.3701 31.55 21.9101 31.55 20.7601C31.55 19.6101 32.36 18.2001 33.36 17.6201V17.6301Z" fill="#FFE2AD" stroke="#2B2B2B" stroke-width="0.4" stroke-linecap="round" stroke-linejoin="round"/>
<path d="M6.50998 21.51L3.22998 19.61C3.22998 18.47 4.02998 17.09 5.00998 16.52L8.28998 18.42C7.29998 18.99 6.50998 20.37 6.50998 21.51Z" fill="#2B2B2B"/>
<mask id="mask0_1547_5337" style="mask-type:luminance" maskUnits="userSpaceOnUse" x="3" y="16" width="6" height="6">
<path d="M6.50998 21.51L3.22998 19.61C3.22998 18.47 4.02998 17.09 5.00998 16.52L8.28998 18.42C7.29998 18.99 6.50998 20.37 6.50998 21.51Z" fill="white"/>
</mask>
<g mask="url(#mask0_1547_5337)">
<path d="M6.50998 21.51L3.22998 19.61C3.22998 19.5 3.22998 19.38 3.24998 19.26L6.52998 21.16C6.50998 21.28 6.50998 21.4 6.50998 21.51Z" fill="#2B2B2B" stroke="#2B2B2B" stroke-width="0.4" stroke-linecap="round" stroke-linejoin="round"/>
<path d="M6.54001 21.16L3.26001 19.26C3.27001 19.18 3.28001 19.1 3.30001 19.01L6.58001 20.91C6.56001 20.99 6.55001 21.08 6.54001 21.16Z" fill="#2B2B2B" stroke="#2B2B2B" stroke-width="0.4" stroke-linecap="round" stroke-linejoin="round"/>
<path d="M6.57999 20.9101L3.29999 19.0101C3.30999 18.9401 3.32999 18.8701 3.34999 18.8101L6.62999 20.7101C6.60999 20.7801 6.58999 20.8501 6.57999 20.9101Z" fill="#2B2B2B" stroke="#2B2B2B" stroke-width="0.4" stroke-linecap="round" stroke-linejoin="round"/>
<path d="M6.62998 20.7101L3.34998 18.8101C3.36998 18.7501 3.38998 18.6901 3.40998 18.6301L6.68998 20.5301C6.66998 20.5901 6.64998 20.6501 6.62998 20.7101Z" fill="#2B2B2B" stroke="#2B2B2B" stroke-width="0.4" stroke-linecap="round" stroke-linejoin="round"/>
<path d="M6.68997 20.53L3.40997 18.63C3.42997 18.57 3.44997 18.52 3.46997 18.46L6.74997 20.36C6.72997 20.42 6.70997 20.47 6.68997 20.53Z" fill="#2B2B2B" stroke="#2B2B2B" stroke-width="0.4" stroke-linecap="round" stroke-linejoin="round"/>
<path d="M6.74997 20.3601L3.46997 18.46C3.48997 18.41 3.50997 18.35 3.53997 18.3L6.81997 20.2001C6.79997 20.2501 6.77997 20.3101 6.74997 20.3601Z" fill="#2B2B2B" stroke="#2B2B2B" stroke-width="0.4" stroke-linecap="round" stroke-linejoin="round"/>
<path d="M6.80997 20.2001L3.52997 18.3001C3.54997 18.2501 3.57997 18.2001 3.59997 18.1401L6.87997 20.0401C6.85997 20.0901 6.82997 20.1401 6.80997 20.2001Z" fill="#2B2B2B" stroke="#2B2B2B" stroke-width="0.4" stroke-linecap="round" stroke-linejoin="round"/>
<path d="M6.87998 20.04L3.59998 18.14C3.61998 18.09 3.64998 18.04 3.67998 17.99L6.95998 19.89C6.92998 19.94 6.90998 19.99 6.87998 20.04Z" fill="#2B2B2B" stroke="#2B2B2B" stroke-width="0.4" stroke-linecap="round" stroke-linejoin="round"/>
<path d="M6.95999 19.8901L3.67999 17.9901C3.70999 17.9401 3.72999 17.8901 3.75999 17.8401L7.03999 19.7401C7.03999 19.7401 6.97999 19.8401 6.95999 19.8901Z" fill="#2B2B2B" stroke="#2B2B2B" stroke-width="0.4" stroke-linecap="round" stroke-linejoin="round"/>
<path d="M7.04001 19.7399L3.76001 17.8399C3.79001 17.7899 3.82001 17.7399 3.85001 17.6899L7.13001 19.5899C7.13001 19.5899 7.07001 19.6899 7.04001 19.7399Z" fill="#2B2B2B" stroke="#2B2B2B" stroke-width="0.4" stroke-linecap="round" stroke-linejoin="round"/>
<path d="M7.13999 19.59L3.85999 17.69C3.88999 17.64 3.92999 17.59 3.95999 17.54L7.23999 19.44C7.19999 19.49 7.16999 19.54 7.13999 19.59Z" fill="#2B2B2B" stroke="#2B2B2B" stroke-width="0.4" stroke-linecap="round" stroke-linejoin="round"/>
<path d="M7.23996 19.4401L3.95996 17.5401C3.99996 17.4901 4.03996 17.4301 4.07996 17.3801L7.35996 19.2801C7.31996 19.3301 7.27996 19.3901 7.23996 19.4401Z" fill="#2B2B2B" stroke="#2B2B2B" stroke-width="0.4" stroke-linecap="round" stroke-linejoin="round"/>
<path d="M7.35996 19.2699L4.07996 17.3699C4.12996 17.3099 4.17996 17.2499 4.22996 17.1899L7.50996 19.0899C7.45996 19.1499 7.40996 19.2099 7.35996 19.2699Z" fill="#2B2B2B" stroke="#2B2B2B" stroke-width="0.4" stroke-linecap="round" stroke-linejoin="round"/>
<path d="M7.49997 19.1L4.21997 17.2C4.27997 17.13 4.34997 17.06 4.41997 16.99L7.69997 18.89C7.62997 18.96 7.56997 19.03 7.49997 19.1Z" fill="#2B2B2B" stroke="#2B2B2B" stroke-width="0.4" stroke-linecap="round" stroke-linejoin="round"/>
<path d="M7.69998 18.89L4.41998 16.99C4.60998 16.81 4.80998 16.65 5.01998 16.53L8.29998 18.43C8.08998 18.55 7.88998 18.71 7.69998 18.89Z" fill="#2B2B2B" stroke="#2B2B2B" stroke-width="0.4" stroke-linecap="round" stroke-linejoin="round"/>
</g>
<path d="M6.50998 21.51L3.22998 19.61C3.22998 18.47 4.02998 17.09 5.00998 16.52L8.28998 18.42C7.29998 18.99 6.50998 20.37 6.50998 21.51Z" stroke="#2B2B2B" stroke-width="0.4" stroke-linecap="round" stroke-linejoin="round"/>
<path d="M44.1699 3.69003C43.8299 3.50003 43.3499 3.53003 42.8199 3.83003L33.6799 9.11003L31.0099 7.56003L40.1699 2.28003C40.6999 1.98003 41.1799 1.95003 41.5199 2.15003L44.1799 3.69003H44.1699Z" fill="#D9D9FD" stroke="#2B2B2B" stroke-width="0.4" stroke-linecap="round" stroke-linejoin="round"/>
<path d="M32.37 25.6501L29.7 24.1001C29.36 23.9101 29.15 23.4801 29.15 22.8801L29.11 10.8601L31.78 12.4001L31.82 24.4301C31.82 25.0401 32.03 25.4601 32.38 25.6501H32.37Z" fill="#7F7FFA" stroke="#2B2B2B" stroke-width="0.4" stroke-linecap="round" stroke-linejoin="round"/>
<path d="M42.82 3.82994C43.87 3.21994 44.72 3.69994 44.73 4.91994L44.76 16.9499C44.76 18.1599 43.92 19.6299 42.87 20.2399L33.72 25.5199C32.67 26.1299 31.81 25.6399 31.81 24.4299L31.78 12.3999C31.78 11.1899 32.63 9.71994 33.68 9.10994L42.83 3.82994H42.82Z" fill="white" stroke="#2B2B2B" stroke-width="0.4" stroke-linecap="round" stroke-linejoin="round"/>
<path d="M31.77 12.4001L29.1 10.8501C29.1 9.64006 29.95 8.17006 31 7.56006L33.67 9.11006C32.62 9.72006 31.76 11.1801 31.77 12.4001Z" fill="#2B2B2B" stroke="#2B2B2B" stroke-width="0.4" stroke-linecap="round" stroke-linejoin="round"/>
<path d="M41.52 6.22998C41.52 6.22998 41.6 6.22998 41.6 6.26998L41.64 19.26C41.64 19.26 41.61 19.37 41.56 19.39C41.51 19.41 41.48 19.39 41.48 19.35L41.44 6.35998C41.44 6.35998 41.47 6.24998 41.52 6.22998Z" fill="#2B2B2B" stroke="#2B2B2B" stroke-width="0.4" stroke-linecap="round" stroke-linejoin="round"/>
<path d="M36.19 9.67993C36.19 9.67993 36.27 9.67993 36.27 9.71993L36.31 22.7099C36.31 22.7099 36.28 22.8199 36.23 22.8399C36.18 22.8599 36.15 22.8399 36.15 22.7999L36.11 9.80993C36.11 9.80993 36.14 9.69993 36.19 9.67993Z" fill="#2B2B2B" stroke="#2B2B2B" stroke-width="0.4" stroke-linecap="round" stroke-linejoin="round"/>
<path d="M37.42 11.63C37.42 11.63 37.36 11.62 37.32 11.62C37.32 11.62 37.31 11.62 37.3 11.62C37.27 11.62 37.23 11.62 37.2 11.62C37.2 11.62 37.2 11.62 37.19 11.62C37.15 11.62 37.12 11.62 37.08 11.64C37.08 11.64 37.08 11.64 37.07 11.64C37.03 11.64 36.99 11.66 36.96 11.67C36.92 11.68 36.88 11.7 36.84 11.72C36.8 11.74 36.75 11.76 36.71 11.79L35.94 11.34C35.94 11.34 35.97 11.32 35.98 11.32C36 11.32 36.02 11.3 36.03 11.29C36.04 11.29 36.05 11.28 36.06 11.27C36.06 11.27 36.06 11.27 36.07 11.27C36.09 11.27 36.1 11.25 36.12 11.25C36.14 11.25 36.16 11.24 36.17 11.23C36.18 11.23 36.19 11.23 36.21 11.22C36.23 11.22 36.25 11.21 36.26 11.21C36.26 11.21 36.28 11.21 36.29 11.21C36.29 11.21 36.29 11.21 36.3 11.21C36.3 11.21 36.31 11.21 36.32 11.21C36.34 11.21 36.36 11.21 36.38 11.21C36.39 11.21 36.4 11.21 36.41 11.21C36.41 11.21 36.41 11.21 36.42 11.21C36.42 11.21 36.42 11.21 36.43 11.21C36.45 11.21 36.47 11.21 36.49 11.21C36.49 11.21 36.51 11.21 36.52 11.21C36.52 11.21 36.53 11.21 36.54 11.21C36.54 11.21 36.55 11.21 36.56 11.21C36.59 11.21 36.61 11.21 36.64 11.22C36.64 11.22 36.65 11.22 36.66 11.22C36.69 11.22 36.71 11.23 36.73 11.24C36.76 11.25 36.8 11.27 36.83 11.29L37.6 11.74C37.6 11.74 37.54 11.71 37.5 11.69C37.47 11.69 37.45 11.67 37.42 11.67C37.42 11.67 37.41 11.67 37.4 11.67L37.42 11.63Z" fill="#2B2B2B" stroke="#2B2B2B" stroke-width="0.4" stroke-linecap="round" stroke-linejoin="round"/>
<path d="M34.62 13.54C34.62 13.54 34.62 13.5 34.62 13.48C34.62 13.48 34.62 13.46 34.62 13.45C34.62 13.45 34.62 13.45 34.62 13.44C34.62 13.44 34.62 13.43 34.62 13.42C34.62 13.4 34.62 13.38 34.62 13.36C34.62 13.34 34.62 13.32 34.62 13.29C34.62 13.27 34.62 13.25 34.63 13.23C34.63 13.21 34.63 13.18 34.64 13.16V13.14C34.64 13.14 34.64 13.14 34.64 13.13C34.64 13.12 34.64 13.11 34.64 13.1C34.64 13.08 34.65 13.05 34.66 13.03C34.66 13.01 34.66 13 34.67 12.98C34.67 12.96 34.68 12.94 34.69 12.91C34.69 12.89 34.71 12.87 34.71 12.84C34.71 12.84 34.71 12.84 34.71 12.83C34.71 12.82 34.72 12.8 34.73 12.79C34.73 12.77 34.75 12.75 34.76 12.73C34.76 12.72 34.77 12.7 34.78 12.69C34.78 12.67 34.8 12.65 34.81 12.63C34.82 12.61 34.83 12.58 34.84 12.56C34.84 12.56 34.84 12.56 34.84 12.55C34.84 12.55 34.84 12.55 34.84 12.54C34.84 12.52 34.86 12.5 34.87 12.48C34.88 12.46 34.89 12.44 34.91 12.41C34.91 12.4 34.92 12.39 34.93 12.38C34.93 12.38 34.93 12.38 34.93 12.37C34.94 12.35 34.95 12.33 34.97 12.31C34.99 12.28 35 12.25 35.02 12.23C35.02 12.23 35.02 12.23 35.02 12.22C35.05 12.18 35.07 12.15 35.1 12.11C35.12 12.08 35.14 12.06 35.16 12.03C35.18 12.01 35.19 11.99 35.21 11.97C35.23 11.95 35.24 11.93 35.26 11.91C35.28 11.89 35.29 11.87 35.31 11.85C35.32 11.84 35.33 11.82 35.35 11.81C35.37 11.79 35.39 11.77 35.4 11.76C35.4 11.76 35.41 11.75 35.42 11.74C35.42 11.74 35.42 11.74 35.43 11.73C35.43 11.73 35.45 11.71 35.46 11.7C35.48 11.68 35.5 11.67 35.52 11.65C35.52 11.65 35.54 11.64 35.55 11.63C35.55 11.63 35.55 11.63 35.56 11.62C35.56 11.62 35.57 11.61 35.58 11.6C35.6 11.59 35.62 11.57 35.64 11.56C35.65 11.55 35.67 11.54 35.68 11.53C35.7 11.52 35.72 11.51 35.74 11.49C35.76 11.48 35.78 11.47 35.8 11.46C35.8 11.46 35.8 11.46 35.81 11.46L36.58 11.91C36.58 11.91 36.49 11.96 36.45 11.99C36.41 12.02 36.37 12.05 36.33 12.08C36.33 12.08 36.33 12.08 36.32 12.09C36.28 12.12 36.25 12.15 36.21 12.19C36.21 12.19 36.21 12.19 36.2 12.2C36.16 12.23 36.13 12.27 36.09 12.31C36.05 12.35 36.02 12.39 35.98 12.43C35.94 12.47 35.91 12.52 35.87 12.56C35.84 12.6 35.81 12.64 35.78 12.68C35.76 12.71 35.74 12.74 35.73 12.76C35.72 12.78 35.7 12.81 35.69 12.83C35.69 12.84 35.68 12.85 35.67 12.87C35.65 12.91 35.63 12.95 35.6 12.99C35.6 12.99 35.6 12.99 35.6 13C35.57 13.05 35.55 13.1 35.53 13.15C35.51 13.2 35.49 13.25 35.47 13.3C35.45 13.35 35.43 13.4 35.42 13.45C35.41 13.5 35.39 13.55 35.38 13.6C35.37 13.67 35.36 13.72 35.35 13.77C35.35 13.82 35.34 13.87 35.33 13.92C35.33 13.92 35.33 13.92 35.33 13.93C35.33 13.98 35.33 14.03 35.33 14.08C35.33 14.13 35.33 14.18 35.33 14.22C35.33 14.22 35.33 14.22 35.33 14.23C35.33 14.27 35.34 14.31 35.35 14.35C35.35 14.35 35.35 14.36 35.35 14.37C35.35 14.41 35.37 14.44 35.38 14.48C35.38 14.48 35.38 14.49 35.38 14.5C35.39 14.53 35.4 14.56 35.42 14.59C35.42 14.59 35.42 14.59 35.42 14.6C35.44 14.63 35.45 14.66 35.47 14.69C35.5 14.73 35.53 14.77 35.56 14.8L35.58 14.82C35.61 14.85 35.65 14.88 35.69 14.9L34.92 14.45C34.92 14.45 34.84 14.4 34.81 14.37L34.79 14.35C34.76 14.32 34.73 14.28 34.7 14.24C34.68 14.21 34.67 14.18 34.65 14.15C34.65 14.15 34.65 14.15 34.65 14.14C34.65 14.12 34.63 14.1 34.62 14.08C34.62 14.07 34.62 14.06 34.61 14.05C34.61 14.05 34.61 14.04 34.61 14.03C34.61 14.03 34.61 14.02 34.61 14.01C34.61 13.99 34.6 13.97 34.59 13.94V13.92C34.59 13.92 34.59 13.91 34.59 13.9V13.88C34.59 13.86 34.59 13.84 34.59 13.82C34.59 13.81 34.59 13.8 34.59 13.78C34.59 13.78 34.59 13.78 34.59 13.77C34.59 13.77 34.59 13.77 34.59 13.76C34.59 13.74 34.59 13.72 34.59 13.7C34.59 13.68 34.59 13.66 34.59 13.64C34.59 13.64 34.59 13.6 34.59 13.58L34.62 13.54Z" fill="#7F7FFA" stroke="#2B2B2B" stroke-width="0.4" stroke-linecap="round" stroke-linejoin="round"/>
<path d="M36.68 11.8C35.96 12.22 35.38 13.22 35.38 14.05C35.38 14.88 35.97 15.21 36.69 14.8C37.41 14.39 37.99 13.38 37.99 12.55C37.99 11.72 37.4 11.39 36.68 11.81V11.8Z" fill="#D9D9FD" stroke="#2B2B2B" stroke-width="0.4" stroke-linecap="round" stroke-linejoin="round"/>
<path d="M42.65 13.45C42.65 13.45 42.59 13.44 42.55 13.44C42.55 13.44 42.54 13.44 42.53 13.44C42.5 13.44 42.46 13.44 42.43 13.44C42.43 13.44 42.43 13.44 42.42 13.44C42.38 13.44 42.35 13.44 42.31 13.46C42.31 13.46 42.31 13.46 42.3 13.46C42.26 13.46 42.22 13.48 42.19 13.49C42.15 13.5 42.11 13.52 42.07 13.54C42.03 13.56 41.98 13.58 41.94 13.61L41.17 13.16C41.17 13.16 41.2 13.14 41.21 13.14C41.23 13.14 41.25 13.12 41.26 13.11C41.27 13.11 41.28 13.1 41.29 13.09C41.29 13.09 41.29 13.09 41.3 13.09C41.32 13.09 41.33 13.07 41.35 13.07C41.37 13.07 41.39 13.06 41.4 13.05C41.41 13.05 41.42 13.05 41.44 13.04C41.46 13.04 41.48 13.03 41.49 13.03C41.49 13.03 41.51 13.03 41.52 13.03C41.52 13.03 41.52 13.03 41.53 13.03C41.53 13.03 41.54 13.03 41.55 13.03C41.57 13.03 41.59 13.03 41.61 13.03C41.62 13.03 41.63 13.03 41.64 13.03C41.64 13.03 41.64 13.03 41.65 13.03C41.65 13.03 41.65 13.03 41.66 13.03C41.68 13.03 41.7 13.03 41.72 13.03C41.72 13.03 41.74 13.03 41.75 13.03C41.75 13.03 41.76 13.03 41.77 13.03C41.77 13.03 41.78 13.03 41.79 13.03C41.82 13.03 41.84 13.03 41.87 13.04C41.87 13.04 41.88 13.04 41.89 13.04C41.92 13.04 41.94 13.05 41.96 13.06C41.99 13.07 42.03 13.09 42.06 13.11L42.83 13.56C42.83 13.56 42.77 13.53 42.73 13.51C42.7 13.51 42.68 13.49 42.65 13.49C42.65 13.49 42.64 13.49 42.63 13.49L42.65 13.45Z" fill="#2B2B2B" stroke="#2B2B2B" stroke-width="0.4" stroke-linecap="round" stroke-linejoin="round"/>
<path d="M39.85 15.35C39.85 15.35 39.85 15.31 39.85 15.29C39.85 15.29 39.85 15.27 39.85 15.26C39.85 15.26 39.85 15.26 39.85 15.25C39.85 15.25 39.85 15.24 39.85 15.23C39.85 15.21 39.85 15.19 39.85 15.17C39.85 15.15 39.85 15.13 39.85 15.1C39.85 15.08 39.85 15.06 39.86 15.04C39.86 15.02 39.86 14.99 39.87 14.97V14.95C39.87 14.95 39.87 14.95 39.87 14.94C39.87 14.93 39.87 14.92 39.87 14.91C39.87 14.89 39.88 14.86 39.89 14.84C39.89 14.82 39.89 14.81 39.9 14.79C39.9 14.77 39.91 14.75 39.92 14.72C39.92 14.7 39.94 14.68 39.94 14.65C39.94 14.65 39.94 14.65 39.94 14.64C39.94 14.63 39.95 14.61 39.96 14.6C39.96 14.58 39.98 14.56 39.99 14.54C39.99 14.53 40 14.51 40.01 14.5C40.01 14.48 40.03 14.46 40.04 14.44C40.05 14.42 40.06 14.39 40.07 14.37C40.07 14.37 40.07 14.37 40.07 14.36C40.07 14.36 40.07 14.36 40.07 14.35C40.07 14.33 40.09 14.31 40.1 14.29C40.11 14.27 40.12 14.25 40.14 14.22C40.14 14.21 40.15 14.2 40.16 14.19C40.16 14.19 40.16 14.19 40.16 14.18C40.17 14.16 40.18 14.14 40.2 14.12C40.22 14.09 40.23 14.06 40.25 14.04C40.25 14.04 40.25 14.04 40.25 14.03C40.28 13.99 40.3 13.96 40.33 13.92C40.35 13.89 40.37 13.87 40.39 13.84C40.41 13.82 40.42 13.8 40.44 13.78C40.46 13.76 40.47 13.74 40.49 13.72C40.51 13.7 40.52 13.68 40.54 13.66C40.55 13.65 40.56 13.63 40.58 13.62C40.6 13.6 40.62 13.58 40.63 13.57C40.63 13.57 40.64 13.56 40.65 13.55C40.65 13.55 40.65 13.55 40.66 13.54C40.66 13.54 40.68 13.52 40.69 13.51C40.71 13.49 40.73 13.48 40.75 13.46C40.75 13.46 40.77 13.45 40.78 13.44C40.78 13.44 40.78 13.44 40.79 13.43C40.79 13.43 40.8 13.42 40.81 13.41C40.83 13.4 40.85 13.38 40.87 13.37C40.88 13.36 40.9 13.35 40.91 13.34C40.93 13.33 40.95 13.32 40.97 13.3C40.99 13.29 41.01 13.28 41.03 13.27C41.03 13.27 41.03 13.27 41.04 13.27L41.81 13.72C41.81 13.72 41.72 13.77 41.68 13.8C41.64 13.83 41.6 13.86 41.56 13.89C41.56 13.89 41.56 13.89 41.55 13.9C41.51 13.93 41.48 13.96 41.44 14C41.44 14 41.44 14 41.43 14.01C41.39 14.04 41.36 14.08 41.32 14.12C41.28 14.16 41.25 14.2 41.21 14.24C41.17 14.28 41.14 14.33 41.1 14.37C41.07 14.41 41.04 14.45 41.01 14.49C40.99 14.52 40.97 14.55 40.96 14.57C40.95 14.59 40.93 14.62 40.92 14.64C40.92 14.65 40.91 14.66 40.9 14.68C40.88 14.72 40.86 14.76 40.83 14.8C40.83 14.8 40.83 14.8 40.83 14.81C40.8 14.86 40.78 14.91 40.76 14.96C40.74 15.01 40.72 15.06 40.7 15.11C40.68 15.16 40.66 15.21 40.65 15.26C40.64 15.31 40.62 15.36 40.61 15.41C40.6 15.48 40.59 15.53 40.58 15.58C40.58 15.63 40.57 15.68 40.56 15.73C40.56 15.73 40.56 15.73 40.56 15.74C40.56 15.79 40.56 15.84 40.56 15.89C40.56 15.94 40.56 15.99 40.56 16.03C40.56 16.03 40.56 16.03 40.56 16.04C40.56 16.08 40.57 16.12 40.58 16.16C40.58 16.16 40.58 16.17 40.58 16.18C40.58 16.22 40.6 16.25 40.61 16.29C40.61 16.29 40.61 16.3 40.61 16.31C40.62 16.34 40.63 16.37 40.65 16.4C40.65 16.4 40.65 16.4 40.65 16.41C40.67 16.44 40.68 16.47 40.7 16.5C40.73 16.54 40.76 16.58 40.79 16.61L40.81 16.63C40.84 16.66 40.88 16.69 40.92 16.71L40.15 16.26C40.15 16.26 40.07 16.21 40.04 16.18L40.02 16.16C39.99 16.13 39.96 16.09 39.93 16.05C39.91 16.02 39.9 15.99 39.88 15.96C39.88 15.96 39.88 15.96 39.88 15.95C39.88 15.93 39.86 15.91 39.85 15.89C39.85 15.88 39.85 15.87 39.84 15.86C39.84 15.86 39.84 15.85 39.84 15.84C39.84 15.84 39.84 15.83 39.84 15.82C39.84 15.8 39.83 15.78 39.82 15.75V15.73C39.82 15.73 39.82 15.72 39.82 15.71V15.69C39.82 15.67 39.82 15.65 39.82 15.63C39.82 15.62 39.82 15.61 39.82 15.59C39.82 15.59 39.82 15.59 39.82 15.58C39.82 15.58 39.82 15.58 39.82 15.57C39.82 15.55 39.82 15.53 39.82 15.51C39.82 15.49 39.82 15.47 39.82 15.45C39.82 15.45 39.82 15.41 39.82 15.39L39.85 15.35Z" fill="#7F7FFA" stroke="#2B2B2B" stroke-width="0.4" stroke-linecap="round" stroke-linejoin="round"/>
<path d="M41.91 13.6101C41.19 14.0301 40.61 15.0301 40.61 15.8601C40.61 16.6901 41.2 17.0201 41.92 16.6101C42.64 16.2001 43.22 15.1901 43.22 14.3601C43.22 13.5301 42.63 13.2001 41.91 13.6201V13.6101Z" fill="#D9D9FD" stroke="#2B2B2B" stroke-width="0.4" stroke-linecap="round" stroke-linejoin="round"/>
</svg>
