<svg width="49" height="48" viewBox="0 0 49 48" fill="none" xmlns="http://www.w3.org/2000/svg">
<g clip-path="url(#clip0_1548_38789)">
<g clip-path="url(#clip1_1548_38789)">
<path d="M8.54331 46.59L8.47331 21.44L5.14331 19.5L5.21331 44.65C5.21331 45.22 5.41331 45.62 5.74331 45.81L9.07331 47.75C8.74331 47.56 8.54331 47.16 8.54331 46.59Z" fill="#EDBD66" stroke="#2B2B2B" stroke-width="0.4" stroke-linecap="round" stroke-linejoin="round"/>
<path d="M38.4933 2.07007C38.5933 2.04007 38.6933 2.01007 38.7933 2.00007C38.7933 2.00007 38.8133 2.00007 38.8233 2.00007C38.9233 2.00007 39.0233 2.00007 39.1133 2.01007C39.1133 2.01007 39.1133 2.01007 39.1233 2.01007C39.2133 2.03007 39.3033 2.06007 39.3833 2.11007L36.0533 0.170068C36.0233 0.150068 35.9933 0.140068 35.9633 0.130068C35.9333 0.120068 35.9033 0.110068 35.8633 0.100068C35.8433 0.100068 35.8233 0.0900684 35.7933 0.0800684C35.7933 0.0800684 35.7933 0.0800684 35.7833 0.0800684C35.7833 0.0800684 35.7733 0.0800684 35.7633 0.0800684C35.7233 0.0800684 35.6933 0.0700684 35.6533 0.0700684C35.6133 0.0700684 35.5733 0.0700684 35.5333 0.0700684C35.5233 0.0700684 35.5033 0.0700684 35.4933 0.0700684C35.4933 0.0700684 35.4733 0.0700684 35.4633 0.0700684C35.4433 0.0700684 35.4233 0.0700684 35.3933 0.0700684C35.3433 0.0700684 35.2833 0.0900684 35.2333 0.100068C35.2133 0.100068 35.1833 0.120068 35.1633 0.120068C35.1433 0.120068 35.1233 0.130068 35.1033 0.140068C35.0733 0.140068 35.0533 0.160068 35.0233 0.170068C34.9433 0.200068 34.8533 0.250068 34.7633 0.300068L6.95331 16.3701L10.2833 18.3101L38.0933 2.25007C38.2133 2.18007 38.3233 2.13007 38.4333 2.10007C38.4533 2.10007 38.4733 2.08007 38.4933 2.08007V2.07007Z" fill="white" stroke="#2B2B2B" stroke-width="0.4" stroke-linecap="round" stroke-linejoin="round"/>
<path d="M38.0933 2.25004C39.0933 1.67004 39.9133 2.13004 39.9133 3.29004L39.9833 28.44C39.9833 29.59 39.1733 31 38.1733 31.58L10.3633 47.64C9.3633 48.22 8.5433 47.75 8.5433 46.6L8.4733 21.45C8.4733 20.3 9.2833 18.89 10.2833 18.31L38.0933 2.25004Z" fill="white" stroke="#2B2B2B" stroke-width="0.4" stroke-linecap="round" stroke-linejoin="round"/>
<path d="M31.5233 12.5402L29.2233 13.8902L28.2633 14.4502H28.2533L28.2433 14.4402H28.2333L22.5033 11.3402L22.5333 11.3302L25.8033 9.44019L31.5233 12.5402Z" fill="white" stroke="#2B2B2B" stroke-width="0.4" stroke-linecap="round" stroke-linejoin="round"/>
<path d="M44.6633 4.9501L44.6533 4.9601L44.6333 4.9701L41.3933 6.8701H41.3833V6.8601L41.3633 6.8501L35.6333 3.7601L35.6533 3.7401L38.9033 1.8701L38.9233 1.8501L44.6633 4.9501Z" fill="white" stroke="#2B2B2B" stroke-width="0.4" stroke-linecap="round" stroke-linejoin="round"/>
<path d="M44.5033 7.40995C43.9533 8.55995 42.8533 8.84995 42.0433 8.04995C41.7333 7.74995 41.5133 7.32995 41.3833 6.86995L44.6533 4.94995C44.8933 5.72995 44.8633 6.65995 44.5033 7.40995Z" fill="white" stroke="#2B2B2B" stroke-width="0.4" stroke-linecap="round" stroke-linejoin="round"/>
<path d="M41.3833 6.83999L41.3633 6.84999L38.1133 8.75999V8.74999L32.3633 5.64999L35.6333 3.75999L35.6533 3.73999L41.3833 6.83999Z" fill="#EDBD66" stroke="#2B2B2B" stroke-width="0.4" stroke-linecap="round" stroke-linejoin="round"/>
<path d="M41.2233 9.30009C40.6733 10.4501 39.5733 10.7401 38.7633 9.94009C38.4533 9.64009 38.2333 9.22009 38.1033 8.76009L41.3733 6.84009C41.6133 7.62009 41.5833 8.55009 41.2233 9.30009Z" fill="#EDBD66" stroke="#2B2B2B" stroke-width="0.4" stroke-linecap="round" stroke-linejoin="round"/>
<path d="M38.1133 8.76015L34.8533 10.6701H34.8433L34.8233 10.6601L29.0633 7.55015L29.0933 7.53015L32.3633 5.65015L38.1133 8.75015V8.76015Z" fill="white" stroke="#2B2B2B" stroke-width="0.4" stroke-linecap="round" stroke-linejoin="round"/>
<path d="M37.9633 11.22C37.4133 12.37 36.3133 12.66 35.5033 11.86C35.1933 11.56 34.9733 11.14 34.8433 10.68L38.1133 8.76001C38.3533 9.54001 38.3233 10.47 37.9633 11.22Z" fill="white" stroke="#2B2B2B" stroke-width="0.4" stroke-linecap="round" stroke-linejoin="round"/>
<path d="M34.8433 10.65L34.8233 10.66L33.3933 11.5L31.5733 12.56L25.7933 9.44003L29.0633 7.55003L29.0933 7.53003L34.8433 10.65Z" fill="#EDBD66" stroke="#2B2B2B" stroke-width="0.4" stroke-linecap="round" stroke-linejoin="round"/>
<path d="M34.6933 13.1101C34.1433 14.2601 33.0433 14.5501 32.2333 13.7501C31.9233 13.4501 31.7033 13.0301 31.5733 12.5701L34.8433 10.6501C35.0833 11.4301 35.0533 12.3601 34.6933 13.1101Z" fill="#EDBD66" stroke="#2B2B2B" stroke-width="0.4" stroke-linecap="round" stroke-linejoin="round"/>
<path d="M31.3733 15C30.8233 16.15 29.7233 16.44 28.9133 15.64C28.6033 15.34 28.3833 14.92 28.2533 14.46L31.5233 12.54C31.7633 13.32 31.7333 14.25 31.3733 15Z" fill="white" stroke="#2B2B2B" stroke-width="0.4" stroke-linecap="round" stroke-linejoin="round"/>
<path d="M28.2633 14.4301H28.2533L28.2433 14.4401L24.9933 16.3401H24.9833V16.3301L24.9633 16.3201L19.2333 13.2301L19.2633 13.2201L22.5033 11.3401L22.5333 11.3301L28.2633 14.4301Z" fill="#EDBD66" stroke="#2B2B2B" stroke-width="0.4" stroke-linecap="round" stroke-linejoin="round"/>
<path d="M28.1033 16.8902C27.5533 18.0402 26.4533 18.3302 25.6433 17.5302C25.3333 17.2302 25.1133 16.8102 24.9833 16.3502L28.2533 14.4302C28.4933 15.2102 28.4633 16.1402 28.1033 16.8902Z" fill="#EDBD66" stroke="#2B2B2B" stroke-width="0.4" stroke-linecap="round" stroke-linejoin="round"/>
<path d="M24.9833 16.31V16.32H24.9633L21.7233 18.23H21.7133L15.9633 15.12L19.2333 13.23L19.2633 13.22L24.9833 16.31Z" fill="white" stroke="#2B2B2B" stroke-width="0.4" stroke-linecap="round" stroke-linejoin="round"/>
<path d="M24.8333 18.7801C24.2833 19.9301 23.1833 20.2201 22.3733 19.4201C22.0633 19.1201 21.8433 18.7001 21.7133 18.2401L24.9833 16.3201C25.2233 17.1001 25.1933 18.0301 24.8333 18.7801Z" fill="white" stroke="#2B2B2B" stroke-width="0.4" stroke-linecap="round" stroke-linejoin="round"/>
<path d="M21.7233 18.2301L21.7133 18.2401L18.4533 20.1501L18.4433 20.1401L18.4233 20.1301L12.6733 17.0201L12.6933 17.0101L15.9633 15.1201L21.7133 18.2301H21.7233Z" fill="#EDBD66" stroke="#2B2B2B" stroke-width="0.4" stroke-linecap="round" stroke-linejoin="round"/>
<path d="M21.5633 20.69C21.0133 21.84 19.9133 22.13 19.1033 21.33C18.7933 21.03 18.5733 20.61 18.4433 20.15L21.7133 18.23C21.9533 19.01 21.9233 19.94 21.5633 20.69Z" fill="#EDBD66" stroke="#2B2B2B" stroke-width="0.4" stroke-linecap="round" stroke-linejoin="round"/>
<path d="M18.4433 20.12L18.4233 20.13L16.9933 20.97L15.1833 22.04L9.40332 18.91L12.6733 17.02L12.6933 17.01L18.4433 20.12Z" fill="white" stroke="#2B2B2B" stroke-width="0.4" stroke-linecap="round" stroke-linejoin="round"/>
<path d="M18.2933 22.5801C17.7433 23.7301 16.6433 24.0201 15.8333 23.2201C15.5233 22.9201 15.3033 22.5001 15.1733 22.0401L18.4433 20.1201C18.6833 20.9001 18.6533 21.8301 18.2933 22.5801Z" fill="white" stroke="#2B2B2B" stroke-width="0.4" stroke-linecap="round" stroke-linejoin="round"/>
<path d="M8.47331 21.4401L5.14331 19.5001C5.14331 18.3501 5.95331 16.9401 6.95331 16.3601L10.2833 18.3001C9.28331 18.8801 8.47331 20.2801 8.47331 21.4401Z" fill="#2B2B2B"/>
<mask id="mask0_1548_38789" style="mask-type:luminance" maskUnits="userSpaceOnUse" x="5" y="16" width="6" height="6">
<path d="M8.47331 21.4401L5.14331 19.5001C5.14331 18.3501 5.95331 16.9401 6.95331 16.3601L10.2833 18.3001C9.28331 18.8801 8.47331 20.2801 8.47331 21.4401Z" fill="white"/>
</mask>
<g mask="url(#mask0_1548_38789)">
<path d="M8.47331 21.4401L5.14331 19.5001C5.14331 19.3801 5.14331 19.2601 5.16331 19.1401L8.49331 21.0801C8.47331 21.2001 8.47331 21.3201 8.47331 21.4401Z" fill="#2B2B2B" stroke="#2B2B2B" stroke-width="0.4" stroke-linecap="round" stroke-linejoin="round"/>
<path d="M8.4933 21.0901L5.1633 19.1501C5.1733 19.0701 5.1933 18.9801 5.2033 18.9001L8.5333 20.8401C8.5133 20.9201 8.5033 21.0101 8.4933 21.0901Z" fill="#2B2B2B" stroke="#2B2B2B" stroke-width="0.4" stroke-linecap="round" stroke-linejoin="round"/>
<path d="M8.53331 20.8302L5.20331 18.8902C5.21331 18.8202 5.23331 18.7502 5.25331 18.6802L8.58331 20.6202C8.56331 20.6902 8.54331 20.7602 8.53331 20.8302Z" fill="#2B2B2B" stroke="#2B2B2B" stroke-width="0.4" stroke-linecap="round" stroke-linejoin="round"/>
<path d="M8.5833 20.63L5.2533 18.69C5.2733 18.63 5.2933 18.57 5.3133 18.51L8.6433 20.45C8.6233 20.51 8.6033 20.57 8.5833 20.63Z" fill="#2B2B2B" stroke="#2B2B2B" stroke-width="0.4" stroke-linecap="round" stroke-linejoin="round"/>
<path d="M8.64332 20.4401L5.31332 18.5001C5.33332 18.4401 5.35332 18.3901 5.37332 18.3301L8.70332 20.2701C8.68332 20.3301 8.66332 20.3801 8.64332 20.4401Z" fill="#2B2B2B" stroke="#2B2B2B" stroke-width="0.4" stroke-linecap="round" stroke-linejoin="round"/>
<path d="M8.70332 20.2702L5.37332 18.3302C5.39332 18.2802 5.41332 18.2202 5.44332 18.1702L8.77332 20.1102C8.75332 20.1602 8.72332 20.2202 8.70332 20.2702Z" fill="#2B2B2B" stroke="#2B2B2B" stroke-width="0.4" stroke-linecap="round" stroke-linejoin="round"/>
<path d="M8.7733 20.11L5.4433 18.17C5.4633 18.12 5.4933 18.06 5.5133 18.01L8.8433 19.95C8.8133 20 8.7933 20.05 8.7733 20.11Z" fill="#2B2B2B" stroke="#2B2B2B" stroke-width="0.4" stroke-linecap="round" stroke-linejoin="round"/>
<path d="M8.84331 19.9501L5.51331 18.0101C5.54331 17.9601 5.56331 17.9101 5.59331 17.8601L8.92331 19.8001C8.89331 19.8501 8.87331 19.9001 8.84331 19.9501Z" fill="#2B2B2B" stroke="#2B2B2B" stroke-width="0.4" stroke-linecap="round" stroke-linejoin="round"/>
<path d="M8.92332 19.7902L5.59332 17.8502C5.62332 17.8002 5.65332 17.7502 5.68332 17.7002L9.01332 19.6402C8.98332 19.6902 8.95332 19.7402 8.92332 19.7902Z" fill="#2B2B2B" stroke="#2B2B2B" stroke-width="0.4" stroke-linecap="round" stroke-linejoin="round"/>
<path d="M9.01332 19.64L5.68332 17.7001C5.71332 17.6501 5.74332 17.6 5.77332 17.55L9.10332 19.49C9.07332 19.54 9.04332 19.59 9.01332 19.64Z" fill="#2B2B2B" stroke="#2B2B2B" stroke-width="0.4" stroke-linecap="round" stroke-linejoin="round"/>
<path d="M9.10332 19.4901L5.77332 17.5501C5.80332 17.5001 5.84332 17.4401 5.88332 17.3901L9.21332 19.3301C9.17332 19.3801 9.14332 19.4301 9.10332 19.4901Z" fill="#2B2B2B" stroke="#2B2B2B" stroke-width="0.4" stroke-linecap="round" stroke-linejoin="round"/>
<path d="M9.20332 19.3302L5.87332 17.3902C5.91332 17.3302 5.95332 17.2802 5.99332 17.2302L9.32332 19.1702C9.28332 19.2202 9.24332 19.2802 9.20332 19.3302Z" fill="#2B2B2B" stroke="#2B2B2B" stroke-width="0.4" stroke-linecap="round" stroke-linejoin="round"/>
<path d="M9.32332 19.17L5.99332 17.23C6.04332 17.17 6.09332 17.11 6.14332 17.05L9.47332 18.99C9.42332 19.05 9.37332 19.11 9.32332 19.17Z" fill="#2B2B2B" stroke="#2B2B2B" stroke-width="0.4" stroke-linecap="round" stroke-linejoin="round"/>
<path d="M9.47331 18.9901L6.14331 17.0501C6.20331 16.9801 6.27331 16.9101 6.34331 16.8401L9.67331 18.7801C9.60331 18.8501 9.54331 18.9201 9.47331 18.9901Z" fill="#2B2B2B" stroke="#2B2B2B" stroke-width="0.4" stroke-linecap="round" stroke-linejoin="round"/>
<path d="M9.67332 18.7801L6.34332 16.8401C6.53332 16.6501 6.73332 16.4901 6.95332 16.3701L10.2833 18.3101C10.0733 18.4301 9.86332 18.5901 9.67332 18.7801Z" fill="#2B2B2B" stroke="#2B2B2B" stroke-width="0.4" stroke-linecap="round" stroke-linejoin="round"/>
</g>
<path d="M8.47331 21.4401L5.14331 19.5001C5.14331 18.3501 5.95331 16.9401 6.95331 16.3601L10.2833 18.3001C9.28331 18.8801 8.47331 20.2801 8.47331 21.4401Z" stroke="#2B2B2B" stroke-width="0.4" stroke-linecap="round" stroke-linejoin="round"/>
<path d="M25.1933 27.5199V23.1899C25.1933 22.1499 25.7733 21.1999 26.7033 20.7299C27.8733 20.1299 29.2633 20.9799 29.2633 22.2999V25.4499" stroke="#EDBD66" stroke-width="0.4" stroke-linecap="round" stroke-linejoin="round"/>
<path d="M24.4133 29.3399L26.4933 44.1999L36.6433 38.2499L34.5633 23.3999L24.4133 29.3399Z" fill="#F9E3B3" stroke="#2B2B2B" stroke-width="0.4" stroke-linecap="round" stroke-linejoin="round"/>
<path d="M21.9533 28.28L32.1433 22.27L34.5633 23.4L24.4133 29.34L21.9533 28.28Z" fill="white" stroke="#2B2B2B" stroke-width="0.4" stroke-linecap="round" stroke-linejoin="round"/>
<path d="M27.0833 29.11V24.78C27.0833 23.74 27.6633 22.79 28.5933 22.32C29.7633 21.72 31.1533 22.57 31.1533 23.89V27.04" stroke="#2B2B2B" stroke-width="0.4" stroke-linecap="round" stroke-linejoin="round"/>
<path d="M32.1433 22.27V24.81L34.5633 23.4L32.1433 22.27Z" fill="#2B2B2B" stroke="#2B2B2B" stroke-width="0.4" stroke-linecap="round" stroke-linejoin="round"/>
<path d="M24.4133 29.34L23.2933 28.86L21.9533 28.28L21.0233 41.19L26.4933 44.2L24.4133 29.34Z" fill="#EDBD66" stroke="#2B2B2B" stroke-width="0.4" stroke-linecap="round" stroke-linejoin="round"/>
</g>
</g>
<defs>
<clipPath id="clip0_1548_38789">
<rect width="48" height="48" fill="white" transform="translate(0.333313)"/>
</clipPath>
<clipPath id="clip1_1548_38789">
<rect width="48" height="48" fill="white" transform="translate(0.333313)"/>
</clipPath>
</defs>
</svg>
