<svg width="235" height="66" viewBox="0 0 235 66" fill="none" xmlns="http://www.w3.org/2000/svg">
<g clip-path="url(#clip0_1558_5516)">
<path d="M42.1 9.94005H34.45C33.43 9.94005 32.46 10.3501 31.74 11.0701C31.02 11.7901 30.62 12.7701 30.62 13.7901V21.4701C30.62 21.9701 30.52 22.4801 30.33 22.9401C30.14 23.4101 29.86 23.8301 29.5 24.1901C29.15 24.5501 28.72 24.8301 28.26 25.0201C27.8 25.2101 27.3 25.3101 26.8 25.3101H19.14C18.13 25.3101 17.15 24.9001 16.44 24.1801C15.73 23.4601 15.32 22.4801 15.32 21.4601V13.7801C15.32 12.7601 14.92 11.7801 14.2 11.0601C13.48 10.3401 12.51 9.93005 11.5 9.93005H3.82C2.81 9.93005 1.83 10.3401 1.12 11.0601C0.4 11.7801 0 12.7601 0 13.7801V21.4601C0 21.9601 0.1 22.4701 0.29 22.9301C0.48 23.4001 0.76 23.8201 1.12 24.1801C1.47 24.5401 1.9 24.8201 2.36 25.0101C2.82 25.2001 3.32 25.3001 3.83 25.3001H11.49C12.5 25.3001 13.48 25.7001 14.19 26.4201C14.91 27.1401 15.31 28.1201 15.31 29.1401V36.8301C15.31 37.8501 14.91 38.8301 14.19 39.5501C13.47 40.2701 12.5 40.6701 11.49 40.6701H3.83C2.82 40.6701 1.84 41.0701 1.13 41.7901C0.41 42.5401 0 43.5101 0 44.5301V52.2201C0 53.2401 0.4 54.2201 1.12 54.9401C1.84 55.6601 2.81 56.0601 3.82 56.0601H11.48C12.49 56.0601 13.47 55.6601 14.18 54.9401C14.9 54.2201 15.3 53.2401 15.3 52.2201V44.5301C15.3 43.5101 15.7 42.5301 16.42 41.8101C17.14 41.0901 18.11 40.6901 19.12 40.6901H26.78C27.79 40.6901 28.77 41.0901 29.48 41.8101C30.2 42.5301 30.6 43.5101 30.6 44.5301V52.2201C30.6 53.2401 31.01 54.2201 31.72 54.9401C32.43 55.6601 33.41 56.0601 34.43 56.0601H42.08C42.58 56.0601 43.08 55.9601 43.55 55.7701C44.02 55.5801 44.44 55.3001 44.79 54.9401C45.15 54.5801 45.43 54.1601 45.62 53.6901C45.81 53.2201 45.91 52.7201 45.91 52.2201V44.5301C45.91 44.0301 45.81 43.5301 45.62 43.0601C45.43 42.5901 45.14 42.1701 44.79 41.8101C44.44 41.4501 44.01 41.1701 43.55 40.9801C43.09 40.7901 42.59 40.6901 42.08 40.6901H34.43C33.42 40.6901 32.44 40.2901 31.72 39.5701C31 38.8501 30.6 37.8701 30.6 36.8501V29.1601C30.6 28.1401 31.01 27.1601 31.72 26.4401C32.43 25.7201 33.41 25.3201 34.43 25.3201H42.08C42.58 25.3201 43.08 25.2201 43.55 25.0301C44.02 24.8401 44.44 24.5501 44.8 24.2001C45.16 23.8501 45.44 23.4201 45.63 22.9501C45.82 22.4801 45.92 21.9801 45.92 21.4801V13.8001C45.92 12.7801 45.52 11.8001 44.8 11.0801C44.08 10.3601 43.1 9.96005 42.09 9.96005L42.1 9.94005Z" fill="url(#paint0_linear_1558_5516)"/>
<path d="M62.9599 45.9701V19.6501H72.4499C74.5199 19.6501 76.2399 20.0201 77.5999 20.7701C78.8999 21.4601 79.9699 22.5201 80.6499 23.8201C81.3199 25.1801 81.6699 26.6701 81.6699 28.1801C81.6699 29.6901 81.3199 31.1801 80.6499 32.5401C79.9599 33.8401 78.8899 34.9101 77.5799 35.6001C76.2099 36.3501 74.4999 36.7201 72.4399 36.7201H65.8999V33.3601H72.0599C73.1599 33.4001 74.2599 33.1701 75.2399 32.6801C76.0199 32.2701 76.6499 31.6201 77.0299 30.8401C77.4199 30.0101 77.6199 29.1001 77.5999 28.1801C77.6199 27.2601 77.4199 26.3601 77.0299 25.5301C76.6399 24.7501 76.0099 24.1201 75.2299 23.7201C74.2199 23.2401 73.1099 23.0201 71.9999 23.0601H66.9599V45.9801H62.9399L62.9599 45.9701Z" fill="white"/>
<path d="M88.0201 23.1701C87.7001 23.1701 87.3801 23.1201 87.0801 23.0101C86.7801 22.9001 86.5101 22.7201 86.2801 22.5001C86.0501 22.2901 85.8701 22.0401 85.7501 21.7601C85.6301 21.4801 85.5601 21.1801 85.5601 20.8801C85.5601 20.5801 85.6201 20.2701 85.7501 20.0001C85.8701 19.7201 86.0601 19.4701 86.2801 19.2601C86.7501 18.8301 87.3701 18.5901 88.0101 18.5901C88.6501 18.5901 89.2701 18.8301 89.7401 19.2601C89.9701 19.4701 90.1501 19.7201 90.2701 20.0001C90.3901 20.2801 90.4601 20.5801 90.4601 20.8801C90.4601 21.1801 90.4001 21.4901 90.2701 21.7601C90.1501 22.0401 89.9701 22.2901 89.7401 22.5001C89.5101 22.7201 89.2401 22.8901 88.9401 23.0101C88.6401 23.1301 88.3201 23.1801 88.0001 23.1701H88.0201ZM86.0501 45.9601V26.2201H89.9401V45.9601H86.0501Z" fill="white"/>
<path d="M123.15 46.3701C121.37 46.4201 119.62 45.9801 118.08 45.1101C116.66 44.2801 115.52 43.0501 114.8 41.5801C114 39.9101 113.61 38.0801 113.65 36.2301C113.61 34.3801 114 32.5501 114.8 30.8801C115.51 29.3701 116.66 28.1001 118.1 27.2301C119.54 26.3601 121.2 25.9201 122.89 25.9701C124.01 25.9701 125.11 26.1601 126.17 26.5201C127.23 26.8901 128.2 27.4801 129.02 28.2601C129.91 29.1201 130.59 30.1701 131.01 31.3301C131.53 32.8001 131.77 34.3401 131.73 35.9001V37.2601H115.86V34.3801H127.93C127.94 33.4401 127.73 32.5201 127.29 31.6901C126.89 30.9201 126.29 30.2801 125.54 29.8301C124.75 29.3601 123.83 29.1301 122.91 29.1501C121.9 29.1301 120.9 29.4001 120.05 29.9401C119.26 30.4501 118.61 31.1601 118.18 32.0001C117.74 32.8501 117.52 33.7901 117.52 34.7401V36.9901C117.49 38.1501 117.73 39.3101 118.23 40.3601C118.66 41.2401 119.35 41.9801 120.21 42.4701C121.12 42.9701 122.15 43.2201 123.19 43.2001C123.87 43.2001 124.56 43.1001 125.21 42.8801C125.8 42.6801 126.33 42.3601 126.78 41.9301C127.23 41.4901 127.58 40.9601 127.79 40.3701L131.49 41.0201C131.2 42.0701 130.66 43.0401 129.9 43.8301C129.1 44.6501 128.13 45.2901 127.05 45.6901C125.81 46.1601 124.5 46.3901 123.17 46.3701H123.15Z" fill="white"/>
<path d="M139.94 19.6401V45.9601H136.05V19.6401H139.94Z" fill="white"/>
<path d="M145.48 45.9701V19.6501H155.23C157.12 19.6501 158.68 19.9601 159.92 20.5701C161.08 21.1101 162.04 21.9701 162.7 23.0501C163.32 24.1201 163.64 25.3301 163.62 26.5601C163.65 27.5201 163.44 28.4701 163.01 29.3301C162.63 30.0501 162.06 30.6701 161.38 31.1301C160.69 31.5801 159.94 31.9201 159.14 32.1101V32.3701C160.06 32.4301 160.96 32.7201 161.73 33.2101C162.6 33.7601 163.33 34.5201 163.83 35.4101C164.41 36.4701 164.7 37.6601 164.66 38.8701C164.68 40.1401 164.35 41.3901 163.71 42.4901C163.01 43.6101 161.98 44.4901 160.76 45.0201C159.43 45.6501 157.74 45.9701 155.67 45.9701H145.47H145.48ZM149.5 31.0301H154.88C155.72 31.0401 156.55 30.8701 157.32 30.5201C158.02 30.2001 158.62 29.7001 159.05 29.0801C159.48 28.4301 159.71 27.6601 159.69 26.8801C159.7 26.3701 159.6 25.8601 159.4 25.3901C159.2 24.9201 158.9 24.4901 158.53 24.1401C157.76 23.4001 156.58 23.0401 154.98 23.0401H149.5V31.0401V31.0301ZM149.5 42.5601H155.3C157.23 42.5601 158.61 42.1901 159.44 41.4501C159.84 41.1101 160.16 40.6801 160.38 40.2101C160.6 39.7301 160.7 39.2101 160.69 38.6901C160.69 37.8801 160.48 37.0901 160.05 36.4001C159.61 35.6901 158.98 35.1201 158.23 34.7401C157.37 34.3001 156.41 34.0901 155.44 34.1101H149.49V42.5501L149.5 42.5601Z" fill="white"/>
<path d="M171.08 23.1701C170.76 23.1701 170.44 23.1201 170.14 23.0101C169.84 22.9001 169.57 22.7201 169.34 22.5001C169.11 22.2901 168.93 22.0401 168.81 21.7601C168.69 21.4801 168.62 21.1801 168.62 20.8801C168.62 20.5801 168.68 20.2701 168.81 20.0001C168.93 19.7201 169.12 19.4701 169.34 19.2601C169.81 18.8301 170.43 18.5901 171.08 18.5901C171.73 18.5901 172.34 18.8301 172.82 19.2601C173.05 19.4701 173.23 19.7201 173.35 20.0001C173.47 20.2801 173.54 20.5801 173.54 20.8801C173.54 21.1801 173.48 21.4901 173.35 21.7601C173.23 22.0401 173.05 22.2901 172.82 22.5001C172.59 22.7201 172.32 22.8901 172.02 23.0101C171.72 23.1301 171.4 23.1801 171.08 23.1701ZM169.12 45.9601V26.2201H173.01V45.9601H169.12Z" fill="white"/>
<path d="M182.12 34.2401V45.9601H178.23V26.2201H181.96V29.4301H182.21C182.66 28.4001 183.42 27.5201 184.38 26.9101C185.5 26.2401 186.8 25.9101 188.11 25.9601C189.36 25.9301 190.59 26.2201 191.69 26.8001C192.72 27.3701 193.55 28.2401 194.07 29.3001C194.67 30.5801 194.96 31.9801 194.92 33.3901V45.9501H191.03V33.8501C191.03 32.4201 190.65 31.3001 189.9 30.4901C189.15 29.6801 188.11 29.2701 186.79 29.2701C185.95 29.2501 185.13 29.4501 184.39 29.8501C183.68 30.2401 183.11 30.8301 182.74 31.5401C182.31 32.3701 182.11 33.2901 182.13 34.2201L182.12 34.2401Z" fill="white"/>
<path d="M203.49 41.0701H200.1C199.67 41.0701 199.32 41.4101 199.32 41.8401V45.1901C199.32 45.6101 199.67 45.9601 200.1 45.9601H203.49C203.92 45.9601 204.27 45.6201 204.27 45.1901V41.8401C204.27 41.4201 203.92 41.0701 203.49 41.0701Z" fill="url(#paint1_linear_1558_5516)"/>
<path d="M210.42 23.1701C209.75 23.1701 209.18 22.9501 208.7 22.5001C208.22 22.0501 207.99 21.5101 207.99 20.8901C207.99 20.2701 208.23 19.7101 208.7 19.2701C209.17 18.8201 209.75 18.6001 210.42 18.6001C211.09 18.6001 211.66 18.8201 212.14 19.2701C212.62 19.7201 212.85 20.2601 212.85 20.8901C212.85 21.5201 212.61 22.0501 212.14 22.5001C211.67 22.9501 211.09 23.1701 210.42 23.1701ZM208.48 45.9501V26.2201H212.32V45.9501H208.48Z" fill="white"/>
<path d="M225.8 46.3501C223.95 46.3501 222.33 45.9301 220.96 45.0801C219.59 44.2301 218.51 43.0401 217.75 41.5201C216.99 40.0001 216.61 38.2101 216.61 36.1801C216.61 34.1501 216.99 32.3401 217.75 30.8101C218.51 29.2801 219.58 28.0901 220.96 27.2401C222.34 26.3901 223.95 25.9701 225.8 25.9701C227.65 25.9701 229.27 26.3901 230.64 27.2401C232.01 28.0901 233.09 29.2801 233.85 30.8101C234.61 32.3401 234.99 34.1301 234.99 36.1801C234.99 38.2301 234.61 40.0001 233.85 41.5201C233.09 43.0401 232.02 44.2301 230.64 45.0801C229.26 45.9301 227.65 46.3501 225.8 46.3501ZM225.81 43.1301C227.01 43.1301 228 42.8101 228.79 42.1801C229.58 41.5501 230.16 40.7001 230.54 39.6501C230.92 38.6001 231.11 37.4401 231.11 36.1701C231.11 34.9001 230.92 33.7501 230.54 32.7001C230.16 31.6401 229.58 30.7901 228.79 30.1501C228 29.5101 227.01 29.1901 225.81 29.1901C224.61 29.1901 223.6 29.5101 222.81 30.1501C222.02 30.7901 221.43 31.6401 221.05 32.7001C220.67 33.7601 220.48 34.9201 220.48 36.1701C220.48 37.4201 220.67 38.6001 221.05 39.6501C221.43 40.7001 222.02 41.5501 222.81 42.1801C223.6 42.8101 224.6 43.1301 225.81 43.1301Z" fill="white"/>
<path d="M104.98 36.0901L110.77 27.2001L111.4 26.2201H107.15L102.64 33.6001L98.1601 26.2201H93.8901L100.11 36.0901L93.8901 45.9701H98.1601L102.64 38.5901L107.15 45.9701H111.4L110.77 44.9801L104.98 36.0901Z" fill="white"/>
</g>
<defs>
<linearGradient id="paint0_linear_1558_5516" x1="-2.07" y1="30.4801" x2="48" y2="35.5301" gradientUnits="userSpaceOnUse">
<stop stop-color="#902EF2"/>
<stop offset="1" stop-color="#FF62B7"/>
</linearGradient>
<linearGradient id="paint1_linear_1558_5516" x1="199.1" y1="43.2401" x2="204.49" y2="43.7901" gradientUnits="userSpaceOnUse">
<stop stop-color="#902EF2"/>
<stop offset="1" stop-color="#FF62B7"/>
</linearGradient>
<clipPath id="clip0_1558_5516">
<rect width="235" height="65" fill="white" transform="translate(0 0.5)"/>
</clipPath>
</defs>
</svg>
