<svg width="49" height="48" viewBox="0 0 49 48" fill="none" xmlns="http://www.w3.org/2000/svg">
<g clip-path="url(#clip0_1547_5472)">
<path d="M23.8633 6.3701C23.8933 6.3701 23.9333 6.3701 23.9633 6.3701C23.9933 6.3701 24.0233 6.3901 24.0533 6.4001L22.7133 5.6201C22.7133 5.6201 22.6933 5.6101 22.6833 5.6101C22.6733 5.6101 22.6633 5.6101 22.6533 5.6001C22.6533 5.6001 22.6333 5.6001 22.6233 5.6001C22.6133 5.6001 22.6033 5.6001 22.5833 5.6001C22.5733 5.6001 22.5533 5.6001 22.5433 5.6001C22.5433 5.6001 22.5333 5.6001 22.5233 5.6001C22.5233 5.6001 22.5233 5.6001 22.5133 5.6001C22.4933 5.6001 22.4833 5.6001 22.4633 5.6101C22.4633 5.6101 22.4433 5.6101 22.4333 5.6101C22.4333 5.6101 22.4233 5.6101 22.4133 5.6101C22.4133 5.6101 22.4033 5.6101 22.3933 5.6101C22.3633 5.6201 22.3333 5.6401 22.3133 5.6501C22.2433 5.6901 22.1733 5.7401 22.1133 5.8101C22.0933 5.8301 22.0833 5.8501 22.0633 5.8601C22.0433 5.8801 22.0333 5.9001 22.0133 5.9201C22.0033 5.9401 21.9833 5.9601 21.9733 5.9701C21.9633 5.9901 21.9533 6.0001 21.9433 6.0201C21.9433 6.0201 21.9433 6.0301 21.9333 6.0401L15.7933 16.0601L17.1333 16.8401L23.2733 6.8201C23.3333 6.7301 23.3933 6.6501 23.4633 6.5801C23.5333 6.5101 23.6033 6.4601 23.6733 6.4201C23.7133 6.4001 23.7433 6.3801 23.7733 6.3701C23.7733 6.3701 23.7833 6.3701 23.7933 6.3701C23.8233 6.3601 23.8533 6.3501 23.8933 6.3501L23.8633 6.3701Z" fill="#7F7FF2" stroke="#2B2B2B" stroke-width="0.4" stroke-linecap="round" stroke-linejoin="round"/>
<mask id="mask0_1547_5472" style="mask-type:luminance" maskUnits="userSpaceOnUse" x="15" y="16" width="3" height="1">
<path d="M16.9833 16.9501L15.6433 16.1701C15.6433 16.1701 15.6833 16.1701 15.7033 16.1701C15.7233 16.1701 15.7433 16.1401 15.7633 16.1101L17.1033 16.8901C17.1033 16.8901 17.0733 16.9301 17.0433 16.9501C17.0133 16.9701 17.0033 16.9701 16.9833 16.9501Z" fill="white"/>
</mask>
<g mask="url(#mask0_1547_5472)">
<path d="M16.9833 16.9502L15.6433 16.1702L16.9833 16.9502Z" fill="#4F4F96"/>
<path d="M16.9833 16.9502L15.6433 16.1702L16.9933 16.9502H16.9833Z" fill="#51519B"/>
<path d="M16.9933 16.9502L15.6433 16.1702H15.6533L16.9933 16.9502Z" fill="#5454A0"/>
<path d="M16.9933 16.9502L15.6533 16.1702L17.0033 16.9502H16.9933Z" fill="#5656A5"/>
<path d="M17.0033 16.9502L15.6533 16.1702H15.6633L17.0033 16.9502Z" fill="#5959A9"/>
<path d="M17.0033 16.9502L15.6633 16.1702L17.0133 16.9502H17.0033Z" fill="#5B5BAE"/>
<path d="M17.0133 16.9502L15.6633 16.1702H15.6733L17.0133 16.9502Z" fill="#5E5EB3"/>
<path d="M17.0133 16.9502L15.6733 16.1702H15.6833L17.0233 16.9502H17.0133Z" fill="#6161B8"/>
<path d="M17.0233 16.9502L15.6833 16.1702H15.6933L17.0333 16.9502H17.0233Z" fill="#6363BD"/>
<path d="M17.0333 16.9501L15.6933 16.1701C15.6933 16.1701 15.6933 16.1701 15.7033 16.1701C15.7133 16.1701 15.7233 16.1601 15.7333 16.1501L17.0733 16.9301C17.0733 16.9301 17.0533 16.9501 17.0433 16.9501C17.0433 16.9501 17.0433 16.9501 17.0333 16.9501Z" fill="#6666C2"/>
<path d="M17.0733 16.9201L15.7333 16.1401L15.7433 16.1301L17.0833 16.9101L17.0733 16.9201Z" fill="#6363BD"/>
<path d="M17.0833 16.9101L15.7433 16.1301V16.1201L17.0933 16.9001L17.0833 16.9101Z" fill="#6161B8"/>
<path d="M17.0933 16.9001L15.7433 16.1201L15.7533 16.1101L17.0933 16.8901V16.9001Z" fill="#5E5EB3"/>
<path d="M17.0933 16.8901L15.7533 16.1101L15.7633 16.1001L17.1033 16.8801L17.0933 16.8901Z" fill="#5B5BAE"/>
</g>
<path d="M16.1333 18.3802L14.7933 17.6002L13.2333 16.6602L14.5833 17.4402L16.1333 18.3802Z" fill="#404079"/>
<path d="M14.1033 16.4101C14.1033 16.4101 14.1933 16.3301 14.2433 16.2901C14.2633 16.2701 14.2833 16.2501 14.3133 16.2301C14.3833 16.1801 14.4533 16.1301 14.5233 16.0901C14.6033 16.0501 14.6733 16.0101 14.7433 15.9901C14.7633 15.9901 14.7733 15.9801 14.7933 15.9701C14.8633 15.9501 14.9333 15.9301 14.9933 15.9201C14.9933 15.9201 15.0033 15.9201 15.0133 15.9201C15.0833 15.9201 15.1533 15.9201 15.2233 15.9201C15.2933 15.9301 15.3533 15.9601 15.4133 15.9901L14.0733 15.2101C14.0533 15.2001 14.0333 15.1901 14.0133 15.1801C13.9933 15.1801 13.9733 15.1601 13.9433 15.1601C13.9233 15.1601 13.9033 15.1601 13.8833 15.1501C13.8633 15.1501 13.8333 15.1501 13.8033 15.1501C13.7733 15.1501 13.7433 15.1501 13.7233 15.1501C13.7133 15.1501 13.6933 15.1501 13.6833 15.1501C13.6833 15.1501 13.6733 15.1501 13.6633 15.1501C13.6533 15.1501 13.6433 15.1501 13.6333 15.1501C13.5933 15.1501 13.5633 15.1601 13.5233 15.1701C13.5033 15.1701 13.4833 15.1801 13.4633 15.1901C13.4433 15.1901 13.4333 15.1901 13.4133 15.2101C13.3933 15.2101 13.3833 15.2101 13.3633 15.2301C13.3033 15.2501 13.2433 15.2801 13.1833 15.3201C13.1133 15.3601 13.0433 15.4101 12.9733 15.4601C12.9533 15.4801 12.9333 15.5001 12.9033 15.5201C12.8533 15.5601 12.8133 15.6001 12.7633 15.6401C12.7633 15.6401 12.7633 15.6401 12.7533 15.6501C12.7033 15.7001 12.6633 15.7501 12.6133 15.8001C12.6133 15.8001 12.6033 15.8201 12.5933 15.8201C12.5933 15.8201 12.5733 15.8401 12.5733 15.8501C12.5533 15.8701 12.5333 15.9001 12.5133 15.9201C12.4833 15.9601 12.4533 15.9901 12.4333 16.0301C12.4333 16.0301 12.4233 16.0501 12.4133 16.0601L13.7533 16.8401C13.8033 16.7601 13.8633 16.6901 13.9133 16.6201C13.9133 16.6201 13.9333 16.6001 13.9333 16.5901C13.9933 16.5301 14.0433 16.4701 14.1033 16.4101Z" fill="#2B2B2B" stroke="#2B2B2B" stroke-width="0.4" stroke-linecap="round" stroke-linejoin="round"/>
<path d="M23.6433 6.44999C23.8033 6.35999 23.9633 6.33999 24.0833 6.41999C24.3033 6.56999 24.2933 7.00999 24.0433 7.39999L17.9033 17.42C17.6633 17.81 17.3533 18.12 17.0433 18.3C16.7133 18.49 16.3833 18.53 16.1333 18.38L14.5733 17.44C14.5733 17.44 14.5333 17.44 14.5133 17.44C14.4933 17.45 14.4833 17.47 14.4633 17.49L6.91331 28.52C6.80331 28.68 6.68331 28.8 6.55331 28.87C6.37331 28.97 6.20331 28.98 6.08331 28.87C5.88331 28.69 5.93331 28.23 6.19331 27.85L13.7433 16.82C13.9733 16.49 14.2433 16.23 14.5133 16.07C14.8433 15.88 15.1833 15.84 15.4233 15.99L16.9833 16.93C16.9833 16.93 17.0233 16.93 17.0433 16.93C17.0633 16.93 17.0833 16.9 17.1033 16.87L23.2433 6.84999C23.3533 6.66999 23.5033 6.51999 23.6433 6.43999V6.44999Z" fill="white" stroke="#2B2B2B" stroke-width="0.4" stroke-linecap="round" stroke-linejoin="round"/>
<path d="M5.98331 28.7001C5.98331 28.7001 5.98331 28.6701 5.98331 28.6501C5.98331 28.6301 5.98331 28.6001 5.98331 28.5801C5.98331 28.5601 5.98331 28.5401 5.98331 28.5201C5.98331 28.4901 5.98331 28.4701 5.98331 28.4401C5.98331 28.4001 5.99331 28.3601 6.00331 28.3201C6.00331 28.3201 6.00331 28.3101 6.00331 28.3001C6.01331 28.2501 6.03331 28.2101 6.04331 28.1601C6.06331 28.1101 6.08331 28.0601 6.11331 28.0201C6.14331 27.9701 6.16331 27.9201 6.20331 27.8801L13.7533 16.8501L12.4133 16.0701L4.86331 27.1001C4.86331 27.1001 4.84331 27.1201 4.84331 27.1401C4.83331 27.1601 4.82331 27.1701 4.81331 27.1901C4.81331 27.2101 4.79331 27.2201 4.78331 27.2401C4.78331 27.2501 4.77331 27.2701 4.76331 27.2801C4.76331 27.3001 4.74331 27.3101 4.74331 27.3301C4.74331 27.3501 4.73331 27.3701 4.72331 27.3801C4.72331 27.4001 4.71331 27.4101 4.70331 27.4301C4.70331 27.4501 4.69331 27.4701 4.68331 27.4901C4.68331 27.4901 4.68331 27.5101 4.68331 27.5201C4.68331 27.5201 4.68331 27.5301 4.68331 27.5401C4.68331 27.5401 4.68331 27.5601 4.68331 27.5701C4.68331 27.6001 4.67331 27.6301 4.67331 27.6601C4.67331 27.6901 4.67331 27.7101 4.67331 27.7401C4.67331 27.7601 4.67331 27.7801 4.67331 27.8001C4.67331 27.8301 4.67331 27.8501 4.67331 27.8701C4.67331 27.8901 4.67331 27.9001 4.67331 27.9201C4.67331 27.9501 4.69331 27.9701 4.70331 27.9901C4.70331 28.0001 4.70331 28.0101 4.71331 28.0301C4.73331 28.0601 4.75331 28.0901 4.77331 28.1101C4.79331 28.1201 4.80331 28.1401 4.82331 28.1501L6.16331 28.9301C6.16331 28.9301 6.13331 28.9101 6.11331 28.8901C6.08331 28.8701 6.06331 28.8401 6.05331 28.8101C6.05331 28.8001 6.05331 28.7901 6.04331 28.7701C6.04331 28.7501 6.02331 28.7301 6.01331 28.7001H5.98331Z" fill="#D9D9FA" stroke="#2B2B2B" stroke-width="0.4" stroke-linecap="round" stroke-linejoin="round"/>
<path d="M31.5333 35.31L31.4633 9.99995L28.8033 8.44995L28.8733 33.7599C28.8733 34.0999 28.9933 34.34 29.1833 34.45L31.8433 36C31.6533 35.8899 31.5333 35.65 31.5333 35.31Z" fill="white" stroke="#2B2B2B" stroke-width="0.4" stroke-linecap="round" stroke-linejoin="round"/>
<path d="M37.9633 5.02995C38.0233 5.00995 38.0833 4.99995 38.1433 4.98995C38.1433 4.98995 38.1533 4.98995 38.1633 4.98995C38.2233 4.98995 38.2833 4.98995 38.3333 4.98995C38.3933 4.99995 38.4433 5.01995 38.4833 5.04995L35.8233 3.49995C35.8233 3.49995 35.7833 3.47995 35.7733 3.46995C35.7533 3.46995 35.7333 3.45995 35.7133 3.44995C35.7033 3.44995 35.6833 3.44995 35.6733 3.44995C35.6733 3.44995 35.6733 3.44995 35.6633 3.44995C35.6433 3.44995 35.6233 3.44995 35.6033 3.44995C35.5833 3.44995 35.5533 3.44995 35.5333 3.44995H35.5133C35.5133 3.44995 35.5033 3.44995 35.4933 3.44995C35.4833 3.44995 35.4633 3.44995 35.4533 3.44995C35.4233 3.44995 35.3933 3.45995 35.3633 3.46995C35.3533 3.46995 35.3333 3.46995 35.3233 3.47995C35.3133 3.47995 35.3033 3.47995 35.2833 3.48995C35.2633 3.48995 35.2533 3.48995 35.2333 3.50995C35.1833 3.52995 35.1333 3.54995 35.0833 3.57995L29.8833 6.57995L32.5433 8.12995L37.7433 5.12995C37.8133 5.08995 37.8733 5.05995 37.9433 5.03995C37.9533 5.03995 37.9733 5.03995 37.9833 5.02995H37.9633Z" fill="white" stroke="#2B2B2B" stroke-width="0.4" stroke-linecap="round" stroke-linejoin="round"/>
<path d="M31.4833 9.71011C31.4933 9.63011 31.5133 9.55011 31.5333 9.48011C31.5333 9.48011 31.5333 9.47011 31.5333 9.46011C31.5633 9.38011 31.5933 9.29011 31.6233 9.21011C31.6633 9.12011 31.7033 9.04011 31.7533 8.96011C31.8033 8.88011 31.8533 8.80011 31.9033 8.73011C31.9033 8.73011 31.9033 8.72011 31.9133 8.71011C31.9633 8.64011 32.0133 8.58011 32.0733 8.52011C32.0833 8.51011 32.0933 8.49011 32.1133 8.48011C32.1533 8.43011 32.2033 8.39011 32.2433 8.35011C32.2633 8.33011 32.2833 8.31011 32.3033 8.30011C32.3733 8.25011 32.4333 8.20011 32.5033 8.16011L29.8433 6.61011C29.7733 6.65011 29.7033 6.70011 29.6433 6.75011C29.6233 6.77011 29.6033 6.79011 29.5833 6.80011C29.5533 6.83011 29.5233 6.85011 29.4933 6.88011C29.4833 6.89011 29.4633 6.91011 29.4533 6.92011C29.4433 6.93011 29.4333 6.94011 29.4133 6.96011C29.4033 6.97011 29.3833 6.99011 29.3733 7.00011C29.3433 7.03011 29.3133 7.07011 29.2833 7.11011C29.2733 7.12011 29.2633 7.14011 29.2533 7.15011C29.2533 7.15011 29.2533 7.16011 29.2433 7.17011C29.2433 7.18011 29.2233 7.19011 29.2133 7.21011C29.1933 7.24011 29.1733 7.27011 29.1533 7.30011C29.1333 7.33011 29.1133 7.36011 29.0933 7.39011C29.0833 7.41011 29.0633 7.44011 29.0533 7.46011C29.0333 7.49011 29.0233 7.52011 29.0033 7.55011C28.9933 7.58011 28.9733 7.61011 28.9633 7.64011C28.9533 7.67011 28.9333 7.70011 28.9233 7.74011C28.9133 7.77011 28.8933 7.81011 28.8833 7.84011C28.8833 7.86011 28.8733 7.87011 28.8633 7.89011C28.8633 7.89011 28.8633 7.90011 28.8633 7.91011C28.8633 7.92011 28.8633 7.93011 28.8533 7.95011C28.8433 7.99011 28.8333 8.03011 28.8233 8.07011C28.8233 8.10011 28.8233 8.12011 28.8133 8.14011C28.8133 8.15011 28.8133 8.17011 28.8133 8.18011C28.8133 8.19011 28.8133 8.20011 28.8133 8.22011C28.8133 8.29011 28.8033 8.36011 28.8033 8.43011L31.4633 9.98011C31.4633 9.90011 31.4633 9.82011 31.4833 9.73011C31.4833 9.72011 31.4833 9.70011 31.4833 9.69011V9.71011Z" fill="#2B2B2B" stroke="#2B2B2B" stroke-width="0.4" stroke-linecap="round" stroke-linejoin="round"/>
<path d="M37.7333 5.13995C38.3233 4.79995 38.8033 5.06995 38.8033 5.74995L38.8733 31.06C38.8733 31.74 38.3933 32.57 37.8033 32.91L32.6033 35.91C32.0133 36.25 31.5333 35.98 31.5333 35.3L31.4633 9.98995C31.4633 9.30995 31.9433 8.47995 32.5333 8.13995L37.7333 5.13995Z" fill="#D9D9FA" stroke="#2B2B2B" stroke-width="0.4" stroke-linecap="round" stroke-linejoin="round"/>
<path d="M20.6633 40.8301L20.6133 22.8801L17.9533 21.3301L18.0033 39.2801C18.0033 39.6201 18.1233 39.8601 18.3133 39.9701L20.9733 41.5201C20.7833 41.4101 20.6633 41.1701 20.6633 40.8301Z" fill="white" stroke="#2B2B2B" stroke-width="0.4" stroke-linecap="round" stroke-linejoin="round"/>
<path d="M27.2933 17.8801C27.2933 17.8801 27.3033 17.8801 27.3133 17.8801C27.3733 17.8801 27.4333 17.8801 27.4833 17.8801C27.5433 17.8901 27.5933 17.9101 27.6333 17.9401L24.9733 16.3901C24.9533 16.3901 24.9333 16.3701 24.9233 16.3601C24.9033 16.3601 24.8833 16.3501 24.8633 16.3401C24.8533 16.3401 24.8333 16.3401 24.8233 16.3401C24.8233 16.3401 24.8233 16.3401 24.8133 16.3401C24.7933 16.3401 24.7733 16.3401 24.7533 16.3401C24.7333 16.3401 24.7033 16.3401 24.6833 16.3401H24.6633C24.6633 16.3401 24.6533 16.3401 24.6433 16.3401C24.6333 16.3401 24.6133 16.3401 24.6033 16.3401C24.5733 16.3401 24.5433 16.3501 24.5133 16.3601C24.5033 16.3601 24.4833 16.3601 24.4733 16.3701C24.4633 16.3701 24.4433 16.3701 24.4333 16.3801C24.4133 16.3801 24.4033 16.3801 24.3833 16.4001C24.3333 16.4201 24.2833 16.4501 24.2333 16.4701L19.0333 19.4701L21.6933 21.0201L26.8933 18.0201C26.9633 17.9801 27.0233 17.9501 27.0933 17.9301C27.1033 17.9301 27.1133 17.9301 27.1333 17.9201C27.1933 17.9001 27.2533 17.8901 27.3133 17.8801H27.2933Z" fill="white"/>
<path d="M27.3133 17.8801C27.3033 17.8801 27.2933 17.8801 27.2933 17.8801H27.3133ZM27.3133 17.8801C27.3733 17.8801 27.4333 17.8801 27.4833 17.8801C27.5433 17.8901 27.5933 17.9101 27.6333 17.9401L24.9733 16.3901C24.9533 16.3901 24.9333 16.3701 24.9233 16.3601C24.9033 16.3601 24.8833 16.3501 24.8633 16.3401C24.8533 16.3401 24.8333 16.3401 24.8233 16.3401C24.8233 16.3401 24.8233 16.3401 24.8133 16.3401C24.7933 16.3401 24.7733 16.3401 24.7533 16.3401C24.7333 16.3401 24.7033 16.3401 24.6833 16.3401H24.6633C24.6633 16.3401 24.6533 16.3401 24.6433 16.3401C24.6333 16.3401 24.6133 16.3401 24.6033 16.3401C24.5733 16.3401 24.5433 16.3501 24.5133 16.3601C24.5033 16.3601 24.4833 16.3601 24.4733 16.3701C24.4633 16.3701 24.4433 16.3701 24.4333 16.3801C24.4133 16.3801 24.4033 16.3801 24.3833 16.4001C24.3333 16.4201 24.2833 16.4501 24.2333 16.4701L19.0333 19.4701L21.6933 21.0201L26.8933 18.0201C26.9633 17.9801 27.0233 17.9501 27.0933 17.9301C27.1033 17.9301 27.1133 17.9301 27.1333 17.9201C27.1933 17.9001 27.2533 17.8901 27.3133 17.8801Z" stroke="#2B2B2B" stroke-width="0.4" stroke-linecap="round" stroke-linejoin="round"/>
<path d="M26.8833 18.0201C27.4733 17.6801 27.9533 17.9501 27.9533 18.6301L28.0033 36.5801C28.0033 37.2601 27.5233 38.0901 26.9333 38.4301L21.7333 41.4301C21.1433 41.7701 20.6633 41.5001 20.6633 40.8201L20.6133 22.8701C20.6133 22.1901 21.0933 21.3601 21.6833 21.0201L26.8833 18.0201Z" fill="#7F7FF2" stroke="#2B2B2B" stroke-width="0.4" stroke-linecap="round" stroke-linejoin="round"/>
<path d="M20.6333 22.59C20.6433 22.51 20.6633 22.43 20.6833 22.36C20.6833 22.36 20.6833 22.35 20.6833 22.34C20.7133 22.26 20.7433 22.17 20.7733 22.09C20.8133 22 20.8533 21.92 20.9033 21.84C20.9533 21.76 21.0033 21.68 21.0533 21.61C21.0533 21.61 21.0533 21.6 21.0633 21.59C21.1133 21.52 21.1633 21.46 21.2233 21.4C21.2333 21.39 21.2433 21.37 21.2633 21.36C21.3033 21.31 21.3533 21.27 21.3933 21.23C21.4133 21.21 21.4333 21.19 21.4533 21.18C21.5233 21.13 21.5833 21.08 21.6533 21.04L18.9933 19.49C18.9233 19.53 18.8533 19.58 18.7933 19.63C18.7733 19.65 18.7533 19.67 18.7333 19.68C18.7033 19.71 18.6733 19.73 18.6433 19.76C18.6333 19.77 18.6133 19.79 18.6033 19.8C18.5933 19.81 18.5833 19.82 18.5633 19.84C18.5533 19.85 18.5333 19.87 18.5233 19.88C18.4933 19.91 18.4633 19.95 18.4333 19.99C18.4233 20 18.4133 20.02 18.4033 20.03C18.4033 20.03 18.4033 20.04 18.3933 20.05C18.3933 20.06 18.3733 20.07 18.3633 20.09C18.3433 20.12 18.3233 20.15 18.3033 20.18C18.2833 20.21 18.2633 20.24 18.2433 20.27C18.2333 20.29 18.2133 20.32 18.2033 20.34C18.1833 20.37 18.1733 20.4 18.1533 20.43C18.1433 20.46 18.1233 20.49 18.1133 20.52C18.1033 20.55 18.0833 20.58 18.0733 20.62C18.0633 20.65 18.0433 20.69 18.0333 20.72C18.0333 20.74 18.0233 20.75 18.0133 20.77C18.0133 20.77 18.0133 20.78 18.0133 20.79C18.0133 20.8 18.0133 20.81 18.0033 20.83C17.9933 20.87 17.9833 20.91 17.9733 20.95C17.9733 20.98 17.9733 21 17.9633 21.03C17.9633 21.04 17.9633 21.06 17.9633 21.07C17.9633 21.08 17.9633 21.09 17.9633 21.11C17.9633 21.18 17.9533 21.25 17.9533 21.32L20.6133 22.87C20.6133 22.79 20.6133 22.71 20.6333 22.62C20.6333 22.61 20.6333 22.59 20.6333 22.58V22.59Z" fill="#2B2B2B" stroke="#2B2B2B" stroke-width="0.4" stroke-linecap="round" stroke-linejoin="round"/>
<path d="M10.0733 47.46L10.0533 38.83L7.39331 37.28L7.41331 45.91C7.41331 46.25 7.53331 46.49 7.72331 46.6L10.3833 48.15C10.1933 48.04 10.0733 47.8 10.0733 47.46Z" fill="#D9D9FA" stroke="#2B2B2B" stroke-width="0.4" stroke-linecap="round" stroke-linejoin="round"/>
<path d="M16.5533 33.87C16.6133 33.85 16.6733 33.84 16.7333 33.83C16.7333 33.83 16.7433 33.83 16.7533 33.83C16.8133 33.83 16.8733 33.83 16.9233 33.83C16.9833 33.84 17.0333 33.86 17.0733 33.89L14.4133 32.34C14.3933 32.34 14.3733 32.32 14.3633 32.31C14.3433 32.31 14.3233 32.3 14.3033 32.29C14.2933 32.29 14.2733 32.29 14.2633 32.29C14.2633 32.29 14.2633 32.29 14.2533 32.29C14.2333 32.29 14.2133 32.29 14.1933 32.29C14.1733 32.29 14.1433 32.29 14.1233 32.29H14.1033C14.1033 32.29 14.0933 32.29 14.0833 32.29C14.0733 32.29 14.0533 32.29 14.0433 32.29C14.0133 32.29 13.9833 32.3 13.9533 32.31C13.9433 32.31 13.9233 32.31 13.9133 32.32C13.9033 32.32 13.8833 32.32 13.8733 32.33C13.8533 32.33 13.8433 32.33 13.8233 32.35C13.7733 32.37 13.7233 32.4 13.6733 32.42L8.47331 35.42L11.1333 36.97L16.3333 33.97C16.4033 33.93 16.4633 33.9 16.5333 33.88C16.5433 33.88 16.5533 33.88 16.5733 33.87H16.5533Z" fill="#7F7FF2" stroke="#2B2B2B" stroke-width="0.4" stroke-linecap="round" stroke-linejoin="round"/>
<path d="M16.3133 33.97C16.9033 33.63 17.3833 33.9 17.3833 34.58L17.4033 43.21C17.4033 43.89 16.9233 44.72 16.3333 45.06L11.1333 48.06C10.5433 48.4 10.0633 48.13 10.0633 47.45L10.0433 38.82C10.0433 38.14 10.5233 37.31 11.1133 36.97L16.3133 33.97Z" fill="white" stroke="#2B2B2B" stroke-width="0.4" stroke-linecap="round" stroke-linejoin="round"/>
<path d="M10.0733 38.5399C10.0833 38.4599 10.1033 38.3799 10.1233 38.3099C10.1233 38.3099 10.1233 38.2999 10.1233 38.2899C10.1533 38.1999 10.1833 38.1199 10.2133 38.0399C10.2533 37.9499 10.2933 37.8699 10.3433 37.7899C10.3933 37.7099 10.4433 37.6299 10.4933 37.5599C10.4933 37.5599 10.4933 37.5499 10.5033 37.5399C10.5533 37.4699 10.6033 37.4099 10.6633 37.3499C10.6733 37.3399 10.6833 37.3199 10.7033 37.3099C10.7433 37.2599 10.7933 37.2199 10.8433 37.1799C10.8633 37.1599 10.8833 37.1399 10.9033 37.1299C10.9733 37.0799 11.0333 37.0299 11.1033 36.9899L8.44331 35.4399C8.37331 35.4799 8.30331 35.5299 8.24331 35.5799C8.22331 35.5999 8.20331 35.6199 8.18331 35.6299C8.15331 35.6599 8.12331 35.6799 8.09331 35.7099C8.08331 35.7199 8.06331 35.7399 8.05331 35.7499C8.04331 35.7599 8.03331 35.7699 8.01331 35.7899C8.00331 35.7999 7.98331 35.8199 7.97331 35.8299C7.94331 35.8599 7.91331 35.8999 7.88331 35.9399C7.87331 35.9499 7.86331 35.9699 7.85331 35.9799C7.85331 35.9799 7.85331 35.9899 7.84331 35.9999C7.84331 36.0099 7.82331 36.0199 7.81331 36.0399C7.79331 36.0699 7.77331 36.0999 7.75331 36.1299C7.73331 36.1599 7.71331 36.1899 7.69331 36.2199C7.68331 36.2399 7.66331 36.2699 7.65331 36.2899C7.63331 36.3199 7.62331 36.3499 7.60331 36.3799C7.59331 36.4099 7.57331 36.4399 7.56331 36.4699C7.55331 36.4999 7.53331 36.5299 7.52331 36.5699C7.51331 36.5999 7.49331 36.6399 7.48331 36.6699C7.48331 36.6899 7.47331 36.6999 7.46331 36.7199C7.46331 36.7199 7.46331 36.7299 7.46331 36.7399C7.46331 36.7499 7.46331 36.7599 7.45331 36.7799C7.44331 36.8199 7.43331 36.8599 7.42331 36.8999C7.42331 36.9299 7.42331 36.9499 7.41331 36.9699C7.41331 36.9799 7.41331 36.9999 7.41331 37.0099C7.41331 37.0199 7.41331 37.0299 7.41331 37.0499C7.41331 37.1199 7.40331 37.1899 7.40331 37.2599L10.0633 38.8099C10.0633 38.7299 10.0633 38.6499 10.0833 38.5599C10.0833 38.5499 10.0833 38.5299 10.0833 38.5199L10.0733 38.5399Z" fill="#2B2B2B" stroke="#2B2B2B" stroke-width="0.4" stroke-linecap="round" stroke-linejoin="round"/>
<path d="M26.5233 1.29999C26.4533 1.27999 26.3733 1.27999 26.2933 1.26999C26.2733 1.26999 26.2633 1.26999 26.2433 1.26999C26.1633 1.26999 26.0933 1.26999 26.0133 1.26999C26.0133 1.26999 25.9933 1.26999 25.9833 1.26999C25.9033 1.26999 25.8133 1.28999 25.7233 1.30999C25.7233 1.30999 25.7033 1.30999 25.6933 1.30999C25.6033 1.32999 25.5133 1.34999 25.4233 1.38999C25.4233 1.38999 25.4133 1.38999 25.4033 1.38999C25.3033 1.41999 25.2133 1.45999 25.1133 1.50999C25.1133 1.50999 25.1033 1.50999 25.0933 1.50999C24.9933 1.55999 24.8933 1.60999 24.7933 1.66999L22.9733 0.60999C22.9733 0.60999 23.0433 0.56999 23.0733 0.55999C23.1133 0.53999 23.1533 0.51999 23.2033 0.48999C23.2333 0.47999 23.2533 0.45999 23.2833 0.44999C23.2833 0.44999 23.2933 0.44999 23.3033 0.44999C23.3033 0.44999 23.3233 0.44999 23.3233 0.43999C23.3633 0.41999 23.4033 0.39999 23.4433 0.38999C23.4833 0.36999 23.5233 0.35999 23.5633 0.33999C23.5633 0.33999 23.5733 0.33999 23.5833 0.33999C23.5833 0.33999 23.5933 0.33999 23.6033 0.33999C23.6333 0.33999 23.6633 0.31999 23.6833 0.30999C23.7233 0.29999 23.7733 0.28999 23.8133 0.26999C23.8333 0.26999 23.8533 0.26999 23.8733 0.25999C23.8733 0.25999 23.8933 0.25999 23.9033 0.25999C23.9133 0.25999 23.9333 0.25999 23.9433 0.25999C23.9933 0.25999 24.0333 0.23999 24.0733 0.23999C24.1033 0.23999 24.1233 0.23999 24.1533 0.23999C24.1533 0.23999 24.1733 0.23999 24.1833 0.23999C24.1933 0.23999 24.2033 0.23999 24.2133 0.23999C24.2633 0.23999 24.3133 0.23999 24.3533 0.23999C24.3733 0.23999 24.3933 0.23999 24.4133 0.23999C24.4333 0.23999 24.4433 0.23999 24.4633 0.23999C24.4833 0.23999 24.4933 0.23999 24.5133 0.23999C24.5733 0.23999 24.6333 0.24999 24.6933 0.26999C24.7033 0.26999 24.7133 0.26999 24.7333 0.27999C24.7933 0.28999 24.8533 0.30999 24.9033 0.32999C24.9033 0.32999 24.9033 0.32999 24.9133 0.32999C24.9933 0.35999 25.0733 0.39999 25.1533 0.43999L26.9733 1.49999C26.9033 1.45999 26.8233 1.41999 26.7333 1.38999C26.6733 1.36999 26.6133 1.34999 26.5433 1.33999C26.5333 1.33999 26.5233 1.33999 26.5033 1.32999L26.5233 1.29999Z" fill="#2B2B2B" stroke="#2B2B2B" stroke-width="0.4" stroke-linecap="round" stroke-linejoin="round"/>
<path d="M19.9133 5.80991C19.9133 5.80991 19.9133 5.70991 19.9133 5.65991C19.9133 5.63991 19.9133 5.60991 19.9133 5.58991C19.9133 5.57991 19.9133 5.56991 19.9133 5.55991C19.9133 5.53991 19.9133 5.52991 19.9133 5.50991C19.9133 5.45991 19.9233 5.40991 19.9333 5.35991C19.9333 5.30991 19.9433 5.25991 19.9533 5.20991C19.9533 5.15991 19.9733 5.10991 19.9833 5.05991C19.9933 5.00991 20.0033 4.94991 20.0133 4.89991C20.0133 4.87991 20.0133 4.85991 20.0233 4.83991C20.0233 4.82991 20.0233 4.81991 20.0233 4.80991C20.0233 4.78991 20.0333 4.75991 20.0433 4.73991C20.0533 4.68991 20.0733 4.62991 20.0833 4.57991C20.0933 4.53991 20.1033 4.49991 20.1133 4.45991C20.1133 4.45991 20.1133 4.44991 20.1133 4.43991C20.1133 4.42991 20.1133 4.42991 20.1133 4.41991C20.1333 4.36991 20.1433 4.30991 20.1633 4.25991C20.1833 4.20991 20.2033 4.15991 20.2133 4.09991C20.2133 4.09991 20.2133 4.07991 20.2233 4.06991V4.04991C20.2333 4.01991 20.2433 3.97991 20.2633 3.94991C20.2833 3.89991 20.3033 3.84991 20.3233 3.79991C20.3333 3.75991 20.3533 3.72991 20.3733 3.68991C20.3733 3.68991 20.3733 3.67991 20.3733 3.66991C20.3733 3.66991 20.3733 3.65991 20.3733 3.64991C20.3933 3.59991 20.4133 3.54991 20.4433 3.49991C20.4733 3.44991 20.4933 3.38991 20.5233 3.33991C20.5233 3.33991 20.5233 3.31991 20.5333 3.31991C20.5333 3.30991 20.5433 3.29991 20.5533 3.28991C20.5733 3.24991 20.5933 3.19991 20.6233 3.15991C20.6533 3.10991 20.6833 3.05991 20.7133 2.99991C20.7333 2.96991 20.7433 2.94991 20.7633 2.91991C20.7633 2.90991 20.7733 2.89991 20.7833 2.88991C20.8133 2.83991 20.8433 2.79991 20.8633 2.75991C20.9033 2.68991 20.9433 2.62991 20.9933 2.55991C20.9933 2.54991 21.0033 2.53991 21.0133 2.52991C21.0733 2.43991 21.1333 2.34991 21.1933 2.26991C21.1933 2.26991 21.1933 2.26991 21.1933 2.25991C21.2333 2.19991 21.2833 2.13991 21.3333 2.07991C21.3733 2.02991 21.4033 1.98991 21.4433 1.93991C21.4833 1.88991 21.5233 1.84991 21.5633 1.79991C21.6033 1.75991 21.6433 1.70991 21.6833 1.66991C21.6833 1.66991 21.6933 1.65991 21.7033 1.64991C21.7033 1.64991 21.7133 1.63991 21.7233 1.62991C21.7533 1.59991 21.7833 1.56991 21.8133 1.53991C21.8533 1.49991 21.9033 1.44991 21.9433 1.40991C21.9533 1.39991 21.9733 1.38991 21.9833 1.36991C21.9933 1.36991 22.0033 1.34991 22.0133 1.33991C22.0333 1.31991 22.0533 1.29991 22.0733 1.27991C22.1233 1.23991 22.1633 1.19991 22.2133 1.15991C22.2333 1.13991 22.2533 1.12991 22.2733 1.10991C22.2833 1.10991 22.2933 1.08991 22.3033 1.07991C22.3233 1.06991 22.3333 1.04991 22.3533 1.03991C22.3933 0.999912 22.4433 0.969912 22.4833 0.939912C22.5133 0.919912 22.5533 0.889912 22.5833 0.869912C22.5833 0.869912 22.5933 0.869912 22.6033 0.859912C22.6033 0.859912 22.6133 0.859912 22.6233 0.849912C22.6633 0.819912 22.7133 0.789912 22.7533 0.759912C22.7933 0.729912 22.8433 0.709912 22.8833 0.679912C22.8933 0.679912 22.9033 0.669912 22.9133 0.659912L24.7333 1.71991C24.6333 1.77991 24.5233 1.84991 24.4233 1.91991C24.4233 1.91991 24.4133 1.91991 24.4033 1.92991C24.3133 1.99991 24.2133 2.06991 24.1233 2.13991C24.1133 2.13991 24.1033 2.15991 24.0933 2.16991C24.0033 2.23991 23.9133 2.31991 23.8333 2.39991C23.8233 2.39991 23.8133 2.41991 23.8033 2.42991C23.7133 2.50991 23.6333 2.59991 23.5433 2.68991C23.5433 2.68991 23.5333 2.69991 23.5233 2.70991C23.4333 2.79991 23.3433 2.89991 23.2633 2.99991C23.1733 3.09991 23.0933 3.20991 23.0133 3.31991C23.0133 3.31991 23.0133 3.31991 23.0133 3.32991C22.9433 3.42991 22.8733 3.51991 22.8133 3.61991C22.7733 3.68991 22.7333 3.74991 22.6833 3.81991C22.6533 3.87991 22.6133 3.92991 22.5833 3.98991C22.5633 4.01991 22.5533 4.03991 22.5333 4.06991C22.4833 4.15991 22.4233 4.25991 22.3833 4.35991C22.3833 4.36991 22.3733 4.37991 22.3633 4.38991C22.3033 4.50991 22.2433 4.62991 22.1933 4.74991C22.1933 4.74991 22.1933 4.75991 22.1933 4.76991C22.1433 4.88991 22.0933 5.00991 22.0533 5.11991V5.13991C22.0133 5.25991 21.9633 5.37991 21.9333 5.50991C21.9333 5.50991 21.9333 5.51991 21.9333 5.52991C21.8933 5.64991 21.8633 5.76991 21.8433 5.87991C21.8433 5.88991 21.8433 5.89991 21.8433 5.90991C21.8133 6.02991 21.7933 6.14991 21.7733 6.26991C21.7533 6.38991 21.7433 6.50991 21.7333 6.62991V6.65991C21.7233 6.77991 21.7133 6.89991 21.7133 7.01991C21.7133 7.13991 21.7133 7.24991 21.7333 7.35991C21.7333 7.35991 21.7333 7.37991 21.7333 7.38991C21.7433 7.48991 21.7533 7.58991 21.7733 7.67991C21.7733 7.68991 21.7733 7.69991 21.7733 7.71991C21.7933 7.80991 21.8133 7.88991 21.8433 7.97991C21.8433 7.99991 21.8533 8.00991 21.8633 8.02991C21.8933 8.10991 21.9133 8.17991 21.9533 8.24991V8.26991C21.9933 8.34991 22.0333 8.41991 22.0733 8.48991C22.1333 8.58991 22.2133 8.66991 22.2833 8.74991C22.3033 8.76991 22.3233 8.78991 22.3433 8.80991C22.4233 8.87991 22.5133 8.94991 22.6033 9.00991L20.7833 7.94991C20.6933 7.89991 20.6033 7.82991 20.5233 7.74991C20.5033 7.72991 20.4833 7.70991 20.4633 7.68991C20.3833 7.60991 20.3133 7.51991 20.2533 7.42991C20.2133 7.35991 20.1733 7.28991 20.1333 7.21991V7.19991C20.1133 7.14991 20.0933 7.10991 20.0733 7.04991C20.0733 7.02991 20.0533 6.99991 20.0533 6.96991C20.0533 6.94991 20.0433 6.93991 20.0333 6.91991C20.0333 6.90991 20.0333 6.88991 20.0233 6.87991C20.0033 6.82991 19.9933 6.77991 19.9833 6.71991C19.9833 6.69991 19.9833 6.67991 19.9733 6.65991C19.9733 6.64991 19.9733 6.63991 19.9733 6.61991C19.9733 6.59991 19.9733 6.57991 19.9633 6.55991C19.9633 6.50991 19.9433 6.45991 19.9433 6.40991C19.9433 6.37991 19.9433 6.34991 19.9433 6.32991C19.9433 6.32991 19.9433 6.30991 19.9433 6.29991C19.9433 6.28991 19.9433 6.27991 19.9433 6.25991C19.9433 6.20991 19.9433 6.15991 19.9433 6.11991C19.9433 6.06991 19.9433 6.01991 19.9433 5.96991C19.9433 5.91991 19.9433 5.86991 19.9433 5.81991L19.9133 5.80991Z" fill="white" stroke="#2B2B2B" stroke-width="0.4" stroke-linecap="round" stroke-linejoin="round"/>
<path d="M24.7933 1.68996C23.0933 2.66996 21.7233 5.04996 21.7233 6.99996C21.7233 8.94996 23.1133 9.73996 24.8133 8.75996C26.5133 7.77996 27.8833 5.39996 27.8833 3.44996C27.8833 1.49996 26.4933 0.70996 24.7933 1.68996Z" fill="#7F7FF2" stroke="#2B2B2B" stroke-width="0.4" stroke-linecap="round" stroke-linejoin="round"/>
<path d="M32.0433 36.47V43.23C29.4233 42.4 27.6433 40.78 27.6433 38.92C27.6433 38.9 27.6433 38.87 27.6433 38.85V36.47H32.0433Z" fill="#2B2B2B" stroke="#2B2B2B" stroke-width="0.4" stroke-linecap="round" stroke-linejoin="round"/>
<path d="M44.5333 38.85C44.5333 38.85 44.5333 38.9 44.5333 38.92C44.5333 41.63 40.7533 43.83 36.0933 43.83C34.6233 43.83 33.2533 43.61 32.0533 43.23V36.47H44.5433V38.85H44.5333Z" fill="white" stroke="#2B2B2B" stroke-width="0.4" stroke-linecap="round" stroke-linejoin="round"/>
<path d="M36.0833 41.4201C40.7446 41.4201 44.5233 39.2173 44.5233 36.5001C44.5233 33.7828 40.7446 31.5801 36.0833 31.5801C31.422 31.5801 27.6433 33.7828 27.6433 36.5001C27.6433 39.2173 31.422 41.4201 36.0833 41.4201Z" fill="#D9D9FA" stroke="#2B2B2B" stroke-width="0.4" stroke-linecap="round" stroke-linejoin="round"/>
<path d="M36.0833 40.1701C39.5682 40.1701 42.3933 38.527 42.3933 36.5001C42.3933 34.4732 39.5682 32.8301 36.0833 32.8301C32.5984 32.8301 29.7733 34.4732 29.7733 36.5001C29.7733 38.527 32.5984 40.1701 36.0833 40.1701Z" fill="white" stroke="#2B2B2B" stroke-width="0.4" stroke-linecap="round" stroke-linejoin="round"/>
<mask id="mask1_1547_5472" style="mask-type:luminance" maskUnits="userSpaceOnUse" x="32" y="34" width="8" height="5">
<path d="M36.4633 38.4L32.7333 36.23L35.6833 34.52L39.4133 36.69L36.4633 38.4Z" fill="white"/>
</mask>
<g mask="url(#mask1_1547_5472)">
<path d="M35.6833 34.52L32.7333 36.22L33.2633 36.53L34.6533 35.73C34.7833 35.65 34.9233 35.6 35.0833 35.57C35.2433 35.54 35.3933 35.54 35.5433 35.57C35.6133 35.57 35.6833 35.6 35.7433 35.62L33.7133 36.79L34.1033 37.02L36.1433 35.84C36.1433 35.84 36.2133 35.92 36.2233 35.96C36.2633 36.05 36.2533 36.13 36.2133 36.23C36.1633 36.32 36.0733 36.4 35.9433 36.48L34.5533 37.28L35.0833 37.59L38.3133 37.35L39.1933 36.84L35.9933 37.06L36.4533 36.8C36.7133 36.65 36.8833 36.5 36.9833 36.33C37.0833 36.16 37.0933 36 37.0333 35.84C36.9833 35.72 36.8933 35.61 36.7533 35.5L37.0633 35.32L36.6733 35.09L36.3633 35.27C36.2333 35.21 36.1033 35.17 35.9633 35.14C35.8133 35.11 35.6733 35.09 35.5233 35.09L36.1033 34.76L35.7133 34.54" fill="#2B2B2B"/>
</g>
<path d="M27.6433 36.47V38.85C27.6433 38.85 27.6433 38.9 27.6433 38.92C27.6433 41.64 31.4233 43.84 36.0833 43.84C40.7433 43.84 44.5233 41.64 44.5233 38.92C44.5233 38.9 44.5233 38.87 44.5233 38.85V36.47" stroke="#2B2B2B" stroke-width="0.4" stroke-linecap="round" stroke-linejoin="round"/>
<path d="M34.1133 34.22V40.98C31.4933 40.15 29.7133 38.53 29.7133 36.67C29.7133 36.65 29.7133 36.62 29.7133 36.6V34.22H34.1133Z" fill="#2B2B2B" stroke="#2B2B2B" stroke-width="0.4" stroke-linecap="round" stroke-linejoin="round"/>
<path d="M46.6033 36.6C46.6033 36.6 46.6033 36.65 46.6033 36.67C46.6033 39.38 42.8233 41.58 38.1633 41.58C36.6933 41.58 35.3233 41.36 34.1233 40.98V34.22H46.6133V36.6H46.6033Z" fill="white" stroke="#2B2B2B" stroke-width="0.4" stroke-linecap="round" stroke-linejoin="round"/>
<path d="M38.1533 39.1801C42.8146 39.1801 46.5933 36.9773 46.5933 34.2601C46.5933 31.5428 42.8146 29.3401 38.1533 29.3401C33.492 29.3401 29.7133 31.5428 29.7133 34.2601C29.7133 36.9773 33.492 39.1801 38.1533 39.1801Z" fill="#D9D9FA" stroke="#2B2B2B" stroke-width="0.4" stroke-linecap="round" stroke-linejoin="round"/>
<path d="M38.1533 37.9301C41.6382 37.9301 44.4633 36.287 44.4633 34.2601C44.4633 32.2332 41.6382 30.5901 38.1533 30.5901C34.6684 30.5901 31.8433 32.2332 31.8433 34.2601C31.8433 36.287 34.6684 37.9301 38.1533 37.9301Z" fill="white" stroke="#2B2B2B" stroke-width="0.4" stroke-linecap="round" stroke-linejoin="round"/>
<mask id="mask2_1547_5472" style="mask-type:luminance" maskUnits="userSpaceOnUse" x="34" y="32" width="8" height="5">
<path d="M38.5433 36.15L34.8133 33.98L37.7633 32.28L41.4933 34.45L38.5433 36.15Z" fill="white"/>
</mask>
<g mask="url(#mask2_1547_5472)">
<path d="M37.7633 32.28L34.8133 33.98L35.3433 34.29L36.7233 33.49C36.8533 33.41 36.9933 33.36 37.1533 33.33C37.3133 33.3 37.4633 33.3 37.6133 33.33C37.6833 33.34 37.7533 33.36 37.8233 33.38L35.7933 34.55L36.1833 34.77L38.2133 33.6C38.2133 33.6 38.2833 33.68 38.2933 33.72C38.3333 33.81 38.3233 33.89 38.2833 33.99C38.2333 34.08 38.1533 34.16 38.0133 34.24L36.6333 35.04L37.1533 35.34L40.3833 35.11L41.2633 34.6L38.0633 34.82L38.5233 34.55C38.7733 34.41 38.9533 34.25 39.0433 34.09C39.1433 33.93 39.1633 33.77 39.0933 33.6C39.0433 33.48 38.9533 33.37 38.8133 33.26L39.1333 33.08L38.7433 32.86L38.4233 33.04C38.2933 32.98 38.1633 32.94 38.0133 32.91C37.8633 32.88 37.7233 32.86 37.5733 32.86L38.1533 32.52L37.7633 32.3" fill="#2B2B2B"/>
</g>
<path d="M29.7133 34.22V36.6C29.7133 36.6 29.7133 36.65 29.7133 36.67C29.7133 39.39 33.4933 41.59 38.1533 41.59C42.8133 41.59 46.5933 39.39 46.5933 36.67C46.5933 36.65 46.5933 36.62 46.5933 36.6V34.22" stroke="#2B2B2B" stroke-width="0.4" stroke-linecap="round" stroke-linejoin="round"/>
</g>
<defs>
<clipPath id="clip0_1547_5472">
<rect width="48" height="48" fill="white" transform="translate(0.333313)"/>
</clipPath>
</defs>
</svg>
