<svg width="49" height="48" viewBox="0 0 49 48" fill="none" xmlns="http://www.w3.org/2000/svg">
<g clip-path="url(#clip0_1547_5659)">
<path d="M6.58667 46.74L6.51666 21.72L3.20667 19.79L3.27666 44.81C3.27666 45.38 3.47667 45.78 3.80667 45.97L7.11666 47.9C6.79666 47.71 6.58667 47.31 6.58667 46.74Z" fill="#1CCBAE" stroke="#2B2B2B" stroke-width="0.4" stroke-linecap="round" stroke-linejoin="round"/>
<path d="M36.3867 2.45998C36.4867 2.42998 36.5867 2.39998 36.6867 2.39998C36.6867 2.39998 36.7067 2.39998 36.7167 2.39998C36.8167 2.39998 36.9167 2.39998 37.0067 2.40998C37.0067 2.40998 37.0067 2.40998 37.0167 2.40998C37.1067 2.42998 37.1967 2.45998 37.2767 2.50998L33.9667 0.57998C33.9367 0.55998 33.9067 0.54998 33.8767 0.539981C33.8467 0.529981 33.8167 0.51998 33.7767 0.50998C33.7567 0.50998 33.7367 0.49998 33.7067 0.48998C33.7067 0.48998 33.7067 0.48998 33.6967 0.48998C33.6967 0.48998 33.6867 0.48998 33.6767 0.48998C33.6367 0.48998 33.6067 0.47998 33.5667 0.47998C33.5267 0.47998 33.4867 0.47998 33.4467 0.47998C33.4367 0.47998 33.4167 0.47998 33.4067 0.47998C33.4067 0.47998 33.3867 0.47998 33.3767 0.47998C33.3567 0.47998 33.3367 0.47998 33.3067 0.47998C33.2567 0.47998 33.1967 0.49998 33.1467 0.50998C33.1267 0.50998 33.0967 0.52998 33.0767 0.52998C33.0567 0.52998 33.0367 0.53998 33.0167 0.54998C32.9867 0.54998 32.9667 0.56998 32.9367 0.57998C32.8567 0.60998 32.7667 0.65998 32.6867 0.70998L5.00667 16.68L8.31667 18.61L35.9867 2.62998C36.0967 2.55998 36.2167 2.51998 36.3167 2.47998C36.3367 2.47998 36.3567 2.45998 36.3767 2.45998H36.3867Z" fill="white" stroke="#2B2B2B" stroke-width="0.4" stroke-linecap="round" stroke-linejoin="round"/>
<path d="M35.9867 2.62993C36.9867 2.04993 37.7967 2.50993 37.7967 3.65993L37.8667 28.6799C37.8667 29.8299 37.0667 31.2199 36.0667 31.7999L8.39666 47.7699C7.39666 48.3499 6.58666 47.8799 6.58666 46.7399L6.51666 21.7199C6.51666 20.5699 7.31666 19.1799 8.31666 18.5999L35.9867 2.62993Z" fill="white" stroke="#2B2B2B" stroke-width="0.4" stroke-linecap="round" stroke-linejoin="round"/>
<path d="M17.6567 18.68L10.0667 23.06C9.58667 23.34 9.18667 24.02 9.19667 24.57L9.24667 43.02C9.24667 43.58 9.64667 43.8 10.1267 43.52L17.7167 39.14C18.2067 38.86 18.5967 38.18 18.5967 37.63L18.5467 19.18C18.5467 18.62 18.1467 18.4 17.6667 18.68" fill="white"/>
<path d="M17.6567 18.68L10.0667 23.06C9.58667 23.34 9.18667 24.02 9.19667 24.57L9.24667 43.02C9.24667 43.58 9.64667 43.8 10.1267 43.52L17.7167 39.14C18.2067 38.86 18.5967 38.18 18.5967 37.63L18.5467 19.18C18.5467 18.62 18.1467 18.4 17.6667 18.68" stroke="#2B2B2B" stroke-width="0.4" stroke-linecap="round" stroke-linejoin="round"/>
<path d="M14.8367 24.26L13.8767 26.98L12.9067 25.37L11.8767 26.47C11.5767 26.79 11.3467 27.21 11.2467 27.62L10.8267 29.36L12.2567 29.11L12.4367 30.46C12.4367 30.46 11.1267 34.43 11.1367 38.99L14.1367 37.26L15.3867 35.66L15.5867 36.42L16.6467 35.81C16.6367 31.25 15.3067 28.8 15.3067 28.8L15.4867 27.24L16.9167 25.84L16.4867 24.58C16.3867 24.28 16.1567 24.13 15.8567 24.15L14.8267 24.24" fill="#EAF8F6"/>
<path d="M14.8367 24.26L13.8767 26.98L12.9067 25.37L11.8767 26.47C11.5767 26.79 11.3467 27.21 11.2467 27.62L10.8267 29.36L12.2567 29.11L12.4367 30.46C12.4367 30.46 11.1267 34.43 11.1367 38.99L14.1367 37.26L15.3867 35.66L15.5867 36.42L16.6467 35.81C16.6367 31.25 15.3067 28.8 15.3067 28.8L15.4867 27.24L16.9167 25.84L16.4867 24.58C16.3867 24.28 16.1567 24.13 15.8567 24.15L14.8267 24.24" stroke="#2B2B2B" stroke-width="0.4" stroke-linecap="round" stroke-linejoin="round"/>
<path d="M12.4467 30.4699L15.3267 28.8099" stroke="#2B2B2B" stroke-width="0.4" stroke-linecap="round" stroke-linejoin="round"/>
<path d="M14.8367 24.26C14.5567 24.69 14.2167 25.02 13.8767 25.22C13.5367 25.42 13.1867 25.48 12.9067 25.37L13.8767 26.98L14.8367 24.26Z" fill="#2B2B2B" stroke="#2B2B2B" stroke-width="0.4" stroke-linecap="round" stroke-linejoin="round"/>
<path d="M35.4667 16.07L21.0367 24.4C20.9067 24.48 20.7967 24.67 20.7967 24.82C20.7967 24.97 20.9067 25.03 21.0367 24.96L35.4667 16.63C35.5967 16.55 35.7067 16.37 35.7067 16.22C35.7067 16.07 35.5967 16 35.4667 16.08" fill="#2B2B2B"/>
<path d="M29.8267 24.1199L21.0467 29.1899C20.9167 29.2699 20.8067 29.4499 20.8067 29.6099C20.8067 29.7699 20.9167 29.8199 21.0467 29.7499L29.8267 24.6799C29.9567 24.5999 30.0667 24.4199 30.0667 24.2699C30.0667 24.1199 29.9567 24.0599 29.8267 24.1299" fill="#2B2B2B"/>
<path d="M29.4567 12.87L27.1567 14.22L26.2067 14.77L26.1867 14.76L26.1767 14.75L20.4867 11.67L20.5067 11.66L23.7567 9.78003L29.4567 12.87Z" fill="white" stroke="#2B2B2B" stroke-width="0.4" stroke-linecap="round" stroke-linejoin="round"/>
<path d="M42.5167 5.31999L42.5067 5.32999H42.4967L39.2667 7.22999V7.21999H39.2567L39.2367 7.20999L33.5467 4.12999L33.5667 4.11999L36.7967 2.24999L36.8167 2.23999L42.5167 5.31999Z" fill="white" stroke="#2B2B2B" stroke-width="0.4" stroke-linecap="round" stroke-linejoin="round"/>
<path d="M42.3667 7.76995C41.8267 8.91995 40.7267 9.19995 39.9167 8.39995C39.6167 8.09995 39.3967 7.68995 39.2667 7.22995L42.5167 5.31995C42.7567 6.09995 42.7167 7.01995 42.3667 7.76995Z" fill="white" stroke="#2B2B2B" stroke-width="0.4" stroke-linecap="round" stroke-linejoin="round"/>
<path d="M39.2667 7.2H39.2567L39.2367 7.21L36.0167 9.10999L36.0067 9.1L30.2867 6.01L33.5467 4.13L33.5667 4.12L39.2667 7.2Z" fill="#EAF8F6" stroke="#2B2B2B" stroke-width="0.4" stroke-miterlimit="10"/>
<path d="M39.1067 9.64995C38.5667 10.8 37.4667 11.08 36.6567 10.28C36.3467 9.97995 36.1367 9.56995 36.0067 9.10995L39.2567 7.19995C39.4967 7.97995 39.4667 8.89995 39.1067 9.64995Z" fill="#1CCBAE" stroke="#2B2B2B" stroke-width="0.4" stroke-linecap="round" stroke-linejoin="round"/>
<path d="M36.0167 9.11001H36.0067L32.7667 11.01H32.7567L32.7367 11V10.99L27.0067 7.90001L27.0267 7.89001L30.2867 6.01001L36.0067 9.10001L36.0167 9.11001Z" fill="white" stroke="#2B2B2B" stroke-width="0.4" stroke-linecap="round" stroke-linejoin="round"/>
<path d="M35.8567 11.55C35.3167 12.7 34.2167 12.98 33.4067 12.18C33.0967 11.88 32.8867 11.47 32.7567 11.01L36.0067 9.09998C36.2467 9.87998 36.2067 10.8 35.8567 11.55Z" fill="white" stroke="#2B2B2B" stroke-width="0.4" stroke-linecap="round" stroke-linejoin="round"/>
<path d="M32.7467 10.99L32.7367 11L31.3067 11.83L29.5067 12.89L23.7567 9.78001L27.0067 7.90001L27.0267 7.89001L32.7467 10.99Z" fill="#EAF8F6" stroke="#2B2B2B" stroke-width="0.4" stroke-miterlimit="10"/>
<path d="M32.5967 13.43C32.0567 14.58 30.9567 14.86 30.1467 14.06C29.8367 13.76 29.6267 13.35 29.4967 12.89L32.7467 10.98C32.9867 11.76 32.9467 12.68 32.5967 13.43Z" fill="#1CCBAE" stroke="#2B2B2B" stroke-width="0.4" stroke-linecap="round" stroke-linejoin="round"/>
<path d="M29.3067 15.31C28.7667 16.46 27.6667 16.74 26.8567 15.94C26.5467 15.64 26.3367 15.23 26.2067 14.77L29.4567 12.86C29.6967 13.64 29.6567 14.56 29.3067 15.31Z" fill="white" stroke="#2B2B2B" stroke-width="0.4" stroke-linecap="round" stroke-linejoin="round"/>
<path d="M26.2067 14.75H26.1967L26.1867 14.76L22.9567 16.65H22.9467V16.64L22.9267 16.63L17.2267 13.55L17.2467 13.54L20.4867 11.67L20.5067 11.66L26.2067 14.75Z" fill="#EAF8F6" stroke="#2B2B2B" stroke-width="0.4" stroke-miterlimit="10"/>
<path d="M26.0467 17.19C25.5067 18.34 24.4067 18.62 23.5967 17.82C23.2967 17.52 23.0767 17.11 22.9467 16.65L26.1967 14.74C26.4367 15.52 26.3967 16.44 26.0467 17.19Z" fill="#1CCBAE" stroke="#2B2B2B" stroke-width="0.4" stroke-linecap="round" stroke-linejoin="round"/>
<path d="M22.9467 16.62V16.63H22.9267L19.6967 18.53L13.9667 15.43L17.2267 13.55L17.2467 13.54L22.9467 16.62Z" fill="white" stroke="#2B2B2B" stroke-width="0.4" stroke-linecap="round" stroke-linejoin="round"/>
<path d="M22.7967 19.07C22.2567 20.22 21.1567 20.5 20.3467 19.7C20.0367 19.4 19.8267 18.99 19.6967 18.53L22.9467 16.62C23.1867 17.4 23.1567 18.32 22.7967 19.07Z" fill="white" stroke="#2B2B2B" stroke-width="0.4" stroke-linecap="round" stroke-linejoin="round"/>
<path d="M19.6967 18.5299L16.4467 20.4399L16.4367 20.4299L16.4267 20.4199H16.4167L10.6967 17.3299L10.7167 17.3099L13.9667 15.4299L19.6967 18.5299Z" fill="#EAF8F6" stroke="#2B2B2B" stroke-width="0.4" stroke-miterlimit="10"/>
<path d="M19.5467 20.98C19.0067 22.13 17.9067 22.41 17.0967 21.61C16.7867 21.31 16.5767 20.9 16.4467 20.44L19.6967 18.53C19.9367 19.31 19.8967 20.23 19.5467 20.98Z" fill="#1CCBAE" stroke="#2B2B2B" stroke-width="0.4" stroke-linecap="round" stroke-linejoin="round"/>
<path d="M16.4367 20.4099L16.4267 20.4199L14.9967 21.2499L13.1867 22.3099L7.43666 19.1999L10.6967 17.3299L10.7167 17.3099L16.4367 20.4099Z" fill="white" stroke="#2B2B2B" stroke-width="0.4" stroke-linecap="round" stroke-linejoin="round"/>
<path d="M16.2867 22.86C15.7467 24.01 14.6467 24.29 13.8367 23.49C13.5267 23.19 13.3167 22.78 13.1867 22.32L16.4367 20.41C16.6767 21.19 16.6367 22.11 16.2867 22.86Z" fill="white" stroke="#2B2B2B" stroke-width="0.4" stroke-linecap="round" stroke-linejoin="round"/>
<path d="M6.51666 21.7199L3.20667 19.7899C3.20667 18.6399 4.00667 17.2499 5.00667 16.6699L8.31667 18.5999C7.31667 19.1799 6.51666 20.5699 6.51666 21.7199Z" fill="#2B2B2B"/>
<mask id="mask0_1547_5659" style="mask-type:luminance" maskUnits="userSpaceOnUse" x="3" y="16" width="6" height="6">
<path d="M6.51666 21.7199L3.20667 19.7899C3.20667 18.6399 4.00667 17.2499 5.00667 16.6699L8.31667 18.5999C7.31667 19.1799 6.51666 20.5699 6.51666 21.7199Z" fill="white"/>
</mask>
<g mask="url(#mask0_1547_5659)">
<path d="M6.51666 21.7199L3.20667 19.7899C3.20667 19.6699 3.20667 19.5599 3.22667 19.4399L6.53666 21.3699C6.51666 21.4899 6.51666 21.6099 6.51666 21.7199Z" fill="#2B2B2B" stroke="#2B2B2B" stroke-width="0.4" stroke-linecap="round" stroke-linejoin="round"/>
<path d="M6.53667 21.3699L3.22667 19.4399C3.23667 19.3599 3.25667 19.2699 3.26667 19.1899L6.57667 21.1199C6.55667 21.1999 6.54667 21.2899 6.53667 21.3699Z" fill="#2B2B2B" stroke="#2B2B2B" stroke-width="0.4" stroke-linecap="round" stroke-linejoin="round"/>
<path d="M6.58667 21.12L3.27667 19.19C3.28667 19.12 3.30667 19.05 3.32667 18.98L6.63667 20.91C6.61667 20.98 6.59667 21.05 6.58667 21.12Z" fill="#2B2B2B" stroke="#2B2B2B" stroke-width="0.4" stroke-linecap="round" stroke-linejoin="round"/>
<path d="M6.63666 20.9099L3.32666 18.9799C3.34666 18.9199 3.36666 18.8599 3.38666 18.7999L6.69666 20.7299C6.67666 20.7899 6.65666 20.8499 6.63666 20.9099Z" fill="#2B2B2B" stroke="#2B2B2B" stroke-width="0.4" stroke-linecap="round" stroke-linejoin="round"/>
<path d="M6.68666 20.7299L3.37666 18.7999C3.39666 18.7399 3.41666 18.6899 3.43666 18.6299L6.74666 20.5599C6.72666 20.6199 6.70666 20.6699 6.68666 20.7299Z" fill="#2B2B2B" stroke="#2B2B2B" stroke-width="0.4" stroke-linecap="round" stroke-linejoin="round"/>
<path d="M6.74666 20.56L3.43666 18.63C3.45666 18.58 3.47666 18.52 3.50666 18.47L6.81666 20.4C6.79666 20.45 6.76666 20.51 6.74666 20.56Z" fill="#2B2B2B" stroke="#2B2B2B" stroke-width="0.4" stroke-linecap="round" stroke-linejoin="round"/>
<path d="M6.81667 20.3999L3.50667 18.4699C3.52667 18.4199 3.55667 18.3699 3.57667 18.3099L6.88667 20.2399C6.85667 20.2899 6.83667 20.3399 6.81667 20.3999Z" fill="#2B2B2B" stroke="#2B2B2B" stroke-width="0.4" stroke-linecap="round" stroke-linejoin="round"/>
<path d="M6.88666 20.2399L3.57666 18.3099C3.59666 18.2599 3.62666 18.2099 3.65666 18.1599L6.96666 20.0899C6.93666 20.1399 6.91666 20.1899 6.88666 20.2399Z" fill="#2B2B2B" stroke="#2B2B2B" stroke-width="0.4" stroke-linecap="round" stroke-linejoin="round"/>
<path d="M6.96666 20.0899L3.65666 18.1599C3.68666 18.1099 3.71666 18.0599 3.73666 18.0099L7.04666 19.9399C7.01666 19.9899 6.98666 20.0399 6.96666 20.0899Z" fill="#2B2B2B" stroke="#2B2B2B" stroke-width="0.4" stroke-linecap="round" stroke-linejoin="round"/>
<path d="M7.05666 19.93L3.74666 18C3.77666 17.95 3.80666 17.9 3.83666 17.85L7.14666 19.78C7.11666 19.83 7.08666 19.88 7.05666 19.93Z" fill="#2B2B2B" stroke="#2B2B2B" stroke-width="0.4" stroke-linecap="round" stroke-linejoin="round"/>
<path d="M7.14667 19.7799L3.83667 17.8499C3.86667 17.7999 3.90667 17.7399 3.93667 17.6899L7.24667 19.6199C7.20667 19.6699 7.17667 19.7199 7.14667 19.7799Z" fill="#2B2B2B" stroke="#2B2B2B" stroke-width="0.4" stroke-linecap="round" stroke-linejoin="round"/>
<path d="M7.24666 19.6199L3.93666 17.6899C3.97666 17.6299 4.01666 17.5799 4.05666 17.5299L7.36666 19.4599C7.32666 19.5099 7.28666 19.5699 7.24666 19.6199Z" fill="#2B2B2B" stroke="#2B2B2B" stroke-width="0.4" stroke-linecap="round" stroke-linejoin="round"/>
<path d="M7.36667 19.46L4.05667 17.53C4.10667 17.47 4.15667 17.41 4.20667 17.35L7.51667 19.28C7.46667 19.34 7.41667 19.4 7.36667 19.46Z" fill="#2B2B2B" stroke="#2B2B2B" stroke-width="0.4" stroke-linecap="round" stroke-linejoin="round"/>
<path d="M7.51666 19.2799L4.20667 17.3499C4.26667 17.2799 4.33667 17.2099 4.40667 17.1399L7.71667 19.0699C7.64667 19.1399 7.58666 19.2099 7.51666 19.2799Z" fill="#2B2B2B" stroke="#2B2B2B" stroke-width="0.4" stroke-linecap="round" stroke-linejoin="round"/>
<path d="M7.71666 19.0699L4.40666 17.1399C4.59666 16.9499 4.79666 16.7899 5.00666 16.6699L8.31666 18.5999C8.10666 18.7199 7.90666 18.8799 7.71666 19.0699Z" fill="#2B2B2B" stroke="#2B2B2B" stroke-width="0.4" stroke-linecap="round" stroke-linejoin="round"/>
</g>
<path d="M6.51666 21.7199L3.20667 19.7899C3.20667 18.6399 4.00667 17.2499 5.00667 16.6699L8.31667 18.5999C7.31667 19.1799 6.51666 20.5699 6.51666 21.7199Z" stroke="#2B2B2B" stroke-width="0.4" stroke-linecap="round" stroke-linejoin="round"/>
<path d="M41.7067 25.8C41.7767 25.76 41.8467 25.73 41.9167 25.7C41.9467 25.69 41.9767 25.67 42.0067 25.66C42.1067 25.62 42.1967 25.57 42.2967 25.53C42.3967 25.49 42.4867 25.46 42.5867 25.42C42.6167 25.41 42.6467 25.4 42.6767 25.39C42.7367 25.37 42.8067 25.35 42.8667 25.33C42.9067 25.32 42.9367 25.31 42.9767 25.3C43.0367 25.28 43.0967 25.27 43.1567 25.26C43.1967 25.26 43.2267 25.24 43.2667 25.24C43.3167 25.23 43.3767 25.22 43.4267 25.21C43.4667 25.21 43.5167 25.19 43.5567 25.19C43.6067 25.19 43.6567 25.18 43.7067 25.17C43.7567 25.17 43.7967 25.16 43.8467 25.16C43.8867 25.16 43.9367 25.16 43.9767 25.16C44.0267 25.16 44.0867 25.16 44.1367 25.16C44.1767 25.16 44.2167 25.16 44.2467 25.16C44.3167 25.16 44.3767 25.16 44.4467 25.16C44.4767 25.16 44.5167 25.16 44.5467 25.16C44.6467 25.17 44.7467 25.18 44.8467 25.2C44.8567 25.2 44.8667 25.2 44.8767 25.2C44.8967 25.2 44.9167 25.2 44.9367 25.21C44.9967 25.22 45.0567 25.24 45.1167 25.25C45.1467 25.25 45.1767 25.27 45.2067 25.28C45.2567 25.29 45.2967 25.31 45.3467 25.33C45.4067 25.35 45.4567 25.37 45.5167 25.4C45.5467 25.41 45.5667 25.42 45.5967 25.43C45.6767 25.47 45.7567 25.51 45.8367 25.55L43.5667 24.23C43.4867 24.19 43.4067 24.14 43.3267 24.11C43.2967 24.1 43.2767 24.09 43.2467 24.08C43.1867 24.06 43.1367 24.03 43.0767 24.01C43.0767 24.01 43.0567 24.01 43.0467 24C43.0067 23.99 42.9767 23.98 42.9367 23.96C42.9067 23.96 42.8767 23.94 42.8467 23.93C42.7867 23.91 42.7267 23.9 42.6667 23.89C42.6467 23.89 42.6267 23.88 42.6067 23.88C42.6067 23.88 42.5867 23.88 42.5767 23.88C42.4767 23.86 42.3767 23.85 42.2767 23.84C42.2667 23.84 42.2467 23.84 42.2367 23.84C42.2167 23.84 42.1967 23.84 42.1767 23.84C42.1067 23.84 42.0467 23.84 41.9767 23.84C41.9567 23.84 41.9267 23.84 41.9067 23.84C41.8967 23.84 41.8767 23.84 41.8667 23.84C41.8167 23.84 41.7567 23.84 41.7067 23.84C41.6767 23.84 41.6467 23.84 41.6167 23.84C41.6067 23.84 41.5867 23.84 41.5767 23.84C41.5267 23.84 41.4867 23.84 41.4367 23.85C41.3967 23.85 41.3667 23.85 41.3367 23.86C41.3267 23.86 41.3067 23.86 41.2967 23.86C41.2567 23.86 41.2067 23.87 41.1667 23.88C41.1367 23.88 41.0967 23.89 41.0667 23.9C41.0467 23.9 41.0267 23.9 41.0067 23.91C40.9667 23.91 40.9367 23.93 40.8967 23.93C40.8667 23.93 40.8367 23.94 40.8067 23.95C40.7767 23.95 40.7467 23.97 40.7167 23.97C40.6767 23.97 40.6467 23.99 40.6067 24C40.5867 24 40.5667 24.01 40.5467 24.02C40.5067 24.03 40.4567 24.05 40.4167 24.06C40.3867 24.07 40.3567 24.08 40.3267 24.09C40.3167 24.09 40.3067 24.09 40.2967 24.1C40.2167 24.13 40.1267 24.16 40.0467 24.19C39.9667 24.22 39.8767 24.26 39.7967 24.3C39.7867 24.3 39.7767 24.31 39.7567 24.32C39.7267 24.33 39.6967 24.35 39.6667 24.36C39.6267 24.38 39.5867 24.4 39.5367 24.42C39.5067 24.43 39.4867 24.45 39.4567 24.46C39.4267 24.48 39.3867 24.5 39.3567 24.51C39.3267 24.52 39.3067 24.54 39.2767 24.55C39.2067 24.59 39.1467 24.62 39.0767 24.66L41.3467 25.98C41.4367 25.93 41.5367 25.88 41.6267 25.83C41.6567 25.81 41.6967 25.79 41.7267 25.78L41.7067 25.8Z" fill="#2B2B2B" stroke="#2B2B2B" stroke-width="0.4" stroke-linecap="round" stroke-linejoin="round"/>
<path d="M41.3267 26.0099C37.8267 28.0299 35.0067 32.9199 35.0167 36.9399V38.7799C35.0167 39.0699 35.2267 39.1899 35.4767 39.0399L47.2267 32.2599C47.4767 32.1099 47.6867 31.7599 47.6767 31.4699V29.6299C47.6567 25.6099 44.8167 23.9899 41.3267 26.0099Z" fill="white" stroke="#2B2B2B" stroke-width="0.4" stroke-linecap="round" stroke-linejoin="round"/>
<path d="M35.0567 38.96C35.0467 38.94 35.0367 38.91 35.0267 38.88C35.0267 38.85 35.0267 38.82 35.0267 38.78V36.94C35.0267 36.83 35.0267 36.71 35.0267 36.6C35.0267 36.56 35.0267 36.52 35.0267 36.48C35.0267 36.4 35.0267 36.32 35.0367 36.24C35.0367 36.2 35.0367 36.16 35.0367 36.12C35.0367 36.04 35.0567 35.95 35.0667 35.86C35.0667 35.83 35.0667 35.79 35.0767 35.76C35.0867 35.64 35.1067 35.52 35.1267 35.4C35.1267 35.38 35.1267 35.37 35.1267 35.35C35.1467 35.25 35.1667 35.14 35.1867 35.04C35.1867 35 35.2067 34.96 35.2167 34.91C35.2367 34.83 35.2467 34.75 35.2667 34.67C35.2767 34.62 35.2867 34.58 35.2967 34.53C35.3167 34.45 35.3367 34.37 35.3567 34.3C35.3667 34.25 35.3767 34.21 35.3967 34.16C35.4167 34.08 35.4467 33.99 35.4667 33.91C35.4767 33.87 35.4867 33.83 35.4967 33.79C35.5367 33.67 35.5767 33.55 35.6167 33.43C35.6167 33.43 35.6167 33.41 35.6167 33.4C35.6567 33.29 35.6967 33.18 35.7367 33.06C35.7467 33.02 35.7667 32.99 35.7767 32.95C35.8067 32.87 35.8367 32.78 35.8767 32.7C35.8967 32.66 35.9067 32.62 35.9267 32.58C35.9667 32.49 35.9967 32.41 36.0367 32.32C36.0467 32.29 36.0667 32.26 36.0767 32.23C36.1267 32.11 36.1867 31.99 36.2367 31.88C36.2467 31.85 36.2667 31.83 36.2767 31.8C36.3167 31.71 36.3667 31.61 36.4167 31.52C36.4467 31.46 36.4867 31.39 36.5167 31.33C36.5467 31.27 36.5767 31.21 36.6067 31.15C36.6967 30.99 36.7867 30.82 36.8767 30.66C36.8967 30.63 36.9067 30.6 36.9267 30.57C37.0567 30.34 37.1967 30.12 37.3467 29.9C37.3667 29.87 37.3867 29.84 37.4067 29.81C37.5267 29.64 37.6467 29.47 37.7667 29.3C37.8567 29.18 37.9467 29.07 38.0367 28.95C38.1067 28.86 38.1767 28.77 38.2467 28.69C38.2567 28.67 38.2767 28.65 38.2867 28.64C38.3767 28.54 38.4567 28.44 38.5467 28.34C38.5767 28.31 38.5967 28.28 38.6267 28.26C38.6867 28.19 38.7467 28.12 38.8167 28.05C38.8567 28.01 38.8867 27.97 38.9267 27.94C38.9767 27.88 39.0367 27.83 39.0867 27.77C39.1267 27.73 39.1667 27.69 39.2067 27.65C39.2567 27.6 39.3167 27.55 39.3667 27.49C39.4067 27.45 39.4567 27.41 39.4967 27.37C39.5467 27.32 39.6067 27.27 39.6567 27.22C39.6967 27.18 39.7467 27.14 39.7867 27.11C39.8467 27.06 39.8967 27.02 39.9567 26.97C39.9967 26.93 40.0467 26.9 40.0867 26.87C40.1467 26.82 40.2067 26.78 40.2667 26.73C40.3067 26.7 40.3467 26.67 40.3867 26.64C40.4567 26.59 40.5167 26.54 40.5867 26.5C40.6167 26.48 40.6567 26.45 40.6867 26.43C40.7867 26.36 40.8867 26.3 40.9867 26.23C40.9867 26.23 40.9967 26.23 41.0067 26.22C41.1067 26.16 41.2067 26.09 41.3167 26.03L39.0467 24.71C39.0467 24.71 39.0067 24.73 38.9867 24.75C38.9067 24.8 38.8267 24.85 38.7467 24.9C38.7467 24.9 38.7367 24.9 38.7267 24.91C38.6367 24.97 38.5467 25.03 38.4567 25.09C38.4567 25.09 38.4367 25.1 38.4267 25.11C38.3967 25.13 38.3567 25.16 38.3267 25.18C38.2767 25.21 38.2267 25.25 38.1767 25.29C38.1567 25.3 38.1467 25.31 38.1267 25.33C38.0867 25.36 38.0467 25.39 38.0067 25.42C37.9667 25.45 37.9367 25.47 37.8967 25.5C37.8767 25.52 37.8567 25.54 37.8267 25.55C37.7867 25.58 37.7367 25.62 37.6967 25.66C37.6667 25.68 37.6367 25.71 37.6067 25.73C37.5767 25.75 37.5567 25.78 37.5267 25.8C37.4867 25.84 37.4367 25.88 37.3967 25.91C37.3767 25.93 37.3467 25.95 37.3267 25.97C37.2967 26 37.2667 26.03 37.2367 26.05C37.1967 26.09 37.1467 26.13 37.1067 26.17C37.0867 26.19 37.0667 26.21 37.0467 26.22C37.0167 26.25 36.9767 26.29 36.9467 26.32C36.9067 26.36 36.8667 26.4 36.8267 26.44C36.8167 26.45 36.7967 26.47 36.7867 26.48C36.7467 26.52 36.7067 26.56 36.6667 26.61C36.6267 26.65 36.5967 26.69 36.5567 26.73C36.5567 26.74 36.5367 26.75 36.5267 26.76C36.4767 26.82 36.4167 26.88 36.3667 26.94C36.3367 26.97 36.3167 27 36.2867 27.02C36.2867 27.02 36.2867 27.02 36.2767 27.03C36.1967 27.12 36.1167 27.22 36.0367 27.32C36.0267 27.34 36.0067 27.36 35.9967 27.37C35.9267 27.45 35.8667 27.53 35.7967 27.62C35.7967 27.62 35.7967 27.63 35.7867 27.64C35.6967 27.75 35.6067 27.87 35.5167 27.99C35.3967 28.16 35.2767 28.33 35.1567 28.5C35.1467 28.52 35.1267 28.54 35.1167 28.56C35.1167 28.57 35.1067 28.58 35.0967 28.6C34.9567 28.82 34.8167 29.04 34.6767 29.27C34.6767 29.29 34.6567 29.3 34.6467 29.32C34.6467 29.33 34.6267 29.35 34.6267 29.36C34.5367 29.52 34.4367 29.68 34.3567 29.85C34.3567 29.85 34.3467 29.87 34.3367 29.88C34.3067 29.93 34.2867 29.98 34.2567 30.03C34.2267 30.09 34.1867 30.16 34.1567 30.22C34.1567 30.23 34.1467 30.24 34.1367 30.26C34.0967 30.34 34.0567 30.42 34.0167 30.5C34.0067 30.53 33.9867 30.55 33.9767 30.58C33.9767 30.58 33.9767 30.58 33.9767 30.59C33.9267 30.69 33.8867 30.79 33.8367 30.9C33.8367 30.91 33.8367 30.92 33.8267 30.93C33.8167 30.96 33.7967 30.99 33.7867 31.02C33.7667 31.08 33.7367 31.14 33.7167 31.19C33.7067 31.22 33.6967 31.25 33.6767 31.28C33.6567 31.32 33.6467 31.36 33.6267 31.4C33.6167 31.43 33.5967 31.47 33.5867 31.5C33.5667 31.55 33.5467 31.6 33.5267 31.65C33.5167 31.69 33.4967 31.72 33.4867 31.76C33.4867 31.78 33.4767 31.79 33.4667 31.8C33.4267 31.9 33.3967 31.99 33.3667 32.09C33.3667 32.09 33.3667 32.11 33.3667 32.12C33.3267 32.23 33.2967 32.34 33.2667 32.45C33.2667 32.46 33.2667 32.47 33.2667 32.48C33.2567 32.52 33.2467 32.56 33.2367 32.6C33.2167 32.66 33.1967 32.72 33.1867 32.78C33.1867 32.8 33.1767 32.83 33.1667 32.85C33.1567 32.9 33.1467 32.94 33.1267 32.99C33.1167 33.03 33.1067 33.08 33.0967 33.12C33.0967 33.16 33.0767 33.19 33.0767 33.23C33.0667 33.28 33.0567 33.32 33.0467 33.37C33.0467 33.4 33.0367 33.43 33.0267 33.46C33.0167 33.51 33.0067 33.56 32.9967 33.62C32.9967 33.66 32.9767 33.7 32.9667 33.75C32.9667 33.77 32.9667 33.78 32.9667 33.8C32.9467 33.89 32.9367 33.98 32.9167 34.07C32.9167 34.08 32.9167 34.1 32.9167 34.11C32.8967 34.22 32.8867 34.32 32.8667 34.43C32.8667 34.44 32.8667 34.45 32.8667 34.46C32.8667 34.49 32.8667 34.53 32.8567 34.56C32.8567 34.62 32.8467 34.68 32.8367 34.74C32.8367 34.77 32.8367 34.79 32.8367 34.82C32.8367 34.86 32.8367 34.9 32.8367 34.94C32.8367 34.97 32.8367 35.01 32.8367 35.04C32.8367 35.09 32.8367 35.13 32.8367 35.18C32.8367 35.22 32.8367 35.26 32.8367 35.3C32.8367 35.32 32.8367 35.34 32.8367 35.35C32.8367 35.45 32.8367 35.54 32.8367 35.64V37.48C32.8367 37.48 32.8367 37.49 32.8367 37.5C32.8367 37.5 32.8367 37.51 32.8367 37.52C32.8367 37.52 32.8367 37.53 32.8367 37.54C32.8367 37.54 32.8367 37.55 32.8367 37.56C32.8367 37.56 32.8367 37.56 32.8367 37.57V37.59V37.61V37.63C32.8367 37.64 32.8467 37.65 32.8567 37.66C32.8767 37.69 32.8967 37.71 32.9267 37.73L35.1967 39.05C35.1967 39.05 35.1467 39.01 35.1267 38.98C35.1267 38.97 35.1067 38.95 35.0967 38.94L35.0567 38.96Z" fill="#EAF8F6" stroke="#2B2B2B" stroke-width="0.4" stroke-linecap="round" stroke-linejoin="round"/>
<path d="M41.7167 15.7999C41.8467 15.7399 41.9667 15.6899 42.0967 15.6499H42.1167C42.2367 15.6099 42.3567 15.5799 42.4667 15.5499C42.4767 15.5499 42.4867 15.5499 42.4967 15.5499C42.6067 15.5299 42.7167 15.5099 42.8267 15.4999C42.8367 15.4999 42.8467 15.4999 42.8667 15.4999C42.9667 15.4999 43.0667 15.4999 43.1667 15.4999C43.1867 15.4999 43.2067 15.4999 43.2267 15.4999C43.3267 15.4999 43.4267 15.5199 43.5267 15.5399C43.5467 15.5399 43.5567 15.5399 43.5767 15.5499C43.6667 15.5699 43.7467 15.5899 43.8267 15.6199C43.8367 15.6199 43.8467 15.6199 43.8667 15.6299C43.9567 15.6699 44.0467 15.7099 44.1267 15.7499L41.8567 14.4299C41.7767 14.3799 41.6867 14.3399 41.5967 14.3099C41.5867 14.3099 41.5767 14.2999 41.5567 14.2999C41.5567 14.2999 41.5367 14.2999 41.5267 14.2899C41.4567 14.2599 41.3767 14.2499 41.3067 14.2299C41.2867 14.2299 41.2767 14.2199 41.2567 14.2199C41.1867 14.2099 41.1067 14.1899 41.0267 14.1899C41.0067 14.1899 40.9867 14.1899 40.9667 14.1899C40.9467 14.1899 40.9267 14.1899 40.9067 14.1899C40.8767 14.1899 40.8567 14.1899 40.8267 14.1899C40.7667 14.1899 40.7067 14.1899 40.6367 14.1899C40.6267 14.1899 40.6167 14.1899 40.5967 14.1899C40.5867 14.1899 40.5767 14.1899 40.5567 14.1899C40.5167 14.1899 40.4867 14.1899 40.4467 14.1999C40.3867 14.1999 40.3267 14.2199 40.2767 14.2299C40.2567 14.2299 40.2467 14.2299 40.2267 14.2399C40.2167 14.2399 40.2067 14.2399 40.1967 14.2399C40.1667 14.2399 40.1467 14.2499 40.1167 14.2599C40.0667 14.2699 40.0067 14.2899 39.9567 14.3099C39.9167 14.3199 39.8867 14.3299 39.8467 14.3499H39.8267C39.8267 14.3499 39.8067 14.3499 39.7967 14.3499C39.7467 14.3699 39.6867 14.3899 39.6367 14.4099C39.5867 14.4299 39.5267 14.4499 39.4767 14.4799C39.4667 14.4799 39.4567 14.4799 39.4467 14.4899C39.4467 14.4899 39.4267 14.4899 39.4167 14.4999C39.3867 14.5199 39.3467 14.5299 39.3167 14.5499C39.2667 14.5799 39.2067 14.5999 39.1567 14.6299C39.1167 14.6499 39.0767 14.6799 39.0267 14.6999L41.2967 16.0199C41.4267 15.9399 41.5567 15.8799 41.6867 15.8199C41.6867 15.8199 41.7067 15.8199 41.7167 15.8099V15.7999Z" fill="#2B2B2B" stroke="#2B2B2B" stroke-width="0.4" stroke-linecap="round" stroke-linejoin="round"/>
<path d="M38.1967 25.24C38.1467 25.19 38.0967 25.15 38.0467 25.1C38.0267 25.08 38.0067 25.06 37.9867 25.03C37.9367 24.97 37.8767 24.9 37.8367 24.83C37.8367 24.82 37.8167 24.81 37.8067 24.79C37.7467 24.7 37.6967 24.6 37.6467 24.5C37.6467 24.5 37.6467 24.48 37.6367 24.47C37.5967 24.38 37.5567 24.28 37.5267 24.19C37.5267 24.17 37.5167 24.15 37.5067 24.13C37.4767 24.02 37.4467 23.91 37.4167 23.8C37.4167 23.78 37.4167 23.77 37.4167 23.75C37.3967 23.63 37.3767 23.51 37.3667 23.38C37.3667 23.37 37.3667 23.35 37.3667 23.34C37.3567 23.2 37.3467 23.05 37.3467 22.9C37.3467 22.75 37.3467 22.59 37.3667 22.44C37.3667 22.43 37.3667 22.41 37.3667 22.4C37.3767 22.24 37.3967 22.09 37.4267 21.93C37.4467 21.77 37.4867 21.62 37.5167 21.46C37.5167 21.45 37.5167 21.43 37.5267 21.42C37.5667 21.27 37.6067 21.12 37.6467 20.96C37.6467 20.96 37.6467 20.94 37.6467 20.93C37.6967 20.77 37.7467 20.61 37.8067 20.46C37.8067 20.46 37.8067 20.44 37.8167 20.43C37.8767 20.28 37.9367 20.12 38.0067 19.97C38.0067 19.97 38.0067 19.95 38.0167 19.95C38.0867 19.79 38.1567 19.64 38.2367 19.49C38.2367 19.48 38.2467 19.46 38.2567 19.45C38.3167 19.32 38.3867 19.2 38.4567 19.08C38.4767 19.05 38.4967 19.01 38.5167 18.98C38.5567 18.91 38.6067 18.84 38.6467 18.76C38.6967 18.67 38.7467 18.59 38.8067 18.51C38.8967 18.38 38.9867 18.24 39.0867 18.11C39.1867 17.97 39.2967 17.83 39.4067 17.69C39.5167 17.56 39.6267 17.43 39.7467 17.31C39.7467 17.31 39.7667 17.29 39.7767 17.28C39.8867 17.17 39.9967 17.06 40.1067 16.95C40.1167 16.94 40.1367 16.93 40.1467 16.91C40.2567 16.81 40.3667 16.71 40.4867 16.61C40.4967 16.6 40.5167 16.59 40.5267 16.58C40.6467 16.48 40.7667 16.39 40.8867 16.31C40.8867 16.31 40.9067 16.3 40.9067 16.29C41.0367 16.2 41.1667 16.11 41.3067 16.04L39.0367 14.72C39.0367 14.72 39.0067 14.74 38.9967 14.74C38.9367 14.77 38.8867 14.81 38.8267 14.84C38.7667 14.88 38.7167 14.91 38.6567 14.95C38.6567 14.95 38.6467 14.96 38.6367 14.97C38.6367 14.97 38.6167 14.98 38.6167 14.99C38.5767 15.02 38.5267 15.05 38.4867 15.08C38.4267 15.12 38.3667 15.17 38.3167 15.21C38.2967 15.23 38.2767 15.24 38.2567 15.26C38.2467 15.27 38.2267 15.28 38.2167 15.29C38.1867 15.31 38.1667 15.33 38.1367 15.35C38.0767 15.4 38.0167 15.45 37.9567 15.5C37.9267 15.53 37.8967 15.55 37.8767 15.58C37.8667 15.59 37.8467 15.6 37.8367 15.62C37.8167 15.64 37.7967 15.65 37.7867 15.67C37.7267 15.72 37.6767 15.78 37.6167 15.84C37.5767 15.88 37.5467 15.92 37.5067 15.96C37.5067 15.96 37.4867 15.98 37.4767 15.99C37.4767 15.99 37.4567 16.01 37.4467 16.02C37.3967 16.08 37.3467 16.13 37.2867 16.19C37.2367 16.25 37.1867 16.31 37.1367 16.37C37.0867 16.43 37.0367 16.49 36.9867 16.55C36.9267 16.63 36.8667 16.7 36.8067 16.78C36.7167 16.9 36.6367 17.02 36.5567 17.14C36.5567 17.15 36.5367 17.17 36.5267 17.18C36.4667 17.26 36.4167 17.35 36.3667 17.43C36.3267 17.49 36.2867 17.55 36.2567 17.61C36.2567 17.62 36.2367 17.64 36.2367 17.65C36.2167 17.68 36.1967 17.72 36.1767 17.75C36.1367 17.82 36.0967 17.89 36.0667 17.95C36.0367 18.01 36.0067 18.06 35.9767 18.12C35.9767 18.13 35.9667 18.15 35.9567 18.16C35.9567 18.17 35.9467 18.18 35.9367 18.19C35.9067 18.26 35.8667 18.33 35.8367 18.4C35.8067 18.46 35.7767 18.53 35.7467 18.59C35.7467 18.59 35.7467 18.61 35.7367 18.62C35.7367 18.62 35.7367 18.64 35.7267 18.64C35.7067 18.69 35.6867 18.73 35.6667 18.78C35.6367 18.84 35.6167 18.91 35.5867 18.97C35.5667 19.01 35.5567 19.06 35.5367 19.1C35.5367 19.1 35.5367 19.12 35.5267 19.13C35.5267 19.14 35.5267 19.16 35.5167 19.17C35.4967 19.24 35.4667 19.31 35.4467 19.37C35.4267 19.44 35.4067 19.51 35.3767 19.58C35.3767 19.58 35.3767 19.6 35.3767 19.61C35.3767 19.61 35.3767 19.63 35.3767 19.64C35.3567 19.69 35.3467 19.74 35.3367 19.79C35.3167 19.86 35.2967 19.93 35.2767 20C35.2767 20.03 35.2667 20.06 35.2567 20.09C35.2567 20.1 35.2567 20.12 35.2467 20.13C35.2467 20.15 35.2367 20.18 35.2267 20.2C35.2067 20.27 35.1967 20.34 35.1867 20.41C35.1767 20.47 35.1667 20.54 35.1567 20.6C35.1467 20.67 35.1367 20.73 35.1267 20.8C35.1267 20.87 35.1067 20.93 35.1067 21C35.1067 21.02 35.1067 21.04 35.1067 21.07C35.1067 21.08 35.1067 21.1 35.1067 21.11C35.1067 21.14 35.1067 21.17 35.1067 21.2C35.1067 21.26 35.1067 21.33 35.1067 21.39C35.1067 21.45 35.1067 21.51 35.1067 21.57C35.1067 21.57 35.1067 21.57 35.1067 21.58C35.1067 21.65 35.1067 21.71 35.1067 21.77C35.1067 21.83 35.1067 21.9 35.1167 21.96C35.1167 21.98 35.1167 21.99 35.1167 22.01C35.1167 22.02 35.1167 22.04 35.1167 22.05C35.1167 22.09 35.1167 22.12 35.1267 22.16C35.1267 22.22 35.1467 22.29 35.1567 22.35C35.1567 22.37 35.1567 22.4 35.1667 22.42C35.1667 22.44 35.1667 22.45 35.1667 22.47C35.1667 22.49 35.1667 22.52 35.1867 22.54C35.2067 22.61 35.2167 22.68 35.2367 22.74C35.2367 22.76 35.2467 22.77 35.2567 22.79C35.2567 22.81 35.2667 22.83 35.2767 22.85C35.2867 22.88 35.2967 22.92 35.3067 22.95C35.3267 23.01 35.3567 23.08 35.3867 23.14C35.3867 23.14 35.3867 23.16 35.3967 23.17C35.4467 23.27 35.4967 23.36 35.5467 23.44C35.5467 23.45 35.5667 23.46 35.5767 23.48C35.6267 23.55 35.6767 23.62 35.7267 23.68C35.7467 23.7 35.7667 23.73 35.7867 23.75C35.8367 23.8 35.8867 23.85 35.9367 23.89C35.9567 23.91 35.9767 23.93 35.9967 23.95C36.0667 24.01 36.1467 24.06 36.2267 24.11L38.4967 25.43C38.4167 25.38 38.3367 25.33 38.2667 25.27C38.2467 25.25 38.2267 25.23 38.2067 25.21L38.1967 25.24Z" fill="#60C6AD" stroke="#2B2B2B" stroke-width="0.4" stroke-linecap="round" stroke-linejoin="round"/>
<path d="M41.2967 16.0199C39.0967 17.2899 37.3167 20.3699 37.3267 22.8999C37.3267 25.4299 39.1267 26.4499 41.3267 25.1799C43.5267 23.9099 45.3067 20.8299 45.2967 18.2999C45.2967 15.7699 43.4967 14.7499 41.2967 16.0199Z" fill="white" stroke="#2B2B2B" stroke-width="0.4" stroke-linecap="round" stroke-linejoin="round"/>
<path d="M26.1567 32.05L26.8567 32.07C26.8567 32.07 26.8967 32.07 26.9167 32.05C26.9967 32 27.0667 31.88 27.0467 31.79L26.9167 30.97C26.9167 30.97 26.9167 30.86 26.9567 30.81L27.5167 29.85C27.5967 29.71 27.5567 29.58 27.4367 29.63L26.6567 29.95C26.6567 29.95 26.5767 29.96 26.5567 29.92L26.2067 29.31C26.2067 29.31 26.1367 29.26 26.0867 29.29" fill="#60C6AD"/>
<path d="M26.1567 32.05L26.8567 32.07C26.8567 32.07 26.8967 32.07 26.9167 32.05C26.9967 32 27.0667 31.88 27.0467 31.79L26.9167 30.97C26.9167 30.97 26.9167 30.86 26.9567 30.81L27.5167 29.85C27.5967 29.71 27.5567 29.58 27.4367 29.63L26.6567 29.95C26.6567 29.95 26.5767 29.96 26.5567 29.92L26.2067 29.31C26.2067 29.31 26.1367 29.26 26.0867 29.29" stroke="#2B2B2B" stroke-width="0.4" stroke-linecap="round" stroke-linejoin="round"/>
<path d="M26.0967 29.3C26.0967 29.3 25.9967 29.39 25.9767 29.46L25.6267 30.48C25.6067 30.54 25.5667 30.5901 25.5267 30.6201L24.7467 31.2001C24.6367 31.2801 24.5967 31.47 24.6667 31.51L25.2367 31.82C25.2367 31.82 25.2867 31.8801 25.2767 31.9401L25.1467 32.91C25.1267 33.02 25.2067 33.0601 25.2767 33.0201C25.2967 33.0101 25.3167 32.99 25.3367 32.96L26.0367 32.1301C26.0367 32.1301 26.0767 32.09 26.0967 32.07C26.1167 32.05 26.1367 32.05 26.1567 32.05" fill="#60C6AD"/>
<path d="M26.0967 29.3C26.0967 29.3 25.9967 29.39 25.9767 29.46L25.6267 30.48C25.6067 30.54 25.5667 30.5901 25.5267 30.6201L24.7467 31.2001C24.6367 31.2801 24.5967 31.47 24.6667 31.51L25.2367 31.82C25.2367 31.82 25.2867 31.8801 25.2767 31.9401L25.1467 32.91C25.1267 33.02 25.2067 33.0601 25.2767 33.0201C25.2967 33.0101 25.3167 32.99 25.3367 32.96L26.0367 32.1301C26.0367 32.1301 26.0767 32.09 26.0967 32.07C26.1167 32.05 26.1367 32.05 26.1567 32.05" stroke="#2B2B2B" stroke-width="0.4" stroke-linecap="round" stroke-linejoin="round"/>
<path d="M30.3667 29.55L31.0667 29.57C31.0667 29.57 31.1067 29.57 31.1267 29.55C31.2067 29.5 31.2767 29.38 31.2567 29.29L31.1267 28.47C31.1267 28.47 31.1267 28.36 31.1667 28.31L31.7267 27.35C31.8067 27.21 31.7667 27.08 31.6467 27.13L30.8667 27.45C30.8667 27.45 30.7867 27.46 30.7667 27.42L30.4167 26.81C30.4167 26.81 30.3467 26.76 30.2967 26.79" fill="#60C6AD"/>
<path d="M30.3667 29.55L31.0667 29.57C31.0667 29.57 31.1067 29.57 31.1267 29.55C31.2067 29.5 31.2767 29.38 31.2567 29.29L31.1267 28.47C31.1267 28.47 31.1267 28.36 31.1667 28.31L31.7267 27.35C31.8067 27.21 31.7667 27.08 31.6467 27.13L30.8667 27.45C30.8667 27.45 30.7867 27.46 30.7667 27.42L30.4167 26.81C30.4167 26.81 30.3467 26.76 30.2967 26.79" stroke="#2B2B2B" stroke-width="0.4" stroke-linecap="round" stroke-linejoin="round"/>
<path d="M30.3067 26.8C30.3067 26.8 30.2067 26.89 30.1867 26.96L29.8367 27.98C29.8167 28.04 29.7767 28.0901 29.7367 28.1201L28.9567 28.7001C28.8467 28.7801 28.8067 28.97 28.8767 29.01L29.4467 29.32C29.4467 29.32 29.4967 29.3801 29.4867 29.4401L29.3567 30.41C29.3367 30.52 29.4167 30.5601 29.4867 30.5201C29.5067 30.5101 29.5267 30.49 29.5467 30.46L30.2467 29.63C30.2467 29.63 30.2867 29.59 30.3067 29.57C30.3267 29.55 30.3467 29.55 30.3667 29.55" fill="#60C6AD"/>
<path d="M30.3067 26.8C30.3067 26.8 30.2067 26.89 30.1867 26.96L29.8367 27.98C29.8167 28.04 29.7767 28.0901 29.7367 28.1201L28.9567 28.7001C28.8467 28.7801 28.8067 28.97 28.8767 29.01L29.4467 29.32C29.4467 29.32 29.4967 29.3801 29.4867 29.4401L29.3567 30.41C29.3367 30.52 29.4167 30.5601 29.4867 30.5201C29.5067 30.5101 29.5267 30.49 29.5467 30.46L30.2467 29.63C30.2467 29.63 30.2867 29.59 30.3067 29.57C30.3267 29.55 30.3467 29.55 30.3667 29.55" stroke="#2B2B2B" stroke-width="0.4" stroke-linecap="round" stroke-linejoin="round"/>
<path d="M22.1667 34.46L22.8667 34.48C22.8667 34.48 22.9067 34.48 22.9267 34.46C23.0067 34.41 23.0767 34.29 23.0567 34.2L22.9267 33.38C22.9267 33.38 22.9267 33.27 22.9667 33.22L23.5267 32.26C23.6067 32.12 23.5667 31.99 23.4467 32.04L22.6667 32.36C22.6667 32.36 22.5867 32.37 22.5667 32.33L22.2167 31.72C22.2167 31.72 22.1467 31.67 22.0967 31.7" fill="#60C6AD"/>
<path d="M22.1667 34.46L22.8667 34.48C22.8667 34.48 22.9067 34.48 22.9267 34.46C23.0067 34.41 23.0767 34.29 23.0567 34.2L22.9267 33.38C22.9267 33.38 22.9267 33.27 22.9667 33.22L23.5267 32.26C23.6067 32.12 23.5667 31.99 23.4467 32.04L22.6667 32.36C22.6667 32.36 22.5867 32.37 22.5667 32.33L22.2167 31.72C22.2167 31.72 22.1467 31.67 22.0967 31.7" stroke="#2B2B2B" stroke-width="0.4" stroke-linecap="round" stroke-linejoin="round"/>
<path d="M22.1067 31.71C22.1067 31.71 22.0067 31.8 21.9867 31.87L21.6367 32.89C21.6167 32.95 21.5767 33 21.5367 33.03L20.7567 33.61C20.6467 33.69 20.6067 33.88 20.6767 33.92L21.2467 34.23C21.2467 34.23 21.2967 34.29 21.2867 34.35L21.1567 35.32C21.1367 35.43 21.2167 35.47 21.2867 35.43C21.3067 35.42 21.3267 35.4 21.3467 35.37L22.0467 34.54C22.0467 34.54 22.0867 34.5 22.1067 34.48C22.1267 34.46 22.1467 34.46 22.1667 34.46" fill="#60C6AD"/>
<path d="M22.1067 31.71C22.1067 31.71 22.0067 31.8 21.9867 31.87L21.6367 32.89C21.6167 32.95 21.5767 33 21.5367 33.03L20.7567 33.61C20.6467 33.69 20.6067 33.88 20.6767 33.92L21.2467 34.23C21.2467 34.23 21.2967 34.29 21.2867 34.35L21.1567 35.32C21.1367 35.43 21.2167 35.47 21.2867 35.43C21.3067 35.42 21.3267 35.4 21.3467 35.37L22.0467 34.54C22.0467 34.54 22.0867 34.5 22.1067 34.48C22.1267 34.46 22.1467 34.46 22.1667 34.46" stroke="#2B2B2B" stroke-width="0.4" stroke-linecap="round" stroke-linejoin="round"/>
</g>
<defs>
<clipPath id="clip0_1547_5659">
<rect width="48" height="48" fill="white" transform="translate(0.666672)"/>
</clipPath>
</defs>
</svg>
