<svg width="48" height="48" viewBox="0 0 48 48" fill="none" xmlns="http://www.w3.org/2000/svg">
<g clip-path="url(#clip0_1548_38787)">
<g clip-path="url(#clip1_1548_38787)">
<path d="M9.32 46.7102L9.25 21.6402L5.93 19.7102L6 44.7802C6 45.3502 6.2 45.7502 6.53 45.9402L9.85 47.8702C9.52 47.6802 9.32 47.2802 9.32 46.7102Z" fill="#F8E2B2" stroke="#2B2B2B" stroke-width="0.4" stroke-linecap="round" stroke-linejoin="round"/>
<path d="M39.18 2.33009C39.28 2.30009 39.38 2.27009 39.48 2.26009C39.48 2.26009 39.5 2.26009 39.51 2.26009C39.61 2.26009 39.71 2.26009 39.8 2.27009C39.8 2.27009 39.8 2.27009 39.81 2.27009C39.9 2.29009 39.99 2.32009 40.07 2.37009L36.75 0.440088C36.72 0.420088 36.69 0.410088 36.66 0.400088C36.63 0.390088 36.6 0.380088 36.56 0.370088C36.54 0.370088 36.52 0.360088 36.49 0.350088C36.49 0.350088 36.49 0.350088 36.48 0.350088C36.48 0.350088 36.47 0.350088 36.46 0.350088C36.42 0.350088 36.39 0.340088 36.35 0.340088C36.31 0.340088 36.27 0.340088 36.23 0.340088C36.22 0.340088 36.2 0.340088 36.19 0.340088C36.19 0.340088 36.17 0.340088 36.16 0.340088C36.14 0.340088 36.12 0.340088 36.09 0.340088C36.04 0.340088 35.98 0.360088 35.93 0.370088C35.91 0.370088 35.88 0.390088 35.86 0.390088C35.84 0.390088 35.82 0.400088 35.8 0.410088C35.77 0.410088 35.75 0.430088 35.72 0.440088C35.64 0.470088 35.55 0.520088 35.47 0.570088L7.73 16.5901L11.05 18.5201L38.78 2.51009C38.89 2.44009 39.01 2.40009 39.11 2.36009C39.13 2.36009 39.15 2.34009 39.17 2.34009L39.18 2.33009Z" fill="white" stroke="#2B2B2B" stroke-width="0.4" stroke-linecap="round" stroke-linejoin="round"/>
<path d="M38.78 2.51004C39.78 1.93004 40.59 2.39004 40.6 3.55004L40.67 28.62C40.67 29.77 39.87 31.17 38.87 31.75L11.14 47.76C10.14 48.34 9.33 47.87 9.32 46.72L9.25 21.65C9.25 20.5 10.06 19.1 11.05 18.52L38.78 2.51004Z" fill="white" stroke="#2B2B2B" stroke-width="0.4" stroke-linecap="round" stroke-linejoin="round"/>
<path d="M20.41 18.6001L12.8 22.9901C12.32 23.2701 11.92 23.9501 11.92 24.5101L11.97 43.0001C11.97 43.5601 12.37 43.7801 12.85 43.5001L20.46 39.1101C20.95 38.8301 21.34 38.1501 21.34 37.5901L21.29 19.1001C21.29 18.5401 20.89 18.3201 20.41 18.6001Z" fill="white" stroke="#2B2B2B" stroke-width="0.4" stroke-linecap="round" stroke-linejoin="round"/>
<path d="M17.59 24.1801L16.63 26.9101L15.66 25.3001L14.63 26.4001C14.33 26.7201 14.1 27.1401 14 27.5501L13.58 29.2901L15.01 29.0401L15.19 30.3901C15.19 30.3901 13.87 34.3701 13.89 38.9401L16.89 37.2101L18.14 35.6101L18.35 36.3701L19.42 35.7501C19.41 31.1801 18.08 28.7301 18.08 28.7301L18.26 27.1701L19.69 25.7601L19.26 24.5001C19.16 24.2001 18.93 24.0501 18.63 24.0701L17.6 24.1601" fill="#F8E2B2"/>
<path d="M17.59 24.1801L16.63 26.9101L15.66 25.3001L14.63 26.4001C14.33 26.7201 14.1 27.1401 14 27.5501L13.58 29.2901L15.01 29.0401L15.19 30.3901C15.19 30.3901 13.87 34.3701 13.89 38.9401L16.89 37.2101L18.14 35.6101L18.35 36.3701L19.42 35.7501C19.41 31.1801 18.08 28.7301 18.08 28.7301L18.26 27.1701L19.69 25.7601L19.26 24.5001C19.16 24.2001 18.93 24.0501 18.63 24.0701L17.6 24.1601" stroke="#2B2B2B" stroke-width="0.4" stroke-linecap="round" stroke-linejoin="round"/>
<path d="M15.19 30.4L18.08 28.74" stroke="#2B2B2B" stroke-width="0.4" stroke-linecap="round" stroke-linejoin="round"/>
<path d="M17.59 24.1802C17.31 24.6102 16.97 24.9502 16.62 25.1502C16.27 25.3502 15.93 25.4102 15.65 25.3002L16.62 26.9102L17.58 24.1802" fill="#2B2B2B"/>
<path d="M17.59 24.1802C17.31 24.6102 16.97 24.9502 16.62 25.1502C16.27 25.3502 15.93 25.4102 15.65 25.3002L16.62 26.9102L17.58 24.1802" stroke="#2B2B2B" stroke-width="0.4" stroke-linecap="round" stroke-linejoin="round"/>
<path d="M38.26 15.9801L23.8 24.3301C23.67 24.4101 23.56 24.6001 23.56 24.7501C23.56 24.9001 23.67 24.9601 23.8 24.8901L38.26 16.5401C38.39 16.4601 38.5 16.2801 38.5 16.1201C38.5 15.9601 38.39 15.9001 38.26 15.9801Z" fill="#2B2B2B"/>
<path d="M32.61 24.0502L23.81 29.1302C23.68 29.2102 23.57 29.3902 23.57 29.5502C23.57 29.7102 23.68 29.7602 23.81 29.6902L32.61 24.6102C32.74 24.5302 32.85 24.3502 32.85 24.1902C32.85 24.0302 32.74 23.9802 32.61 24.0502Z" fill="#2B2B2B"/>
<path d="M32.24 12.7702L29.94 14.1202L28.99 14.6802L28.98 14.6702L28.96 14.6602H28.95L23.24 11.5702L23.27 11.5602L26.53 9.68018L32.24 12.7702Z" fill="white" stroke="#2B2B2B" stroke-width="0.4" stroke-linecap="round" stroke-linejoin="round"/>
<path d="M45.33 5.21012H45.32L45.31 5.22012L42.07 7.12012L42.06 7.11012L42.04 7.10012L36.33 4.01012L36.35 4.00012L39.59 2.13012L39.61 2.12012L45.33 5.21012Z" fill="white" stroke="#2B2B2B" stroke-width="0.4" stroke-linecap="round" stroke-linejoin="round"/>
<path d="M45.17 7.65997C44.62 8.80997 43.52 9.09997 42.72 8.29997C42.41 7.99997 42.19 7.57997 42.07 7.12997L45.33 5.21997C45.57 5.99997 45.53 6.91997 45.18 7.66997L45.17 7.65997Z" fill="white" stroke="#2B2B2B" stroke-width="0.4" stroke-linecap="round" stroke-linejoin="round"/>
<path d="M42.06 7.09L42.04 7.1L38.81 9L38.8 8.99L33.07 5.9L36.33 4.01L36.35 4L42.06 7.09Z" fill="#EDBD66" stroke="#2B2B2B" stroke-width="0.4" stroke-linecap="round" stroke-linejoin="round"/>
<path d="M41.91 9.5401C41.36 10.6901 40.26 10.9801 39.46 10.1801C39.15 9.8801 38.93 9.4601 38.81 9.0101L42.07 7.1001C42.31 7.8801 42.28 8.8001 41.92 9.5501L41.91 9.5401Z" fill="#EDBD66" stroke="#2B2B2B" stroke-width="0.4" stroke-linecap="round" stroke-linejoin="round"/>
<path d="M38.81 9.00015H38.8L35.55 10.9101L35.54 10.9001H35.53L35.52 10.8901L29.78 7.79015L29.81 7.78015L33.07 5.90015L38.8 8.99015L38.81 9.00015Z" fill="white" stroke="#2B2B2B" stroke-width="0.4" stroke-linecap="round" stroke-linejoin="round"/>
<path d="M38.65 11.45C38.1 12.6 37 12.89 36.2 12.09C35.89 11.79 35.67 11.37 35.55 10.92L38.81 9.01001C39.05 9.79001 39.02 10.71 38.66 11.46L38.65 11.45Z" fill="white" stroke="#2B2B2B" stroke-width="0.4" stroke-linecap="round" stroke-linejoin="round"/>
<path d="M35.54 10.88V10.89L35.53 10.9L34.1 11.73L32.29 12.79L26.52 9.67003L29.78 7.79003L29.81 7.78003L35.54 10.88Z" fill="#EDBD66" stroke="#2B2B2B" stroke-width="0.4" stroke-linecap="round" stroke-linejoin="round"/>
<path d="M35.39 13.3401C34.84 14.4901 33.74 14.7801 32.94 13.9801C32.63 13.6801 32.41 13.2601 32.29 12.8101L35.55 10.9001C35.79 11.6801 35.75 12.6001 35.4 13.3501L35.39 13.3401Z" fill="#EDBD66" stroke="#2B2B2B" stroke-width="0.4" stroke-linecap="round" stroke-linejoin="round"/>
<path d="M32.09 15.22C31.54 16.37 30.44 16.66 29.64 15.86C29.33 15.56 29.11 15.14 28.99 14.69L32.25 12.78C32.49 13.56 32.45 14.48 32.1 15.23L32.09 15.22Z" fill="white" stroke="#2B2B2B" stroke-width="0.4" stroke-linecap="round" stroke-linejoin="round"/>
<path d="M28.98 14.6501H28.97L28.96 14.6601L25.72 16.5601L25.71 16.5501L25.69 16.5401L19.98 13.4601L20.01 13.4401L23.24 11.5701L23.27 11.5601L28.98 14.6501Z" fill="#EDBD66" stroke="#2B2B2B" stroke-width="0.4" stroke-linecap="round" stroke-linejoin="round"/>
<path d="M28.82 17.1002C28.27 18.2502 27.17 18.5402 26.37 17.7402C26.06 17.4402 25.84 17.0202 25.72 16.5702L28.98 14.6602C29.22 15.4402 29.18 16.3602 28.83 17.1102L28.82 17.1002Z" fill="#EDBD66" stroke="#2B2B2B" stroke-width="0.4" stroke-linecap="round" stroke-linejoin="round"/>
<path d="M25.72 16.5302H25.71L25.69 16.5402L22.46 18.4402L16.72 15.3402L19.98 13.4602L20.01 13.4402L25.72 16.5302Z" fill="white" stroke="#2B2B2B" stroke-width="0.4" stroke-linecap="round" stroke-linejoin="round"/>
<path d="M25.56 18.99C25.01 20.14 23.91 20.43 23.11 19.63C22.8 19.33 22.58 18.91 22.46 18.46L25.72 16.55C25.96 17.33 25.93 18.25 25.57 19L25.56 18.99Z" fill="white" stroke="#2B2B2B" stroke-width="0.4" stroke-linecap="round" stroke-linejoin="round"/>
<path d="M22.46 18.4401V18.4501L19.2 20.3501H19.19L19.18 20.3401L19.17 20.3301L13.44 17.2401L13.46 17.2201L16.72 15.3401L22.46 18.4401Z" fill="#EDBD66" stroke="#2B2B2B" stroke-width="0.4" stroke-linecap="round" stroke-linejoin="round"/>
<path d="M22.3 20.9002C21.75 22.0502 20.65 22.3402 19.85 21.5402C19.54 21.2402 19.32 20.8202 19.2 20.3702L22.46 18.4602C22.7 19.2402 22.67 20.1602 22.31 20.9102L22.3 20.9002Z" fill="#EDBD66" stroke="#2B2B2B" stroke-width="0.4" stroke-linecap="round" stroke-linejoin="round"/>
<path d="M19.19 20.33L19.18 20.34L17.75 21.17L15.94 22.24L10.18 19.12L13.44 17.24L13.46 17.22L19.19 20.33Z" fill="white" stroke="#2B2B2B" stroke-width="0.4" stroke-linecap="round" stroke-linejoin="round"/>
<path d="M19.04 22.7801C18.49 23.9301 17.39 24.2201 16.59 23.4201C16.28 23.1201 16.06 22.7001 15.94 22.2501L19.2 20.3401C19.44 21.1201 19.4 22.0401 19.05 22.7901L19.04 22.7801Z" fill="white" stroke="#2B2B2B" stroke-width="0.4" stroke-linecap="round" stroke-linejoin="round"/>
<path d="M9.25 21.6401L5.93 19.7101C5.93 18.5601 6.74 17.1601 7.73 16.5801L11.05 18.5101C10.05 19.0901 9.24 20.4901 9.25 21.6401Z" fill="#2B2B2B"/>
<mask id="mask0_1548_38787" style="mask-type:luminance" maskUnits="userSpaceOnUse" x="5" y="16" width="7" height="6">
<path d="M9.25 21.6401L5.93 19.7101C5.93 18.5601 6.74 17.1601 7.73 16.5801L11.05 18.5101C10.05 19.0901 9.24 20.4901 9.25 21.6401Z" fill="white"/>
</mask>
<g mask="url(#mask0_1548_38787)">
<path d="M9.25 21.6401L5.93 19.7101C5.93 19.5901 5.93 19.4801 5.95 19.3601L9.27 21.2901C9.25 21.4101 9.25 21.5301 9.25 21.6401Z" fill="#2B2B2B" stroke="#2B2B2B" stroke-width="0.4" stroke-linecap="round" stroke-linejoin="round"/>
<path d="M9.27 21.2901L5.95 19.3601C5.96 19.2801 5.98 19.1901 5.99 19.1101L9.31 21.0401C9.29 21.1201 9.28 21.2101 9.27 21.2901Z" fill="#2B2B2B" stroke="#2B2B2B" stroke-width="0.4" stroke-linecap="round" stroke-linejoin="round"/>
<path d="M9.32 21.0401L6 19.1101C6.01 19.0401 6.03 18.9701 6.05 18.9001L9.37 20.8301C9.35 20.9001 9.33 20.9701 9.32 21.0401Z" fill="#2B2B2B" stroke="#2B2B2B" stroke-width="0.4" stroke-linecap="round" stroke-linejoin="round"/>
<path d="M9.37 20.83L6.05 18.9C6.07 18.84 6.09 18.78 6.11 18.72L9.43 20.65C9.41 20.71 9.39 20.77 9.37 20.83Z" fill="#2B2B2B" stroke="#2B2B2B" stroke-width="0.4" stroke-linecap="round" stroke-linejoin="round"/>
<path d="M9.42 20.65L6.1 18.72C6.12 18.66 6.14 18.61 6.16 18.55L9.48 20.48C9.46 20.54 9.44 20.59 9.42 20.65Z" fill="#2B2B2B" stroke="#2B2B2B" stroke-width="0.4" stroke-linecap="round" stroke-linejoin="round"/>
<path d="M9.48 20.4701L6.16 18.5401C6.18 18.4901 6.2 18.4301 6.23 18.3801L9.55 20.3101C9.53 20.3601 9.5 20.4201 9.48 20.4701Z" fill="#2B2B2B" stroke="#2B2B2B" stroke-width="0.4" stroke-linecap="round" stroke-linejoin="round"/>
<path d="M9.55 20.31L6.23 18.38C6.25 18.33 6.28 18.27 6.3 18.22L9.62 20.15C9.59 20.2 9.57 20.25 9.55 20.31Z" fill="#2B2B2B" stroke="#2B2B2B" stroke-width="0.4" stroke-linecap="round" stroke-linejoin="round"/>
<path d="M9.62 20.1601L6.3 18.2301C6.32 18.1801 6.35 18.1301 6.38 18.0801L9.7 20.0101C9.67 20.0601 9.65 20.1101 9.62 20.1601Z" fill="#2B2B2B" stroke="#2B2B2B" stroke-width="0.4" stroke-linecap="round" stroke-linejoin="round"/>
<path d="M9.7 20.0002L6.38 18.0702C6.41 18.0202 6.44 17.9702 6.46 17.9202L9.78 19.8502C9.75 19.9002 9.72 19.9502 9.7 20.0002Z" fill="#2B2B2B" stroke="#2B2B2B" stroke-width="0.4" stroke-linecap="round" stroke-linejoin="round"/>
<path d="M9.79 19.85L6.47 17.92C6.5 17.87 6.53 17.82 6.56 17.77L9.88 19.7C9.85 19.75 9.82 19.8 9.79 19.85Z" fill="#2B2B2B" stroke="#2B2B2B" stroke-width="0.4" stroke-linecap="round" stroke-linejoin="round"/>
<path d="M9.88 19.7001L6.56 17.7701C6.59 17.7201 6.63 17.6601 6.66 17.6101L9.98 19.5401C9.94 19.5901 9.91 19.6401 9.88 19.7001Z" fill="#2B2B2B" stroke="#2B2B2B" stroke-width="0.4" stroke-linecap="round" stroke-linejoin="round"/>
<path d="M9.98 19.5402L6.66 17.6102C6.7 17.5502 6.74 17.5002 6.78 17.4502L10.1 19.3802C10.06 19.4302 10.02 19.4902 9.98 19.5402Z" fill="#2B2B2B" stroke="#2B2B2B" stroke-width="0.4" stroke-linecap="round" stroke-linejoin="round"/>
<path d="M10.11 19.38L6.79 17.45C6.84 17.39 6.89 17.33 6.94 17.27L10.26 19.2C10.21 19.26 10.16 19.32 10.11 19.38Z" fill="#2B2B2B" stroke="#2B2B2B" stroke-width="0.4" stroke-linecap="round" stroke-linejoin="round"/>
<path d="M10.25 19.2001L6.93 17.2701C6.99 17.2001 7.06 17.1301 7.13 17.0601L10.45 18.9901C10.38 19.0601 10.32 19.1301 10.25 19.2001Z" fill="#2B2B2B" stroke="#2B2B2B" stroke-width="0.4" stroke-linecap="round" stroke-linejoin="round"/>
<path d="M10.45 18.9901L7.13 17.0601C7.32 16.8701 7.52 16.7101 7.73 16.5901L11.05 18.5201C10.84 18.6401 10.63 18.8001 10.45 18.9901Z" fill="#2B2B2B" stroke="#2B2B2B" stroke-width="0.4" stroke-linecap="round" stroke-linejoin="round"/>
</g>
<path d="M9.25 21.6401L5.93 19.7101C5.93 18.5601 6.74 17.1601 7.73 16.5801L11.05 18.5101C10.05 19.0901 9.24 20.4901 9.25 21.6401Z" stroke="#2B2B2B" stroke-width="0.4" stroke-linecap="round" stroke-linejoin="round"/>
</g>
</g>
<defs>
<clipPath id="clip0_1548_38787">
<rect width="48" height="48" fill="white"/>
</clipPath>
<clipPath id="clip1_1548_38787">
<rect width="48" height="48" fill="white"/>
</clipPath>
</defs>
</svg>
