<svg width="48" height="48" viewBox="0 0 48 48" fill="none" xmlns="http://www.w3.org/2000/svg">
<path d="M3.69 44.61L3.62 21.4799L0.559998 19.7L0.629998 42.83C0.629998 43.36 0.819998 43.73 1.12 43.9L4.18 45.68C3.88 45.51 3.69 45.14 3.69 44.61Z" fill="#1CCBAE" stroke="#2B2B2B" stroke-width="0.4" stroke-linecap="round" stroke-linejoin="round"/>
<path d="M31.24 3.65996C31.33 3.62996 31.43 3.60996 31.51 3.59996H31.53C31.62 3.59996 31.71 3.59996 31.8 3.60996C31.8 3.60996 31.8 3.60996 31.81 3.60996C31.9 3.62996 31.98 3.65996 32.05 3.69996L28.99 1.91996C28.96 1.89996 28.94 1.88996 28.91 1.87996C28.88 1.86996 28.85 1.85996 28.82 1.84996C28.8 1.84996 28.78 1.84996 28.76 1.83996C28.76 1.83996 28.76 1.83996 28.75 1.83996C28.75 1.83996 28.74 1.83996 28.73 1.83996C28.7 1.83996 28.66 1.83996 28.63 1.82996C28.59 1.82996 28.56 1.82996 28.52 1.82996C28.51 1.82996 28.49 1.82996 28.48 1.82996H28.46C28.44 1.82996 28.42 1.82996 28.4 1.82996C28.35 1.82996 28.3 1.84996 28.25 1.85996C28.23 1.85996 28.21 1.87996 28.19 1.87996C28.17 1.87996 28.15 1.88996 28.13 1.89996C28.11 1.89996 28.08 1.91996 28.06 1.92996C27.98 1.95996 27.9 1.99996 27.83 2.04996L2.22 16.81L5.28 18.59L30.87 3.81996C30.98 3.75996 31.08 3.70996 31.18 3.67996C31.2 3.67996 31.22 3.66996 31.24 3.65996Z" fill="white" stroke="#2B2B2B" stroke-width="0.4" stroke-linecap="round" stroke-linejoin="round"/>
<path d="M30.87 3.81993C31.79 3.28993 32.54 3.70993 32.55 4.77993L32.62 27.9099C32.62 28.9699 31.88 30.2599 30.95 30.7899L5.37 45.5599C4.45 46.0899 3.7 45.6599 3.69 44.5999L3.62 21.4699C3.62 20.4099 4.36 19.1199 5.29 18.5899L30.87 3.81993Z" fill="white" stroke="#2B2B2B" stroke-width="0.4" stroke-linecap="round" stroke-linejoin="round"/>
<mask id="mask0_1547_5558" style="mask-type:luminance" maskUnits="userSpaceOnUse" x="4" y="31" width="4" height="5">
<path d="M4.97 35.02V32.67L7.01 31.49V33.84L4.97 35.02Z" fill="white"/>
</mask>
<g mask="url(#mask0_1547_5558)">
<path d="M5.99 32.4101C5.58 32.6501 5.25 33.2201 5.25 33.6901C5.25 34.1601 5.58 34.3501 5.99 34.1101C6.4 33.8701 6.72 33.3001 6.72 32.8401C6.72 32.3701 6.39 32.1801 5.98 32.4101" fill="#2B2B2B"/>
<path d="M5.99 32.08C5.42 32.41 4.97 33.2 4.97 33.84C4.97 34.48 5.43 34.75 5.99 34.42C6.55 34.09 7.01 33.31 7.01 32.66L6.87 32.74L6.72 32.82C6.72 33.29 6.4 33.86 5.99 34.09C5.58 34.32 5.25 34.14 5.25 33.67C5.25 33.2 5.58 32.63 5.99 32.39C6.4 32.15 6.73 32.35 6.73 32.82L6.88 32.74L7.02 32.66C7.02 32.01 6.56 31.75 6 32.08" fill="#2B2B2B"/>
</g>
<path d="M32.38 6.04993L14.38 16.4399L3.64999 22.6399" stroke="#2B2B2B" stroke-width="0.4" stroke-linecap="round" stroke-linejoin="round"/>
<path d="M3.62 21.4799L0.559998 19.6999C0.559998 18.6399 1.3 17.3499 2.23 16.8199L5.29 18.5999C4.37 19.1299 3.62 20.4199 3.62 21.4799Z" fill="#2B2B2B"/>
<mask id="mask1_1547_5558" style="mask-type:luminance" maskUnits="userSpaceOnUse" x="0" y="16" width="6" height="6">
<path d="M3.62 21.4799L0.559998 19.6999C0.559998 18.6399 1.3 17.3499 2.23 16.8199L5.29 18.5999C4.37 19.1299 3.62 20.4199 3.62 21.4799Z" fill="white"/>
</mask>
<g mask="url(#mask1_1547_5558)">
<path d="M3.62 21.48L0.559998 19.7C0.559998 19.59 0.559998 19.48 0.579998 19.37L3.64 21.15C3.63 21.26 3.62 21.37 3.62 21.48Z" fill="#2B2B2B" stroke="#2B2B2B" stroke-width="0.4" stroke-linecap="round" stroke-linejoin="round"/>
<path d="M3.63999 21.1499L0.579994 19.3699C0.579994 19.2899 0.599994 19.2199 0.619994 19.1399L3.67999 20.9199C3.65999 20.9999 3.64999 21.0699 3.63999 21.1499Z" fill="#2B2B2B" stroke="#2B2B2B" stroke-width="0.4" stroke-linecap="round" stroke-linejoin="round"/>
<path d="M3.68 20.92L0.619995 19.1399C0.629995 19.0799 0.649995 19.01 0.669995 18.95L3.73 20.7299C3.71 20.7899 3.7 20.86 3.68 20.92Z" fill="#2B2B2B" stroke="#2B2B2B" stroke-width="0.4" stroke-linecap="round" stroke-linejoin="round"/>
<path d="M3.73 20.7299L0.669998 18.9499C0.689998 18.8899 0.699998 18.8399 0.719998 18.7799L3.78 20.5599C3.76 20.6199 3.74 20.6699 3.73 20.7299Z" fill="#2B2B2B" stroke="#2B2B2B" stroke-width="0.4" stroke-linecap="round" stroke-linejoin="round"/>
<path d="M3.78 20.56L0.720001 18.78C0.740001 18.73 0.760001 18.67 0.780001 18.62L3.84 20.4C3.82 20.45 3.8 20.5 3.78 20.56Z" fill="#2B2B2B" stroke="#2B2B2B" stroke-width="0.4" stroke-linecap="round" stroke-linejoin="round"/>
<path d="M3.84 20.4L0.779999 18.62C0.799999 18.57 0.819999 18.52 0.839999 18.47L3.9 20.25C3.9 20.25 3.86 20.35 3.84 20.4Z" fill="#2B2B2B" stroke="#2B2B2B" stroke-width="0.4" stroke-linecap="round" stroke-linejoin="round"/>
<path d="M3.9 20.25L0.839996 18.47C0.839996 18.47 0.879996 18.37 0.909996 18.33L3.97 20.11C3.97 20.11 3.92 20.21 3.9 20.25Z" fill="#2B2B2B" stroke="#2B2B2B" stroke-width="0.4" stroke-linecap="round" stroke-linejoin="round"/>
<path d="M3.97 20.0999L0.909996 18.3199C0.909996 18.3199 0.959996 18.2199 0.979996 18.1799L4.04 19.9599C4.04 19.9599 3.99 20.0499 3.97 20.0999Z" fill="#2B2B2B" stroke="#2B2B2B" stroke-width="0.4" stroke-linecap="round" stroke-linejoin="round"/>
<path d="M4.04 19.9599L0.979996 18.1799C0.979996 18.1799 1.03 18.0899 1.06 18.0399L4.12 19.8199C4.12 19.8199 4.07 19.9099 4.04 19.9599Z" fill="#2B2B2B" stroke="#2B2B2B" stroke-width="0.4" stroke-linecap="round" stroke-linejoin="round"/>
<path d="M4.12 19.8199L1.06 18.0399C1.06 18.0399 1.12 17.9499 1.15 17.8999L4.21 19.6799C4.21 19.6799 4.15 19.7699 4.12 19.8199Z" fill="#2B2B2B" stroke="#2B2B2B" stroke-width="0.4" stroke-linecap="round" stroke-linejoin="round"/>
<path d="M4.2 19.6799L1.14 17.8999C1.14 17.8999 1.2 17.7999 1.24 17.7599L4.3 19.5399C4.3 19.5399 4.23 19.6399 4.2 19.6799Z" fill="#2B2B2B" stroke="#2B2B2B" stroke-width="0.4" stroke-linecap="round" stroke-linejoin="round"/>
<path d="M4.3 19.54L1.24 17.76C1.28 17.71 1.31 17.66 1.35 17.61L4.41 19.39C4.41 19.39 4.33 19.49 4.3 19.54Z" fill="#2B2B2B" stroke="#2B2B2B" stroke-width="0.4" stroke-linecap="round" stroke-linejoin="round"/>
<path d="M4.41 19.3799L1.35 17.5999C1.39 17.5399 1.44 17.4899 1.49 17.4299L4.55 19.2099C4.5 19.2599 4.46 19.3199 4.41 19.3799Z" fill="#2B2B2B" stroke="#2B2B2B" stroke-width="0.4" stroke-linecap="round" stroke-linejoin="round"/>
<path d="M4.55 19.2199L1.49 17.4399C1.55 17.3699 1.61 17.3099 1.67 17.2499L4.73 19.0299C4.67 19.0899 4.61 19.1599 4.55 19.2199Z" fill="#2B2B2B" stroke="#2B2B2B" stroke-width="0.4" stroke-linecap="round" stroke-linejoin="round"/>
<path d="M4.73 19.0199L1.67 17.2399C1.84 17.0699 2.03 16.9199 2.23 16.8099L5.29 18.5899C5.09 18.6999 4.91 18.8499 4.73 19.0199Z" fill="#2B2B2B" stroke="#2B2B2B" stroke-width="0.4" stroke-linecap="round" stroke-linejoin="round"/>
</g>
<path d="M3.62 21.4799L0.559998 19.6999C0.559998 18.6399 1.3 17.3499 2.23 16.8199L5.29 18.5999C4.37 19.1299 3.62 20.4199 3.62 21.4799Z" stroke="#2B2B2B" stroke-width="0.4" stroke-linecap="round" stroke-linejoin="round"/>
<path d="M13.88 19.0901L8.24 22.3501C7.68 22.6701 7.23 23.4501 7.23 24.1001L7.26 35.8001C7.26 36.4401 7.72 36.7001 8.27 36.3801L13.91 33.1201C14.47 32.8001 14.92 32.0201 14.92 31.3701L14.89 19.6701C14.89 19.0301 14.43 18.7701 13.88 19.0901Z" fill="#EAF8F6" stroke="#2B2B2B" stroke-width="0.4" stroke-miterlimit="10"/>
<path d="M21.28 14.81L18.14 16.62C17.58 16.94 17.13 17.72 17.13 18.37V21.98C17.14 22.62 17.6 22.88 18.15 22.56L21.29 20.75C21.85 20.43 22.3 19.65 22.3 19V15.39C22.29 14.75 21.83 14.49 21.28 14.81Z" fill="#EAF8F6" stroke="#2B2B2B" stroke-width="0.4" stroke-miterlimit="10"/>
<path d="M28.68 10.54L25.54 12.35C24.98 12.67 24.53 13.45 24.53 14.1V17.71C24.54 18.35 25 18.61 25.55 18.29L28.69 16.48C29.25 16.16 29.7 15.37 29.7 14.73V11.12C29.69 10.48 29.23 10.22 28.67 10.54" fill="white"/>
<path d="M28.68 10.54L25.54 12.35C24.98 12.67 24.53 13.45 24.53 14.1V17.71C24.54 18.35 25 18.61 25.55 18.29L28.69 16.48C29.25 16.16 29.7 15.37 29.7 14.73V11.12C29.69 10.48 29.23 10.22 28.67 10.54" stroke="#2B2B2B" stroke-width="0.4" stroke-linecap="round" stroke-linejoin="round"/>
<path d="M21.3 22.91L18.16 24.72C17.6 25.04 17.15 25.82 17.15 26.47V30.08C17.16 30.72 17.62 30.98 18.17 30.66L21.31 28.85C21.87 28.53 22.32 27.75 22.32 27.1V23.49C22.31 22.85 21.85 22.59 21.3 22.91Z" fill="white" stroke="#2B2B2B" stroke-width="0.4" stroke-linecap="round" stroke-linejoin="round"/>
<path d="M28.7 18.63L25.56 20.44C25 20.76 24.55 21.54 24.55 22.19V25.8C24.56 26.44 25.02 26.7 25.57 26.38L28.71 24.57C29.27 24.25 29.72 23.46 29.72 22.82V19.21C29.71 18.57 29.25 18.31 28.69 18.63" fill="#EAF8F6"/>
<path d="M28.7 18.63L25.56 20.44C25 20.76 24.55 21.54 24.55 22.19V25.8C24.56 26.44 25.02 26.7 25.57 26.38L28.71 24.57C29.27 24.25 29.72 23.46 29.72 22.82V19.21C29.71 18.57 29.25 18.31 28.69 18.63" stroke="#2B2B2B" stroke-width="0.4" stroke-miterlimit="10"/>
<path d="M17.78 44.43L17.72 23.5L14.95 21.89L15.01 42.82C15.01 43.3 15.18 43.63 15.45 43.79L18.22 45.4C17.95 45.24 17.78 44.91 17.78 44.43Z" fill="#1CCBAE" stroke="#2B2B2B" stroke-width="0.4" stroke-linecap="round" stroke-linejoin="round"/>
<mask id="mask2_1547_5558" style="mask-type:luminance" maskUnits="userSpaceOnUse" x="15" y="32" width="3" height="4">
<path d="M15.69 34.64L15.7 32.9L17.21 33.77V35.51L15.69 34.64Z" fill="white"/>
</mask>
<g mask="url(#mask2_1547_5558)">
<path d="M16.46 33.3401C16.04 33.1001 15.7 33.2901 15.7 33.7701C15.7 34.2501 16.04 34.8301 16.46 35.0701C16.88 35.3101 17.21 35.1201 17.22 34.6401C17.23 34.1601 16.88 33.5701 16.47 33.3301" fill="white"/>
</g>
<path d="M42.7 7.37997C42.79 7.34997 42.87 7.32997 42.95 7.32997C42.95 7.32997 42.96 7.32997 42.97 7.32997C43.06 7.32997 43.14 7.32997 43.21 7.33997C43.21 7.33997 43.21 7.33997 43.22 7.33997C43.3 7.35997 43.37 7.37997 43.44 7.41997L40.67 5.80997C40.65 5.79997 40.62 5.77997 40.59 5.76997C40.56 5.75997 40.54 5.74997 40.51 5.73997C40.49 5.73997 40.47 5.73997 40.46 5.72997C40.46 5.72997 40.46 5.72997 40.45 5.72997C40.45 5.72997 40.44 5.72997 40.43 5.72997C40.4 5.72997 40.37 5.72997 40.34 5.71997C40.31 5.71997 40.27 5.71997 40.24 5.71997C40.23 5.71997 40.22 5.71997 40.21 5.71997C40.21 5.71997 40.2 5.71997 40.19 5.71997C40.17 5.71997 40.15 5.71997 40.13 5.71997C40.09 5.71997 40.04 5.73997 40 5.74997C39.98 5.74997 39.96 5.75997 39.94 5.76997C39.92 5.76997 39.9 5.77997 39.89 5.78997C39.87 5.78997 39.85 5.79997 39.82 5.80997C39.75 5.83997 39.68 5.86997 39.61 5.91997L16.47 19.28L19.24 20.89L42.38 7.52997C42.48 7.46997 42.57 7.42997 42.66 7.39997C42.68 7.39997 42.7 7.38997 42.71 7.37997H42.7Z" fill="white" stroke="#2B2B2B" stroke-width="0.4" stroke-linecap="round" stroke-linejoin="round"/>
<path d="M42.37 7.52998C43.21 7.04998 43.88 7.42998 43.89 8.38998L43.95 29.32C43.95 30.28 43.28 31.45 42.44 31.93L19.3 45.29C18.47 45.77 17.79 45.38 17.78 44.43L17.72 23.5C17.72 22.54 18.39 21.37 19.23 20.89L42.37 7.52998Z" fill="white" stroke="#2B2B2B" stroke-width="0.4" stroke-linecap="round" stroke-linejoin="round"/>
<path d="M43.74 9.53992L27.45 18.9499L17.75 24.5499" stroke="#2B2B2B" stroke-width="0.4" stroke-linecap="round" stroke-linejoin="round"/>
<path d="M17.72 23.5L14.95 21.89C14.95 20.93 15.62 19.76 16.46 19.28L19.23 20.89C18.4 21.37 17.72 22.54 17.72 23.5Z" fill="#2B2B2B"/>
<mask id="mask3_1547_5558" style="mask-type:luminance" maskUnits="userSpaceOnUse" x="14" y="19" width="6" height="5">
<path d="M17.72 23.5L14.95 21.89C14.95 20.93 15.62 19.76 16.46 19.28L19.23 20.89C18.4 21.37 17.72 22.54 17.72 23.5Z" fill="white"/>
</mask>
<g mask="url(#mask3_1547_5558)">
<path d="M17.72 23.5001L14.95 21.8901C14.95 21.7901 14.95 21.6901 14.97 21.5901L17.74 23.2001C17.73 23.3001 17.72 23.4001 17.72 23.5001Z" fill="#2B2B2B" stroke="#2B2B2B" stroke-width="0.4" stroke-linecap="round" stroke-linejoin="round"/>
<path d="M17.74 23.21L14.97 21.6C14.97 21.53 14.99 21.46 15.01 21.39L17.78 23C17.77 23.07 17.75 23.14 17.74 23.21Z" fill="#2B2B2B" stroke="#2B2B2B" stroke-width="0.4" stroke-linecap="round" stroke-linejoin="round"/>
<path d="M17.77 23L15 21.39C15.01 21.33 15.03 21.27 15.04 21.22L17.81 22.83C17.79 22.89 17.78 22.95 17.77 23Z" fill="#2B2B2B" stroke="#2B2B2B" stroke-width="0.4" stroke-linecap="round" stroke-linejoin="round"/>
<path d="M17.82 22.8201L15.05 21.2101C15.06 21.1601 15.08 21.1101 15.1 21.0601L17.87 22.6701C17.85 22.7201 17.84 22.7701 17.82 22.8201Z" fill="#2B2B2B" stroke="#2B2B2B" stroke-width="0.4" stroke-linecap="round" stroke-linejoin="round"/>
<path d="M17.86 22.67L15.09 21.06C15.09 21.06 15.12 20.96 15.14 20.92L17.91 22.53C17.91 22.53 17.87 22.62 17.86 22.67Z" fill="#2B2B2B" stroke="#2B2B2B" stroke-width="0.4" stroke-linecap="round" stroke-linejoin="round"/>
<path d="M17.92 22.53L15.15 20.92C15.15 20.92 15.19 20.83 15.21 20.78L17.98 22.39C17.98 22.39 17.94 22.48 17.92 22.53Z" fill="#2B2B2B" stroke="#2B2B2B" stroke-width="0.4" stroke-linecap="round" stroke-linejoin="round"/>
<path d="M17.97 22.39L15.2 20.78C15.2 20.78 15.24 20.69 15.26 20.65L18.03 22.26C18.03 22.26 17.99 22.35 17.97 22.39Z" fill="#2B2B2B" stroke="#2B2B2B" stroke-width="0.4" stroke-linecap="round" stroke-linejoin="round"/>
<path d="M18.03 22.26L15.26 20.65C15.26 20.65 15.3 20.56 15.33 20.52L18.1 22.13C18.1 22.13 18.06 22.22 18.03 22.26Z" fill="#2B2B2B" stroke="#2B2B2B" stroke-width="0.4" stroke-linecap="round" stroke-linejoin="round"/>
<path d="M18.1 22.13L15.33 20.52C15.33 20.52 15.38 20.43 15.4 20.39L18.17 22C18.17 22 18.12 22.08 18.1 22.13Z" fill="#2B2B2B" stroke="#2B2B2B" stroke-width="0.4" stroke-linecap="round" stroke-linejoin="round"/>
<path d="M18.17 22L15.4 20.39C15.4 20.39 15.45 20.3 15.48 20.26L18.25 21.87C18.25 21.87 18.2 21.95 18.17 22Z" fill="#2B2B2B" stroke="#2B2B2B" stroke-width="0.4" stroke-linecap="round" stroke-linejoin="round"/>
<path d="M18.24 21.88L15.47 20.27C15.47 20.27 15.53 20.18 15.56 20.14L18.33 21.75C18.33 21.75 18.27 21.84 18.24 21.88Z" fill="#2B2B2B" stroke="#2B2B2B" stroke-width="0.4" stroke-linecap="round" stroke-linejoin="round"/>
<path d="M18.33 21.75L15.56 20.14C15.56 20.14 15.63 20.05 15.66 20L18.43 21.61C18.43 21.61 18.36 21.7 18.33 21.75Z" fill="#2B2B2B" stroke="#2B2B2B" stroke-width="0.4" stroke-linecap="round" stroke-linejoin="round"/>
<path d="M18.43 21.61L15.66 20C15.7 19.95 15.74 19.9 15.78 19.85L18.55 21.46C18.55 21.46 18.47 21.56 18.43 21.61Z" fill="#2B2B2B" stroke="#2B2B2B" stroke-width="0.4" stroke-linecap="round" stroke-linejoin="round"/>
<path d="M18.56 21.46L15.79 19.85C15.84 19.79 15.9 19.73 15.96 19.67L18.73 21.28C18.67 21.34 18.62 21.39 18.56 21.46Z" fill="#2B2B2B" stroke="#2B2B2B" stroke-width="0.4" stroke-linecap="round" stroke-linejoin="round"/>
<path d="M18.72 21.28L15.95 19.67C16.11 19.51 16.28 19.38 16.45 19.28L19.22 20.89C19.04 20.99 18.87 21.13 18.72 21.28Z" fill="#2B2B2B" stroke="#2B2B2B" stroke-width="0.4" stroke-linecap="round" stroke-linejoin="round"/>
</g>
<path d="M17.72 23.5L14.95 21.89C14.95 20.93 15.62 19.76 16.46 19.28L19.23 20.89C18.4 21.37 17.72 22.54 17.72 23.5Z" stroke="#2B2B2B" stroke-width="0.4" stroke-linecap="round" stroke-linejoin="round"/>
<path d="M16.45 34.92L14.6 35.94C13.72 36.43 12.64 36.43 11.76 35.94L6.49 33.03" stroke="#2B2B2B" stroke-width="0.4" stroke-linecap="round" stroke-linejoin="round"/>
<path d="M36.95 15.7L35.13 16.77L34.38 17.21H34.37L34.36 17.2H34.35L29.83 14.75L29.84 14.74L32.43 13.25L36.95 15.7Z" fill="white" stroke="#2B2B2B" stroke-width="0.4" stroke-linecap="round" stroke-linejoin="round"/>
<path d="M47.33 9.71001H47.32L47.31 9.72001L44.75 11.22H44.74L44.72 11.21L40.2 8.76001L40.21 8.75001L42.78 7.27001L42.8 7.26001L47.33 9.71001Z" fill="white" stroke="#2B2B2B" stroke-width="0.4" stroke-linecap="round" stroke-linejoin="round"/>
<path d="M47.2 11.65C46.77 12.56 45.9 12.79 45.26 12.15C45.02 11.91 44.84 11.58 44.74 11.22L47.32 9.69995C47.51 10.32 47.48 11.05 47.2 11.64V11.65Z" fill="white" stroke="#2B2B2B" stroke-width="0.4" stroke-linecap="round" stroke-linejoin="round"/>
<path d="M44.74 11.2L44.72 11.21L42.16 12.71L37.61 10.25L40.2 8.76L40.21 8.75L44.74 11.2Z" fill="#EAF8F6" stroke="#2B2B2B" stroke-width="0.4" stroke-miterlimit="10"/>
<path d="M44.62 13.1399C44.19 14.0499 43.32 14.2799 42.68 13.6399C42.44 13.3999 42.26 13.0699 42.16 12.7099L44.74 11.1899C44.93 11.8099 44.9 12.5399 44.62 13.1299V13.1399Z" fill="#1CCBAE" stroke="#2B2B2B" stroke-width="0.4" stroke-linecap="round" stroke-linejoin="round"/>
<path d="M42.16 12.71V12.72L39.58 14.23L39.57 14.22H39.56L39.55 14.21L35.01 11.76L35.03 11.75L37.61 10.25L42.16 12.71Z" fill="white" stroke="#2B2B2B" stroke-width="0.4" stroke-linecap="round" stroke-linejoin="round"/>
<path d="M42.04 14.66C41.61 15.57 40.74 15.8 40.1 15.16C39.86 14.92 39.68 14.59 39.58 14.23L42.16 12.71C42.35 13.33 42.32 14.06 42.04 14.65V14.66Z" fill="white" stroke="#2B2B2B" stroke-width="0.4" stroke-linecap="round" stroke-linejoin="round"/>
<path d="M39.57 14.21L39.56 14.22L38.42 14.88L36.99 15.72L32.43 13.25L35.01 11.76L35.03 11.75L39.57 14.21Z" fill="#EAF8F6" stroke="#2B2B2B" stroke-width="0.4" stroke-miterlimit="10"/>
<path d="M39.45 16.15C39.02 17.06 38.15 17.29 37.51 16.65C37.27 16.41 37.09 16.08 36.99 15.72L39.57 14.2C39.76 14.82 39.73 15.55 39.45 16.14V16.15Z" fill="#1CCBAE" stroke="#2B2B2B" stroke-width="0.4" stroke-linecap="round" stroke-linejoin="round"/>
<path d="M36.83 17.6399C36.4 18.5499 35.53 18.7799 34.89 18.1399C34.65 17.8999 34.47 17.5699 34.37 17.2099L36.95 15.6899C37.14 16.3099 37.11 17.0399 36.83 17.6299V17.6399Z" fill="white" stroke="#2B2B2B" stroke-width="0.4" stroke-linecap="round" stroke-linejoin="round"/>
<path d="M34.37 17.19V17.2H34.36L31.79 18.71V18.7H31.78L31.77 18.69L27.24 16.25L27.26 16.24L29.83 14.75L29.84 14.74L34.37 17.19Z" fill="#EAF8F6" stroke="#2B2B2B" stroke-width="0.4" stroke-miterlimit="10"/>
<path d="M34.25 19.1399C33.82 20.0499 32.95 20.2799 32.31 19.6399C32.07 19.3999 31.89 19.0699 31.79 18.7099L34.37 17.1899C34.56 17.8099 34.53 18.5399 34.25 19.1299V19.1399Z" fill="#1CCBAE" stroke="#2B2B2B" stroke-width="0.4" stroke-linecap="round" stroke-linejoin="round"/>
<path d="M31.79 18.68H31.78L31.77 18.69L29.21 20.2L29.2 20.19L24.66 17.74L27.24 16.25L27.26 16.24L31.79 18.68Z" fill="white" stroke="#2B2B2B" stroke-width="0.4" stroke-linecap="round" stroke-linejoin="round"/>
<path d="M31.66 20.6301C31.23 21.5401 30.36 21.7701 29.72 21.1301C29.48 20.8901 29.3 20.5601 29.2 20.2001L31.78 18.6801C31.97 19.3001 31.94 20.0301 31.66 20.6201V20.6301Z" fill="white" stroke="#2B2B2B" stroke-width="0.4" stroke-linecap="round" stroke-linejoin="round"/>
<path d="M29.21 20.2H29.2L26.62 21.71L26.6 21.7L22.05 19.24L22.07 19.23L24.66 17.74L29.2 20.19L29.21 20.2Z" fill="#EAF8F6" stroke="#2B2B2B" stroke-width="0.4" stroke-miterlimit="10"/>
<path d="M29.08 22.1399C28.65 23.0499 27.78 23.2799 27.14 22.6399C26.9 22.3999 26.72 22.0699 26.62 21.7099L29.2 20.1899C29.39 20.8099 29.36 21.5399 29.08 22.1299V22.1399Z" fill="#1CCBAE" stroke="#2B2B2B" stroke-width="0.4" stroke-linecap="round" stroke-linejoin="round"/>
<path d="M26.61 21.69L26.6 21.7L25.47 22.36L24.04 23.2L19.47 20.73L22.05 19.24L22.07 19.23L26.61 21.69Z" fill="white" stroke="#2B2B2B" stroke-width="0.4" stroke-linecap="round" stroke-linejoin="round"/>
<path d="M26.5 23.6301C26.07 24.5401 25.2 24.7701 24.56 24.1301C24.32 23.8901 24.14 23.5601 24.04 23.2001L26.62 21.6801C26.81 22.3001 26.78 23.0301 26.5 23.6201V23.6301Z" fill="white" stroke="#2B2B2B" stroke-width="0.4" stroke-linecap="round" stroke-linejoin="round"/>
<path d="M32.06 30.57V27.06C32.06 26.22 32.53 25.45 33.28 25.07C34.23 24.59 35.35 25.28 35.35 26.34V28.89" stroke="#1CCBAE" stroke-width="0.4" stroke-linecap="round" stroke-linejoin="round"/>
<path d="M31.43 32.05L33.11 44.09L41.34 39.27L39.65 27.23L31.43 32.05Z" fill="white" stroke="#2B2B2B" stroke-width="0.4" stroke-linecap="round" stroke-linejoin="round"/>
<path d="M29.43 31.1899L37.69 26.3199L39.65 27.2299L31.43 32.0499L29.43 31.1899Z" fill="#EAF8F6" stroke="#2B2B2B" stroke-width="0.4" stroke-linecap="round" stroke-linejoin="round"/>
<path d="M33.59 31.87V28.36C33.59 27.52 34.06 26.75 34.81 26.37C35.76 25.89 36.88 26.58 36.88 27.64V30.19" stroke="#2B2B2B" stroke-width="0.4" stroke-linecap="round" stroke-linejoin="round"/>
<path d="M37.69 26.3199V28.3799L39.65 27.2299L37.69 26.3199Z" fill="#2B2B2B" stroke="#2B2B2B" stroke-width="0.4" stroke-linecap="round" stroke-linejoin="round"/>
<path d="M31.43 32.0499L30.52 31.6599L29.43 31.1899L28.68 41.6499L33.11 44.0899L31.43 32.0499Z" fill="#1CCBAE" stroke="#2B2B2B" stroke-width="0.4" stroke-linecap="round" stroke-linejoin="round"/>
</svg>
