<svg width="49" height="48" viewBox="0 0 49 48" fill="none" xmlns="http://www.w3.org/2000/svg">
<path d="M5.2133 43.75L5.1533 23.36L1.3233 21.13L1.3833 41.52C1.3833 41.88 1.5133 42.14 1.7233 42.26L5.5533 44.49C5.3433 44.37 5.2133 44.11 5.2133 43.75Z" fill="#00D4A6" stroke="#2B2B2B" stroke-width="0.4" stroke-linecap="round" stroke-linejoin="round"/>
<path d="M24.4933 10.97C24.4933 10.97 24.5033 10.97 24.5133 10.97C24.5833 10.97 24.6433 10.97 24.7033 10.97C24.7633 10.98 24.8233 11 24.8733 11.03L21.0433 8.8C21.0233 8.79 21.0033 8.78 20.9833 8.77C20.9633 8.77 20.9433 8.75 20.9233 8.75C20.9133 8.75 20.8933 8.75 20.8833 8.75C20.8833 8.75 20.8833 8.75 20.8733 8.75C20.8533 8.75 20.8233 8.75 20.8033 8.75C20.7833 8.75 20.7533 8.75 20.7233 8.75C20.7233 8.75 20.7033 8.75 20.6933 8.75C20.6933 8.75 20.6833 8.75 20.6733 8.75C20.6633 8.75 20.6433 8.75 20.6333 8.75C20.6033 8.75 20.5633 8.76 20.5333 8.77C20.5233 8.77 20.5033 8.78 20.4933 8.79C20.4833 8.79 20.4633 8.79 20.4533 8.8C20.4333 8.8 20.4233 8.81 20.4033 8.82C20.3533 8.84 20.2933 8.87 20.2433 8.9L2.47333 19.14L6.30333 21.37L24.0433 11.13C24.1133 11.09 24.1833 11.06 24.2533 11.03C24.2633 11.03 24.2833 11.03 24.2933 11.02C24.3633 11 24.4233 10.98 24.4833 10.98L24.4933 10.97Z" fill="white" stroke="#2B2B2B" stroke-width="0.4" stroke-linecap="round" stroke-linejoin="round"/>
<path d="M24.0433 11.13C24.6833 10.76 25.2033 11.06 25.2033 11.79L25.2633 32.18C25.2633 32.91 24.7533 33.81 24.1133 34.18L6.37332 44.42C5.73332 44.79 5.21332 44.5 5.21332 43.76L5.15332 23.37C5.15332 22.64 5.66332 21.74 6.31332 21.37L24.0533 11.13H24.0433Z" fill="white" stroke="#2B2B2B" stroke-width="0.4" stroke-linecap="round" stroke-linejoin="round"/>
<path d="M5.24333 22.79C5.30333 22.6 5.38333 22.41 5.48333 22.23C5.58333 22.05 5.70333 21.89 5.84333 21.75L5.86333 21.73C6.00333 21.59 6.14333 21.46 6.30333 21.37L2.47333 19.14C2.33333 19.22 2.20333 19.32 2.08333 19.44C2.06333 19.46 2.05333 19.48 2.03333 19.5C2.03333 19.5 2.02333 19.51 2.01333 19.52C1.99333 19.54 1.97333 19.56 1.95333 19.58C1.92333 19.62 1.89333 19.66 1.86333 19.69C1.83333 19.72 1.81333 19.76 1.78333 19.79C1.76333 19.82 1.73333 19.86 1.71333 19.89C1.69333 19.92 1.67333 19.95 1.65333 19.99C1.63333 20.02 1.62333 20.05 1.60333 20.08C1.58333 20.11 1.57333 20.15 1.55333 20.18C1.53333 20.21 1.52333 20.25 1.50333 20.28C1.49333 20.31 1.47333 20.35 1.46333 20.38C1.45333 20.42 1.43333 20.45 1.42333 20.49C1.42333 20.51 1.41333 20.53 1.40333 20.55C1.40333 20.55 1.40333 20.55 1.40333 20.56C1.40333 20.58 1.40333 20.59 1.39333 20.61C1.38333 20.65 1.37333 20.7 1.36333 20.74C1.35333 20.79 1.34333 20.85 1.33333 20.9C1.32333 20.98 1.31333 21.05 1.32333 21.13L5.15333 23.36C5.15333 23.18 5.18333 22.99 5.24333 22.8C5.24333 22.8 5.24333 22.8 5.24333 22.79Z" fill="#2B2B2B" stroke="#2B2B2B" stroke-width="0.4" stroke-linecap="round" stroke-linejoin="round"/>
<path d="M27.2933 44.91L27.2333 24.52L23.4033 22.29L23.4633 42.68C23.4633 43.04 23.5933 43.3 23.8033 43.42L27.6333 45.65C27.4233 45.53 27.2933 45.27 27.2933 44.91Z" fill="#00D4A6" stroke="#2B2B2B" stroke-width="0.4" stroke-linecap="round" stroke-linejoin="round"/>
<path d="M46.5733 12.13C46.5733 12.13 46.5833 12.13 46.5933 12.13C46.6633 12.13 46.7233 12.13 46.7833 12.13C46.8433 12.14 46.9033 12.16 46.9533 12.19L43.1233 9.96003C43.1033 9.95003 43.0833 9.94003 43.0633 9.93003C43.0433 9.93003 43.0233 9.91003 43.0033 9.91003C42.9933 9.91003 42.9733 9.91003 42.9633 9.91003C42.9633 9.91003 42.9633 9.91003 42.9533 9.91003C42.9333 9.91003 42.9033 9.91003 42.8833 9.91003C42.8633 9.91003 42.8333 9.91003 42.8033 9.91003C42.8033 9.91003 42.7833 9.91003 42.7733 9.91003C42.7733 9.91003 42.7633 9.91003 42.7533 9.91003C42.7433 9.91003 42.7233 9.91003 42.7133 9.91003C42.6833 9.91003 42.6433 9.92003 42.6133 9.93003C42.6033 9.93003 42.5833 9.94003 42.5733 9.95003C42.5633 9.95003 42.5433 9.95003 42.5333 9.96003C42.5133 9.96003 42.5033 9.97003 42.4833 9.98003C42.4333 10 42.3733 10.03 42.3233 10.06L24.5833 20.3L28.4133 22.53L46.1533 12.29C46.2233 12.25 46.2933 12.22 46.3633 12.19C46.3733 12.19 46.3933 12.19 46.4033 12.18C46.4733 12.16 46.5333 12.14 46.5933 12.14L46.5733 12.13Z" fill="white" stroke="#2B2B2B" stroke-width="0.4" stroke-linecap="round" stroke-linejoin="round"/>
<path d="M46.1333 12.2801C46.7733 11.9101 47.2933 12.2101 47.2933 12.9401L47.3533 33.3301C47.3533 34.0601 46.8433 34.9601 46.2033 35.3301L28.4633 45.5701C27.8233 45.9401 27.3033 45.6501 27.3033 44.9101L27.2433 24.5201C27.2433 23.7901 27.7533 22.8901 28.4033 22.5201L46.1433 12.2801H46.1333Z" fill="white" stroke="#2B2B2B" stroke-width="0.4" stroke-linecap="round" stroke-linejoin="round"/>
<path d="M44.3033 19.77L31.2133 27.33C29.9133 28.01 29.9133 28.76 29.9133 29.58L29.9333 37.34C29.9333 38.17 30.5233 38.5 31.2433 38.09L44.3333 30.53C45.0533 30.11 45.6433 29.1 45.6433 28.27L45.6233 20.51C45.6233 20.04 45.4333 19.73 45.1433 19.63C45.1833 19.65 45.2133 19.67 45.2333 19.71C45.3533 19.88 45.2833 20.23 45.0733 20.49L44.7333 20.91C44.7333 20.91 44.7433 20.98 44.7433 21.03L44.7633 28.79C44.7633 29.07 44.5733 29.4 44.3333 29.54L31.2433 37.1C31.0033 37.24 30.8133 37.13 30.8133 36.85L30.7933 29.09C30.7933 29.09 30.7933 29 30.8033 28.96L30.5333 28.94C30.3233 28.92 30.2533 28.65 30.3733 28.35C30.4533 28.14 30.6033 27.97 30.7533 27.88C30.8233 27.84 30.9033 27.82 30.9733 27.82L32.0033 27.9L43.5433 21.24L44.6433 19.88C44.7133 19.8 44.7833 19.73 44.8533 19.69C44.9433 19.64 45.0333 19.62 45.1033 19.64C44.8833 19.58 44.6133 19.62 44.3133 19.79" fill="#00D4A6"/>
<path d="M30.9533 27.8C30.8833 27.8 30.8133 27.82 30.7333 27.86C30.5833 27.95 30.4333 28.12 30.3533 28.33C30.2333 28.64 30.3033 28.9 30.5133 28.92L30.7833 28.94L38.5233 28.58L44.7133 20.9L45.0533 20.48C45.2633 20.22 45.3333 19.87 45.2133 19.7C45.1933 19.66 45.1533 19.64 45.1233 19.62C45.1133 19.62 45.0933 19.62 45.0833 19.61C45.0133 19.59 44.9233 19.61 44.8333 19.66" fill="#00D4A6"/>
<path d="M27.3233 23.9501C27.3833 23.7601 27.4633 23.57 27.5633 23.39C27.6633 23.21 27.7833 23.05 27.9233 22.91L27.9433 22.89C28.0833 22.75 28.2233 22.6201 28.3833 22.5301L24.5533 20.3C24.4133 20.38 24.2833 20.48 24.1633 20.6C24.1433 20.62 24.1333 20.64 24.1133 20.66C24.1133 20.66 24.1033 20.67 24.0933 20.68C24.0733 20.7 24.0533 20.72 24.0333 20.74C24.0033 20.78 23.9733 20.8201 23.9433 20.85C23.9133 20.88 23.8933 20.9201 23.8633 20.9501C23.8433 20.9801 23.8133 21.02 23.7933 21.05C23.7733 21.08 23.7533 21.11 23.7333 21.15C23.7133 21.18 23.7033 21.21 23.6833 21.24C23.6633 21.27 23.6533 21.31 23.6333 21.34C23.6133 21.37 23.6033 21.4101 23.5833 21.4401C23.5733 21.4701 23.5533 21.5101 23.5433 21.5401C23.5333 21.5801 23.5133 21.61 23.5033 21.65C23.5033 21.67 23.4933 21.69 23.4833 21.71C23.4833 21.71 23.4833 21.71 23.4833 21.72C23.4833 21.74 23.4833 21.7501 23.4733 21.7701C23.4633 21.8101 23.4533 21.86 23.4433 21.9C23.4333 21.95 23.4233 22.01 23.4133 22.06C23.4033 22.14 23.3933 22.2101 23.4033 22.2901L27.2333 24.5201C27.2333 24.3401 27.2633 24.15 27.3233 23.96C27.3233 23.96 27.3233 23.9601 27.3233 23.9501Z" fill="#2B2B2B" stroke="#2B2B2B" stroke-width="0.4" stroke-linecap="round" stroke-linejoin="round"/>
<path d="M20.6633 19.76C20.9633 19.59 21.2033 19.73 21.2033 20.07L21.2233 27.95C21.2233 28.29 20.9833 28.71 20.6833 28.89L17.5033 30.73C17.3733 30.81 17.2433 30.94 17.1433 31.1L16.2633 32.52C16.1633 32.69 16.0333 32.81 15.9033 32.89C15.7733 32.97 15.6433 32.99 15.5433 32.94L14.6633 32.54C14.5633 32.5 14.4333 32.51 14.3033 32.59L8.7533 35.8C8.4533 35.97 8.2133 35.83 8.2133 35.49L8.1933 27.61C8.1933 27.27 8.4333 26.85 8.7333 26.67L20.6833 19.77L20.6633 19.76Z" fill="#00D4A6"/>
<path d="M10.7933 28.99C10.2533 29.3 9.81332 30.07 9.81332 30.69C9.81332 31.31 10.2533 31.57 10.8033 31.25C11.3533 30.93 11.7933 30.17 11.7833 29.55C11.7733 28.93 11.3433 28.67 10.7933 28.99Z" fill="white"/>
<path d="M14.7933 26.68C14.2433 26.99 13.8033 27.76 13.8133 28.38C13.8233 29 14.2533 29.26 14.8033 28.94C15.3533 28.62 15.7833 27.86 15.7833 27.24C15.7833 26.62 15.3433 26.36 14.7933 26.68Z" fill="white"/>
<path d="M18.8033 24.37C18.2533 24.68 17.8133 25.45 17.8233 26.07C17.8333 26.69 18.2633 26.95 18.8133 26.63C19.3633 26.31 19.8033 25.55 19.7933 24.93C19.7833 24.31 19.3533 24.05 18.8033 24.37Z" fill="white"/>
</svg>
