<svg width="48" height="48" viewBox="0 0 48 48" fill="none" xmlns="http://www.w3.org/2000/svg">
<g clip-path="url(#clip0_72_107074)">
<path d="M2.85303 15.4043V28.3589C2.85423 30.4277 3.95763 32.3393 5.74983 33.3737L9.91083 35.7761V19.4783" fill="#3635F1"/>
<path d="M31.0824 15.4038L19.8636 8.92619C18.0714 7.89179 15.864 7.89179 14.0718 8.92619L2.85303 15.4044L9.91083 19.4784L16.9692 15.4038L24.0258 19.4772L31.0836 15.4032L31.0824 15.4038Z" fill="#6464FF"/>
<path d="M38.0897 43.9256L24.0245 35.8046V27.6416L16.9673 23.5664V36.524C16.9673 38.5916 18.0689 40.502 19.8587 41.537L31.0325 47.9996L38.0903 43.925L38.0897 43.9256Z" fill="#F5A920"/>
<path d="M31.0322 39.8498V48.0002L42.2516 41.5226C44.0432 40.4882 45.1472 38.5766 45.1472 36.5072V31.7012L31.0322 39.8498" fill="#FFD747"/>
<path d="M38.09 11.3266V19.4764L31.0322 23.5504V31.6996L42.2516 25.222C44.0432 24.1876 45.1472 22.276 45.1472 20.2066V7.25195L38.0894 11.3266H38.09Z" fill="#1ECAAE"/>
<path d="M38.0896 11.3274L23.9746 3.1788L28.1368 0.7758C29.9284 -0.2586 32.1358 -0.2586 33.928 0.7758L45.1474 7.2528L38.0896 11.3274Z" fill="#7AE9D7"/>
</g>
<defs>
<clipPath id="clip0_72_107074">
<rect width="48" height="48" fill="white"/>
</clipPath>
</defs>
</svg>
