<svg width="157" height="49" viewBox="0 0 157 49" fill="none" xmlns="http://www.w3.org/2000/svg">
<path d="M0.0175781 15.6299V28.6114C0.0175781 30.714 1.11461 32.6338 2.94298 33.6394L7.05684 36.0163V19.7437" fill="#3635F1"/>
<path d="M28.266 15.6297L17.0215 9.13897C15.1931 8.13336 12.9991 8.13336 11.2621 9.13897L0.0175781 15.6297L7.05684 19.7436L14.0961 15.6297L21.1354 19.7436L28.266 15.6297Z" fill="#6464FF"/>
<path d="M35.2118 44.1521L21.1333 36.0158V27.8795L14.094 23.7656V36.7471C14.094 38.8498 15.191 40.6781 17.0194 41.7752L28.1725 48.2659L35.2118 44.1521Z" fill="#F5A920"/>
<path d="M28.1741 40.0383V48.1745L39.4186 41.6838C41.247 40.6782 42.344 38.7584 42.344 36.6558V31.8105L28.1741 40.0383Z" fill="#FFD747"/>
<path d="M35.2133 11.5156V19.6519L28.1741 23.7657V31.902L39.4186 25.4113C41.247 24.4057 42.344 22.4859 42.344 20.3832V7.49316L35.2133 11.5156Z" fill="#1ECAAE"/>
<path d="M35.2135 11.5154L21.135 3.37915L25.3403 1.00225C27.0772 -0.00335529 29.2713 -0.00335529 31.0997 1.00225L42.3442 7.493L35.2135 11.5154Z" fill="#7AE9D7"/>
<path d="M54.3206 25.4102H102.864C103.778 25.4102 104.51 26.1415 104.51 27.0557V39.3058C104.51 40.22 103.778 40.9514 102.864 40.9514H54.3206C53.4064 40.9514 52.675 40.22 52.675 39.3058V27.0557C52.675 26.1415 53.4064 25.4102 54.3206 25.4102Z" fill="#6464FF"/>
<path d="M59.1663 29.5225H62.4573C62.9144 29.5225 63.3715 29.6139 63.7372 29.7967C64.1029 29.9796 64.3771 30.2538 64.56 30.6195C64.7428 30.9852 64.8342 31.3508 64.8342 31.8079C64.8342 32.265 64.7428 32.6307 64.56 32.9964C64.3771 33.3621 64.1029 33.6363 63.7372 33.8192C63.3715 34.002 62.9144 34.0934 62.4573 34.0934H60.7204V36.6531H59.2577V29.5225H59.1663ZM62.0917 32.905C62.5488 32.905 62.9144 32.8135 63.0973 32.6307C63.2801 32.4479 63.463 32.1736 63.463 31.8079C63.463 31.4423 63.3715 31.168 63.0973 30.9852C62.823 30.8023 62.5488 30.7109 62.0917 30.7109H60.629V32.905H62.0917Z" fill="white"/>
<path d="M65.8384 29.3408H67.1182V36.6543H65.8384V29.3408Z" fill="white"/>
<path d="M68.9478 36.5623C68.6735 36.4709 68.4907 36.288 68.3078 36.0138C68.125 35.7395 68.125 35.4653 68.125 35.0996C68.125 34.0026 69.0392 33.3626 70.7762 33.3626H71.5989V33.0884C71.5989 32.7227 71.5075 32.4484 71.4161 32.2656C71.2332 32.0828 71.0504 31.9913 70.6847 31.9913C70.0448 31.9913 69.7705 32.1742 69.6791 32.6313H68.3993C68.3993 32.1742 68.6735 31.7171 69.0392 31.4428C69.4049 31.1686 69.9534 31.0771 70.6847 31.0771C71.4161 31.0771 71.9646 31.26 72.3303 31.5342C72.6959 31.8999 72.8788 32.357 72.8788 33.0884V36.4709H71.6903L71.5989 35.7395C71.5075 36.0138 71.2332 36.1966 70.959 36.3794C70.6847 36.5623 70.3191 36.6537 69.9534 36.6537C69.5877 36.7451 69.222 36.6537 68.9478 36.5623ZM69.6791 35.6481C69.862 35.7395 70.0448 35.8309 70.3191 35.8309C70.5933 35.8309 70.7761 35.7395 70.959 35.6481C71.1418 35.5567 71.3247 35.3738 71.4161 35.191C71.5075 35.0082 71.5989 34.7339 71.5989 34.4597V34.094H70.959C70.5019 34.094 70.1362 34.1854 69.862 34.2768C69.5877 34.3682 69.4963 34.6425 69.4963 34.9167C69.4049 35.2824 69.4963 35.4653 69.6791 35.6481Z" fill="white"/>
<path d="M74.981 36.2886C74.7068 36.0143 74.5239 35.5572 74.5239 34.9173V32.3576H73.5183V31.352H74.5239V29.7979H75.8952V31.352H76.9922V32.3576H75.8952V34.7345C75.8952 35.0087 75.8952 35.1916 75.9866 35.283C76.078 35.3744 76.078 35.4658 76.1695 35.5572C76.2609 35.6487 76.3523 35.6487 76.5351 35.6487C76.718 35.6487 76.9008 35.6487 77.0837 35.5572V36.5629C76.8094 36.6543 76.6266 36.6543 76.2609 36.6543C75.7124 36.6543 75.2553 36.5629 74.981 36.2886Z" fill="white"/>
<path d="M78.3632 32.2658H77.449V31.2602H78.3632V31.0774C78.3632 30.7117 78.4546 30.3461 78.6374 30.0718C78.8203 29.7975 79.0031 29.6147 79.2774 29.4319C79.5516 29.249 79.9173 29.249 80.283 29.249C80.4658 29.249 80.7401 29.249 80.9229 29.3404V30.3461C80.7401 30.3461 80.6486 30.2546 80.4658 30.2546C79.9173 30.2546 79.643 30.5289 79.643 31.1688V31.3517H80.7401V32.3573H79.643V36.654H78.3632V32.2658Z" fill="white"/>
<path d="M82.4775 36.3794C82.1118 36.1052 81.7462 35.8309 81.5633 35.3738C81.3805 34.9167 81.2891 34.4596 81.2891 33.9111C81.2891 33.3626 81.3805 32.9055 81.5633 32.4484C81.7462 31.9913 82.1118 31.7171 82.4775 31.4428C82.8432 31.1686 83.3003 31.0771 83.8488 31.0771C84.3973 31.0771 84.8544 31.1686 85.2201 31.4428C85.5858 31.7171 85.9514 31.9913 86.1343 32.4484C86.3171 32.9055 86.4085 33.3626 86.4085 33.9111C86.4085 34.4596 86.3171 34.9167 86.0428 35.3738C85.7686 35.8309 85.4943 36.1052 85.1287 36.3794C84.763 36.6537 84.3059 36.7451 83.7574 36.7451C83.3003 36.7451 82.8432 36.6537 82.4775 36.3794ZM82.6603 34.9167C82.7518 35.191 82.9346 35.3738 83.1174 35.5567C83.3003 35.7395 83.5745 35.7395 83.8488 35.7395C84.123 35.7395 84.3973 35.6481 84.5801 35.5567C84.763 35.3738 84.9458 35.191 85.0372 34.9167C85.1287 34.6425 85.2201 34.3682 85.2201 34.0026C85.2201 33.6369 85.1287 33.3626 85.0372 33.0884C84.9458 32.8141 84.763 32.6313 84.5801 32.4484C84.3973 32.2656 84.123 32.1742 83.8488 32.1742C83.5745 32.1742 83.3003 32.2656 83.1174 32.357C82.9346 32.4484 82.7518 32.7227 82.6603 32.9969C82.5689 33.2712 82.4775 33.5455 82.4775 33.9111C82.4775 34.2768 82.5689 34.6425 82.6603 34.9167Z" fill="white"/>
<path d="M87.5979 31.3508H88.8778V32.265C88.9692 31.8993 89.152 31.6251 89.4263 31.4422C89.7005 31.2594 89.9748 31.168 90.3405 31.168C90.5233 31.168 90.6147 31.168 90.7976 31.168V32.3564C90.7061 32.3564 90.5233 32.265 90.3405 32.265C89.8834 32.265 89.5177 32.4478 89.2434 32.7221C88.9692 32.9963 88.8778 33.4534 88.8778 34.002V36.5617H87.5979V31.3508Z" fill="white"/>
<path d="M91.6189 31.3512H92.8987V32.0825C93.0816 31.8083 93.2644 31.534 93.5387 31.4426C93.8129 31.2598 94.0872 31.2598 94.4529 31.2598C94.8185 31.2598 95.1842 31.3512 95.3671 31.534C95.5499 31.7169 95.8241 31.8997 95.9156 32.174C96.0984 31.8997 96.2812 31.6254 96.5555 31.534C96.8298 31.4426 97.104 31.2598 97.4697 31.2598C98.0182 31.2598 98.4753 31.4426 98.841 31.7169C99.1152 32.0825 99.2981 32.5396 99.2981 33.1796V36.6535H98.0182V33.6367C98.0182 33.1796 97.9268 32.8139 97.7439 32.6311C97.5611 32.4482 97.3783 32.2654 97.0126 32.2654C96.6469 32.2654 96.4641 32.3568 96.2812 32.6311C96.0984 32.8139 96.007 33.1796 96.007 33.6367V36.6535H94.7271V33.6367C94.7271 33.1796 94.6357 32.8139 94.4529 32.6311C94.27 32.4482 94.0872 32.2654 93.7215 32.2654C93.3558 32.2654 93.173 32.3568 92.9902 32.6311C92.8073 32.8139 92.7159 33.1796 92.7159 33.6367V36.6535H91.436V31.3512H91.6189Z" fill="white"/>
<path d="M53.5895 19.7435C52.9495 19.195 52.6753 18.3722 52.6753 17.2752V17.0924H55.0522C55.0522 17.6409 55.1436 18.0066 55.3264 18.2808C55.5093 18.5551 55.7835 18.6465 56.2406 18.6465C56.6977 18.6465 56.972 18.5551 57.1548 18.2808C57.3377 18.0066 57.4291 17.6409 57.4291 17.0924V10.1445H59.9888V17.0924C59.9888 18.2808 59.7146 19.195 59.0746 19.8349C58.4347 20.4749 57.5205 20.7491 56.2406 20.7491C55.0522 20.5663 54.2294 20.292 53.5895 19.7435Z" fill="#141414"/>
<path d="M61.8176 9.50435C62.0918 9.23009 62.3661 9.13867 62.7318 9.13867C63.0974 9.13867 63.4631 9.23009 63.7374 9.50435C64.0116 9.7786 64.1031 10.0529 64.1031 10.4185C64.1031 10.7842 64.0116 11.0585 63.7374 11.3327C63.4631 11.5156 63.1889 11.6984 62.7318 11.6984C62.2747 11.6984 62.0004 11.607 61.8176 11.3327C61.5433 11.1499 61.4519 10.7842 61.4519 10.4185C61.4519 10.0529 61.6347 9.7786 61.8176 9.50435ZM61.6347 12.6126H64.0116V20.3832H61.6347V12.6126Z" fill="#141414"/>
<path d="M67.1204 20.0177C66.4804 19.652 66.0233 19.1949 65.7491 18.555C65.4748 17.915 65.292 17.1837 65.292 16.3609C65.292 15.5382 65.4748 14.8068 65.7491 14.2583C66.1148 13.6184 66.5719 13.1613 67.1204 12.7956C67.7603 12.4299 68.4002 12.2471 69.223 12.2471C70.0458 12.2471 70.7771 12.4299 71.3256 12.7956C71.8742 13.1613 72.4227 13.6184 72.6969 14.2583C73.0626 14.8982 73.154 15.6296 73.154 16.3609C73.154 17.1837 72.9712 17.915 72.6969 18.555C72.3313 19.1949 71.8742 19.652 71.3256 20.0177C70.6857 20.3834 70.0458 20.5662 69.223 20.5662C68.4917 20.5662 67.7603 20.3834 67.1204 20.0177ZM68.126 18.1893C68.4002 18.6464 68.7659 18.8292 69.3144 18.8292C69.8629 18.8292 70.2286 18.6464 70.5029 18.1893C70.7771 17.8236 70.96 17.1837 70.96 16.4523C70.96 15.721 70.8685 15.1725 70.5943 14.7154C70.32 14.2583 69.9544 14.0755 69.4058 14.0755C68.8573 14.0755 68.4917 14.2583 68.2174 14.7154C67.9431 15.1725 67.6689 15.721 67.6689 16.4523C67.6689 17.1837 67.7603 17.8236 68.126 18.1893Z" fill="#141414"/>
<path d="M80.8306 19.9254C80.0079 19.4684 79.4593 18.8284 79.0022 18.0056C78.5451 17.1829 78.3623 16.2687 78.3623 15.1717C78.3623 14.1661 78.5451 13.1604 79.0022 12.3377C79.4593 11.5149 80.0079 10.875 80.8306 10.4179C81.6534 9.96078 82.5676 9.68652 83.5732 9.68652C84.396 9.68652 85.1273 9.77794 85.7672 10.0522C86.4072 10.3265 86.9557 10.6921 87.3214 11.2406C87.687 11.7892 87.9613 12.4291 88.0527 13.1604H85.493C85.4016 12.7033 85.1273 12.3377 84.7616 12.0634C84.396 11.7892 84.1217 11.8806 83.6646 11.8806C82.8418 11.8806 82.2019 12.1548 81.7448 12.7948C81.2877 13.4347 81.1049 14.1661 81.1049 15.1717C81.1049 15.8116 81.1963 16.3601 81.3791 16.9086C81.562 17.3657 81.8362 17.8228 82.2019 18.0971C82.5676 18.3713 83.0247 18.5542 83.6646 18.5542C84.2131 18.5542 84.7616 18.3713 85.1273 18.0971C85.493 17.8228 85.6758 17.3657 85.7672 16.7258H88.327C88.2356 17.4571 88.0527 18.1885 87.5956 18.737C87.1385 19.2855 86.59 19.834 85.9501 20.1083C85.3101 20.3825 84.4874 20.5654 83.6646 20.5654C82.5676 20.5654 81.6534 20.3825 80.8306 19.9254Z" fill="#141414"/>
<path d="M91.1614 20.0167C90.5215 19.651 90.0644 19.1939 89.7901 18.554C89.5158 17.9141 89.333 17.1827 89.333 16.3599C89.333 15.5372 89.5158 14.8058 89.7901 14.2573C90.1558 13.6174 90.6129 13.1603 91.1614 12.7946C91.8013 12.4289 92.4413 12.2461 93.264 12.2461C94.0868 12.2461 94.8182 12.4289 95.3667 12.7946C95.9152 13.1603 96.4637 13.6174 96.7379 14.2573C97.1036 14.8972 97.195 15.6286 97.195 16.3599C97.195 17.1827 97.0122 17.9141 96.7379 18.554C96.3723 19.1939 95.9152 19.651 95.3667 20.0167C94.7267 20.3824 94.0868 20.5652 93.264 20.5652C92.5327 20.5652 91.8013 20.3824 91.1614 20.0167ZM92.167 18.1883C92.4413 18.6454 92.8069 18.8283 93.3554 18.8283C93.904 18.8283 94.2696 18.6454 94.5439 18.1883C94.8182 17.8227 95.001 17.1827 95.001 16.4514C95.001 15.72 94.9096 15.1715 94.6353 14.7144C94.3611 14.2573 93.9954 14.0745 93.4469 14.0745C92.8983 14.0745 92.5327 14.2573 92.2584 14.7144C91.9842 15.1715 91.8013 15.72 91.8013 16.4514C91.7099 17.1827 91.8013 17.8227 92.167 18.1883Z" fill="#141414"/>
<path d="M98.6588 12.6115H100.944V13.7086C101.493 12.8858 102.224 12.4287 103.321 12.4287C103.87 12.4287 104.327 12.5201 104.692 12.7944C105.058 13.0686 105.332 13.3429 105.515 13.8C106.064 12.9772 106.887 12.5201 107.984 12.5201C108.806 12.5201 109.446 12.7944 109.903 13.2515C110.36 13.7086 110.635 14.4399 110.635 15.2627V20.4736H108.258V15.9941C108.258 15.4455 108.166 14.9884 107.984 14.7142C107.801 14.4399 107.526 14.2571 107.069 14.2571C106.247 14.2571 105.789 14.8056 105.789 15.9026V20.3822H103.413V15.9026C103.413 15.3541 103.321 14.897 103.138 14.6228C102.955 14.3485 102.681 14.1657 102.224 14.1657C101.401 14.1657 100.944 14.7142 100.944 15.8112V20.2907H98.5674V12.6115H98.6588Z" fill="#141414"/>
<path d="M112.186 12.6115H114.472V13.7086C115.02 12.8858 115.752 12.4287 116.849 12.4287C117.397 12.4287 117.854 12.5201 118.22 12.7944C118.586 13.0686 118.86 13.3429 119.043 13.8C119.591 12.9772 120.414 12.5201 121.511 12.5201C122.334 12.5201 122.974 12.7944 123.431 13.2515C123.888 13.7086 124.162 14.4399 124.162 15.2627V20.4736H121.785V15.9941C121.785 15.4455 121.694 14.9884 121.511 14.7142C121.328 14.4399 121.054 14.2571 120.597 14.2571C119.774 14.2571 119.317 14.8056 119.317 15.9026V20.3822H116.94V15.9026C116.94 15.3541 116.849 14.897 116.666 14.6228C116.483 14.3485 116.209 14.1657 115.752 14.1657C114.929 14.1657 114.472 14.7142 114.472 15.8112V20.2907H112.095V12.6115H112.186Z" fill="#141414"/>
<path d="M127.181 20.1085C126.541 19.7428 126.084 19.2857 125.809 18.6458C125.444 18.0059 125.352 17.2745 125.352 16.4517C125.352 15.629 125.535 14.989 125.809 14.3491C126.175 13.7092 126.632 13.2521 127.181 12.8864C127.821 12.5207 128.461 12.3379 129.283 12.3379C130.106 12.3379 130.837 12.5207 131.386 12.8864C131.934 13.2521 132.392 13.7092 132.666 14.4405C132.94 15.0805 133.123 15.9032 133.123 16.726V17.0003H127.546C127.546 17.6402 127.729 18.0973 128.003 18.463C128.278 18.8286 128.735 19.0115 129.283 19.0115C129.649 19.0115 130.015 18.9201 130.289 18.8286C130.563 18.7372 130.746 18.463 130.837 18.1887H132.94C132.757 19.0115 132.3 19.56 131.66 20.0171C131.02 20.4742 130.197 20.657 129.192 20.657C128.461 20.5656 127.729 20.3828 127.181 20.1085ZM130.837 15.629C130.837 15.0805 130.655 14.7148 130.38 14.4405C130.106 14.1663 129.74 13.9834 129.283 13.9834C128.826 13.9834 128.461 14.1663 128.095 14.4405C127.821 14.7148 127.638 15.1719 127.546 15.629H130.837Z" fill="#141414"/>
<path d="M135.224 12.6115H137.51V13.8914C137.693 13.4343 137.967 13.0686 138.333 12.7944C138.698 12.5201 139.155 12.4287 139.612 12.4287C139.887 12.4287 140.161 12.4287 140.252 12.5201V14.6228C140.07 14.5313 139.887 14.5313 139.521 14.5313C138.79 14.5313 138.333 14.7142 137.967 15.1713C137.601 15.6284 137.418 16.1769 137.418 16.9997V20.4736H135.042V12.6115H135.224Z" fill="#141414"/>
<path d="M142.539 20.0171C141.99 19.6514 141.533 19.1943 141.168 18.5544C140.893 17.9144 140.71 17.2745 140.71 16.4517C140.71 15.629 140.893 14.8976 141.168 14.3491C141.442 13.8006 141.99 13.2521 142.539 12.8864C143.179 12.5207 143.819 12.3379 144.641 12.3379C145.281 12.3379 145.921 12.4293 146.378 12.7036C146.927 12.8864 147.293 13.2521 147.658 13.6178C147.933 13.9834 148.115 14.5319 148.207 15.0805H145.921C145.83 14.7148 145.739 14.5319 145.464 14.3491C145.281 14.1663 144.916 14.0749 144.641 14.0749C144.093 14.0749 143.727 14.2577 143.362 14.7148C143.087 15.0805 142.905 15.7204 142.905 16.3603C142.905 17.0917 143.087 17.7316 143.362 18.0973C143.636 18.5544 144.093 18.7372 144.55 18.7372C144.916 18.7372 145.281 18.6458 145.464 18.463C145.739 18.2801 145.83 18.0059 145.921 17.6402H148.207C148.115 18.2801 147.933 18.7372 147.567 19.1943C147.201 19.6514 146.836 20.0171 146.287 20.1999C145.738 20.4742 145.19 20.5656 144.459 20.5656C143.819 20.5656 143.087 20.3828 142.539 20.0171Z" fill="#141414"/>
<path d="M151.04 20.1085C150.4 19.7428 149.943 19.2857 149.669 18.6458C149.303 18.0059 149.212 17.2745 149.212 16.4517C149.212 15.629 149.395 14.989 149.669 14.3491C150.034 13.7092 150.492 13.2521 151.04 12.8864C151.68 12.5207 152.32 12.3379 153.143 12.3379C153.965 12.3379 154.697 12.5207 155.245 12.8864C155.794 13.2521 156.251 13.7092 156.525 14.4405C156.799 15.0805 156.982 15.9032 156.982 16.726V17.0003H151.406C151.406 17.6402 151.589 18.0973 151.863 18.463C152.137 18.8286 152.594 19.0115 153.143 19.0115C153.508 19.0115 153.874 18.9201 154.148 18.8286C154.423 18.7372 154.605 18.463 154.697 18.1887H156.799C156.617 19.0115 156.16 19.56 155.52 20.0171C154.88 20.4742 154.057 20.657 153.051 20.657C152.411 20.5656 151.68 20.3828 151.04 20.1085ZM154.788 15.629C154.788 15.0805 154.605 14.7148 154.331 14.4405C154.057 14.1663 153.691 13.9834 153.234 13.9834C152.777 13.9834 152.411 14.1663 152.046 14.4405C151.771 14.7148 151.589 15.1719 151.497 15.629H154.788Z" fill="#141414"/>
</svg>
